<svg width="81" height="81" viewBox="0 0 81 81" fill="none" xmlns="http://www.w3.org/2000/svg">
<g clip-path="url(#clip0_127_1679)">
<circle cx="40.498" cy="40.5" r="40" fill="#FF7070" fill-opacity="0.1"/>
<path d="M53.7793 26.0469H27.2168V26.8281H53.7793V26.0469Z" fill="#FF7070"/>
<path d="M53.7793 20.5781H27.2168V21.3594H53.7793V20.5781Z" fill="#FF7070"/>
<path d="M40.498 35.4219C41.2885 35.4201 42.0541 35.1455 42.6653 34.6443C43.2766 34.1432 43.6961 33.4463 43.8528 32.6716L43.9278 32.2969H37.0682L37.1432 32.6716C37.2999 33.4464 37.7194 34.1432 38.3307 34.6443C38.942 35.1455 39.7076 35.4201 40.498 35.4219Z" fill="#FF7070"/>
<path d="M48.9924 56.5285C48.9436 56.5413 48.8978 56.5635 48.8574 56.5937L42.4258 61.4175C41.5771 62.0572 40.5804 62.4718 39.5283 62.6226C38.4763 62.7734 37.4033 62.6555 36.4091 62.2799L34.2062 61.4538L41.5406 54.8528C41.6054 54.7945 41.6488 54.7162 41.664 54.6303C41.6791 54.5445 41.6651 54.456 41.6241 54.3791C41.5832 54.3021 41.5177 54.241 41.438 54.2056C41.3584 54.1702 41.2691 54.1624 41.1845 54.1836L37.3665 55.1381C36.7629 55.292 36.1247 55.234 35.5588 54.9737C34.9929 54.7134 34.5335 54.2667 34.2576 53.7082L34.0224 53.2377L41.9429 50.8007C42.9988 50.4737 44.1403 50.5682 45.1281 51.0643L45.6386 51.3195C46.4567 51.7292 47.3704 51.9099 48.2828 51.8427C49.1953 51.7755 50.0726 51.4628 50.8218 50.9377L64.1596 41.6012L63.7115 40.9612L58.8574 44.3591V30.3437C58.8568 29.8259 58.6509 29.3295 58.2847 28.9633C57.9186 28.5972 57.4221 28.3912 56.9043 28.3906H56.9006C57.1563 28.0535 57.2948 27.6419 57.2949 27.2187V24.875C57.2946 24.5713 57.2234 24.2719 57.0869 24.0006C56.9504 23.7293 56.7524 23.4937 56.5087 23.3125C56.7524 23.1313 56.9504 22.8957 57.0869 22.6244C57.2234 22.3531 57.2946 22.0537 57.2949 21.75V19.4062C57.2943 18.8884 57.0884 18.392 56.7222 18.0258C56.3561 17.6597 55.8596 17.4537 55.3418 17.4531H25.6543C25.1365 17.4537 24.64 17.6597 24.2739 18.0258C23.9077 18.392 23.7018 18.8884 23.7012 19.4062V21.75C23.7015 22.0537 23.7727 22.3531 23.9092 22.6244C24.0457 22.8957 24.2437 23.1313 24.4874 23.3125C24.2437 23.4937 24.0457 23.7293 23.9092 24.0006C23.7727 24.2719 23.7015 24.5713 23.7012 24.875V27.2187C23.7013 27.6419 23.8398 28.0535 24.0955 28.3906H24.0918C23.574 28.3912 23.0775 28.5972 22.7114 28.9633C22.3452 29.3295 22.1393 29.8259 22.1387 30.3437V60.0312C22.1393 60.5491 22.3452 61.0455 22.7114 61.4117C23.0775 61.7778 23.574 61.9838 24.0918 61.9844H33.396L36.1348 63.0114C37.2518 63.4332 38.4573 63.5655 39.6392 63.3961C40.8211 63.2267 41.9409 62.7611 42.8945 62.0425L49.2651 57.2646L64.035 53.3777L63.8361 52.6222L48.9924 56.5285ZM43.2324 41.6719L40.498 44.4062L37.7637 41.6719C37.4529 41.3611 37.2783 40.9395 37.2783 40.5C37.2783 40.0605 37.4529 39.6389 37.7637 39.3281C38.0745 39.0173 38.496 38.8427 38.9355 38.8427C39.3751 38.8427 39.7966 39.0173 40.1074 39.3281L40.498 39.7187L40.8887 39.3281C41.1995 39.0173 41.621 38.8427 42.0605 38.8427C42.5001 38.8427 42.9216 39.0173 43.2324 39.3281C43.5432 39.6389 43.7178 40.0605 43.7178 40.5C43.7178 40.9395 43.5432 41.3611 43.2324 41.6719ZM24.4824 21.75V19.4062C24.4828 19.0956 24.6064 18.7977 24.826 18.578C25.0457 18.3583 25.3436 18.2347 25.6543 18.2344H55.3418C55.6525 18.2347 55.9504 18.3583 56.17 18.578C56.3897 18.7977 56.5133 19.0956 56.5137 19.4062V21.75C56.5133 22.0607 56.3897 22.3586 56.17 22.5782C55.9504 22.7979 55.6525 22.9215 55.3418 22.9219H25.6543C25.3436 22.9215 25.0457 22.7979 24.826 22.5782C24.6064 22.3586 24.4828 22.0607 24.4824 21.75ZM24.4824 27.2187V24.875C24.4828 24.5643 24.6064 24.2664 24.826 24.0468C25.0457 23.8271 25.3436 23.7035 25.6543 23.7031H55.3418C55.6525 23.7035 55.9504 23.8271 56.17 24.0468C56.3897 24.2664 56.5133 24.5643 56.5137 24.875V27.2187C56.5133 27.5294 56.3897 27.8273 56.17 28.047C55.9504 28.2667 55.6525 28.3903 55.3418 28.3906H25.6543C25.3436 28.3903 25.0457 28.2667 24.826 28.047C24.6064 27.8273 24.4828 27.5294 24.4824 27.2187ZM32.1805 40.7762C32.1073 40.8495 32.0079 40.8906 31.9043 40.8906C31.8007 40.8906 31.7013 40.8495 31.6281 40.7762L28.5031 37.6512C28.4341 37.5823 28.3935 37.4901 28.3891 37.3927C28.3846 37.2953 28.4168 37.1998 28.4792 37.1249L30.4435 34.7678C31.7588 33.1931 33.572 32.1143 35.5835 31.7096L36.5152 31.5232C36.5404 31.5182 36.5661 31.5156 36.5918 31.5156H44.4043C44.43 31.5156 44.4557 31.5182 44.4809 31.5232L45.4126 31.7096C47.4241 32.1143 49.2372 33.1931 50.5526 34.7677L52.5169 37.1249C52.5793 37.1998 52.6114 37.2953 52.607 37.3927C52.6026 37.4901 52.562 37.5823 52.493 37.6512L49.368 40.7762C49.2948 40.8495 49.1954 40.8906 49.0918 40.8906C48.9882 40.8906 48.8888 40.8495 48.8156 40.7762L47.1387 39.0993V49.0937H46.3574V38.1562C46.3574 38.079 46.3803 38.0035 46.4233 37.9392C46.4662 37.875 46.5272 37.8249 46.5986 37.7954C46.67 37.7658 46.7485 37.7581 46.8243 37.7731C46.9 37.7882 46.9696 37.8254 47.0243 37.88L49.0918 39.9476L51.6884 37.351L49.9524 35.2679C48.7515 33.8302 47.0959 32.8452 45.2594 32.4756L44.7107 32.3659L44.619 32.8248C44.4284 33.7774 43.9137 34.6346 43.1624 35.2506C42.4111 35.8665 41.4696 36.2031 40.4981 36.2031C39.5265 36.2031 38.585 35.8665 37.8337 35.2506C37.0824 34.6347 36.5677 33.7775 36.3771 32.8248L36.2854 32.3659L35.7367 32.4756C33.9002 32.8452 32.2446 33.8302 31.0437 35.2679L29.3077 37.351L31.9043 39.9476L33.9718 37.88C34.0265 37.8254 34.0961 37.7882 34.1718 37.7731C34.2476 37.7581 34.3261 37.7658 34.3975 37.7954C34.4689 37.8249 34.5299 37.875 34.5728 37.9392C34.6157 38.0035 34.6387 38.079 34.6387 38.1562V50.6562H33.8574V39.0993L32.1805 40.7762Z" fill="#FF7070"/>
</g>
<defs>
<clipPath id="clip0_127_1679">
<rect width="80" height="80" fill="white" transform="translate(0.498047 0.5)"/>
</clipPath>
</defs>
</svg>
