<svg width="470" height="62" viewBox="0 0 470 62" fill="none" xmlns="http://www.w3.org/2000/svg">
<circle cx="5" cy="5" r="5" fill="#FF7070"/>
<circle cx="5" cy="18" r="5" fill="#FF7070"/>
<circle cx="5" cy="31" r="5" fill="#FF7070"/>
<circle cx="5" cy="44" r="5" fill="#FF7070"/>
<circle cx="5" cy="57" r="5" fill="#FF7070"/>
<circle cx="25" cy="5" r="5" fill="#FF7070"/>
<circle cx="25" cy="18" r="5" fill="#FF7070"/>
<circle cx="25" cy="31" r="5" fill="#FF7070"/>
<circle cx="25" cy="44" r="5" fill="#FF7070"/>
<circle cx="25" cy="57" r="5" fill="#FF7070"/>
<circle cx="45" cy="5" r="5" fill="#FF7070"/>
<circle cx="45" cy="18" r="5" fill="#FF7070"/>
<circle cx="45" cy="31" r="5" fill="#FF7070"/>
<circle cx="45" cy="44" r="5" fill="#FF7070"/>
<circle cx="45" cy="57" r="5" fill="#FF7070"/>
<circle cx="65" cy="5" r="5" fill="#FF7070"/>
<circle cx="65" cy="18" r="5" fill="#FF7070"/>
<circle cx="65" cy="31" r="5" fill="#FF7070"/>
<circle cx="65" cy="44" r="5" fill="#FF7070"/>
<circle cx="65" cy="57" r="5" fill="#FF7070"/>
<circle cx="85" cy="5" r="5" fill="#FF7070"/>
<circle cx="85" cy="18" r="5" fill="#FF7070"/>
<circle cx="85" cy="31" r="5" fill="#FF7070"/>
<circle cx="85" cy="44" r="5" fill="#FF7070"/>
<circle cx="85" cy="57" r="5" fill="#FF7070"/>
<circle cx="105" cy="5" r="5" fill="#FF7070"/>
<circle cx="105" cy="18" r="5" fill="#FF7070"/>
<circle cx="105" cy="31" r="5" fill="#FF7070"/>
<circle cx="105" cy="44" r="5" fill="#FF7070"/>
<circle cx="105" cy="57" r="5" fill="#FF7070"/>
<circle cx="125" cy="5" r="5" fill="#FF7070"/>
<circle cx="125" cy="18" r="5" fill="#FF7070"/>
<circle cx="125" cy="31" r="5" fill="#FF7070"/>
<circle cx="125" cy="44" r="5" fill="#FF7070"/>
<circle cx="125" cy="57" r="5" fill="#FF7070"/>
<circle cx="145" cy="5" r="5" fill="#FF7070"/>
<circle cx="145" cy="18" r="5" fill="#FF7070"/>
<circle cx="145" cy="31" r="5" fill="#FF7070"/>
<circle cx="145" cy="44" r="5" fill="#FF7070"/>
<circle cx="145" cy="57" r="5" fill="#FF7070"/>
<circle cx="165" cy="5" r="5" fill="#FF7070"/>
<circle cx="165" cy="18" r="5" fill="#FF7070"/>
<circle cx="165" cy="31" r="5" fill="#FF7070"/>
<circle cx="165" cy="44" r="5" fill="#FF7070"/>
<circle cx="165" cy="57" r="5" fill="#FF7070"/>
<circle cx="185" cy="5" r="5" fill="#FF7070"/>
<circle cx="185" cy="18" r="5" fill="#FF7070"/>
<circle cx="185" cy="31" r="5" fill="#FF7070"/>
<circle cx="185" cy="44" r="5" fill="#FF7070"/>
<circle cx="185" cy="57" r="5" fill="#FF7070"/>
<circle cx="205" cy="5" r="5" fill="#FF7070"/>
<circle cx="205" cy="18" r="5" fill="#FF7070"/>
<circle cx="205" cy="31" r="5" fill="#FF7070"/>
<circle cx="205" cy="44" r="5" fill="#FF7070"/>
<circle cx="205" cy="57" r="5" fill="#FF7070"/>
<circle cx="225" cy="5" r="5" fill="#FF7070"/>
<circle cx="225" cy="18" r="5" fill="#FF7070"/>
<circle cx="225" cy="31" r="5" fill="#FF7070"/>
<circle cx="225" cy="44" r="5" fill="#FF7070"/>
<circle cx="225" cy="57" r="5" fill="#FF7070"/>
<circle cx="245" cy="5" r="5" fill="#FF7070"/>
<circle cx="245" cy="18" r="5" fill="#FF7070"/>
<circle cx="245" cy="31" r="5" fill="#FF7070"/>
<circle cx="245" cy="44" r="5" fill="#FF7070"/>
<circle cx="245" cy="57" r="5" fill="#FF7070"/>
<circle cx="265" cy="5" r="5" fill="#FF7070"/>
<circle cx="265" cy="18" r="5" fill="#FF7070"/>
<circle cx="265" cy="31" r="5" fill="#FF7070"/>
<circle cx="265" cy="44" r="5" fill="#FF7070"/>
<circle cx="265" cy="57" r="5" fill="#FF7070"/>
<circle cx="285" cy="5" r="5" fill="#FF7070"/>
<circle cx="285" cy="18" r="5" fill="#FF7070"/>
<circle cx="285" cy="31" r="5" fill="#FF7070"/>
<circle cx="285" cy="44" r="5" fill="#FF7070"/>
<circle cx="285" cy="57" r="5" fill="#FF7070"/>
<circle cx="305" cy="5" r="5" fill="#FF7070"/>
<circle cx="305" cy="18" r="5" fill="#FF7070"/>
<circle cx="305" cy="31" r="5" fill="#FF7070"/>
<circle cx="305" cy="44" r="5" fill="#FF7070"/>
<circle cx="305" cy="57" r="5" fill="#FF7070"/>
<circle cx="325" cy="5" r="5" fill="#FF7070"/>
<circle cx="325" cy="18" r="5" fill="#FF7070"/>
<circle cx="325" cy="31" r="5" fill="#FF7070"/>
<circle cx="325" cy="44" r="5" fill="#FF7070"/>
<circle cx="325" cy="57" r="5" fill="#FF7070"/>
<circle cx="345" cy="5" r="5" fill="#FF7070"/>
<circle cx="345" cy="18" r="5" fill="#FF7070"/>
<circle cx="345" cy="31" r="5" fill="#FF7070"/>
<circle cx="345" cy="44" r="5" fill="#FF7070"/>
<circle cx="345" cy="57" r="5" fill="#FF7070"/>
<circle cx="365" cy="5" r="5" fill="#FF7070"/>
<circle cx="365" cy="18" r="5" fill="#FF7070"/>
<circle cx="365" cy="31" r="5" fill="#FF7070"/>
<circle cx="365" cy="44" r="5" fill="#FF7070"/>
<circle cx="365" cy="57" r="5" fill="#FF7070"/>
<circle cx="385" cy="5" r="5" fill="#FF7070"/>
<circle cx="385" cy="18" r="5" fill="#FF7070"/>
<circle cx="385" cy="31" r="5" fill="#FF7070"/>
<circle cx="385" cy="44" r="5" fill="#FF7070"/>
<circle cx="385" cy="57" r="5" fill="#FF7070"/>
<circle cx="405" cy="5" r="5" fill="#FF7070"/>
<circle cx="405" cy="18" r="5" fill="#FF7070"/>
<circle cx="405" cy="31" r="5" fill="#FF7070"/>
<circle cx="405" cy="44" r="5" fill="#FF7070"/>
<circle cx="405" cy="57" r="5" fill="#FF7070"/>
<circle cx="425" cy="5" r="5" fill="#FF7070"/>
<circle cx="425" cy="18" r="5" fill="#FF7070"/>
<circle cx="425" cy="31" r="5" fill="#FF7070"/>
<circle cx="425" cy="44" r="5" fill="#FF7070"/>
<circle cx="425" cy="57" r="5" fill="#FF7070"/>
<circle cx="445" cy="5" r="5" fill="#FF7070"/>
<circle cx="445" cy="18" r="5" fill="#FF7070"/>
<circle cx="445" cy="31" r="5" fill="#FF7070"/>
<circle cx="445" cy="44" r="5" fill="#FF7070"/>
<circle cx="445" cy="57" r="5" fill="#FF7070"/>
<circle cx="465" cy="5" r="5" fill="#FF7070"/>
<circle cx="465" cy="18" r="5" fill="#FF7070"/>
<circle cx="465" cy="31" r="5" fill="#FF7070"/>
<circle cx="465" cy="44" r="5" fill="#FF7070"/>
<circle cx="465" cy="57" r="5" fill="#FF7070"/>
</svg>
