<svg width="31" height="30" viewBox="0 0 31 30" fill="none" xmlns="http://www.w3.org/2000/svg">
<g clip-path="url(#clip0_127_1800)">
<path d="M30.498 15C30.498 6.71573 23.7823 0 15.498 0C7.21378 0 0.498047 6.71573 0.498047 15C0.498047 22.4869 5.98333 28.6925 13.1543 29.8177V19.3359H9.3457V15H13.1543V11.6953C13.1543 7.93593 15.3937 5.85938 18.82 5.85938C20.4612 5.85938 22.1777 6.15234 22.1777 6.15234V9.84375H20.2862C18.4229 9.84375 17.8418 11 17.8418 12.1862V15H22.002L21.3369 19.3359H17.8418V29.8177C25.0128 28.6925 30.498 22.4869 30.498 15Z" fill="#1877F2"/>
<path d="M21.3369 19.3359L22.002 15H17.8418V12.1862C17.8418 11 18.4229 9.84375 20.2862 9.84375H22.1777V6.15234C22.1777 6.15234 20.4612 5.85938 18.82 5.85938C15.3937 5.85938 13.1543 7.93593 13.1543 11.6953V15H9.3457V19.3359H13.1543V29.8177C14.7073 30.0608 16.2887 30.0608 17.8418 29.8177V19.3359H21.3369Z" fill="white"/>
</g>
<defs>
<clipPath id="clip0_127_1800">
<rect width="30" height="30" fill="white" transform="translate(0.498047)"/>
</clipPath>
</defs>
</svg>
