<svg width="152" height="50" viewBox="0 0 152 50" fill="none" xmlns="http://www.w3.org/2000/svg">
<path d="M12.024 16.4403C12.2919 17.2378 12.6344 17.998 13.0487 18.7146C12.2233 18.7146 11.3918 18.7956 10.5726 18.9638C9.75977 19.1289 8.95311 19.3782 8.16826 19.7146C7.71043 19.9078 7.25883 20.1352 6.81657 20.3907C6.50512 20.5714 6.20613 20.7614 5.91648 20.9608C5.17523 21.478 4.5025 22.0637 3.90763 22.7055C3.26605 23.3971 2.71167 24.1542 2.24761 24.9579C0.0986079 21.2256 -0.0571169 16.4777 2.24761 12.4805C4.55545 8.48028 8.74133 6.24338 13.0487 6.24026C12.5846 7.04094 12.2078 7.89769 11.9306 8.79494C11.6721 9.62988 11.5008 10.5053 11.4229 11.4088C11.3918 11.7609 11.3762 12.1191 11.3762 12.4805C11.3762 12.9883 11.4073 13.4899 11.4665 13.9853C11.5693 14.8358 11.7562 15.6583 12.0178 16.4465L12.024 16.4403Z" fill="url(#paint0_linear_127_1798)"/>
<path d="M2.24761 25.1324L2.17287 24.9984C-0.0602262 21.1197 -0.0602262 16.3063 2.17287 12.4338C4.40907 8.56128 8.57627 6.15303 13.0518 6.14992H13.2044L13.1265 6.28077C12.6625 7.08144 12.2887 7.93507 12.0178 8.81986C11.7593 9.66104 11.588 10.5334 11.5132 11.415C11.4821 11.7609 11.4665 12.1191 11.4665 12.4805C11.4665 12.9759 11.4977 13.4806 11.5568 13.9728C11.6565 14.8078 11.8403 15.6271 12.105 16.4154C12.3666 17.1973 12.7092 17.9575 13.1234 18.6709L13.2013 18.8018H13.0487C13.0487 18.8018 13.0393 18.8018 13.0362 18.8018C12.2171 18.8018 11.3949 18.8859 10.5913 19.0479C9.77535 19.213 8.97181 19.4623 8.20253 19.7925C7.74781 19.9857 7.29621 20.21 6.86018 20.4623C6.55184 20.6399 6.24974 20.8331 5.96632 21.0293C5.24064 21.5341 4.56791 22.1198 3.97304 22.7615C3.34392 23.4407 2.78954 24.1915 2.32548 24.9953L2.25073 25.1293L2.24761 25.1324ZM12.8992 6.32438C8.54512 6.38357 4.50251 8.74509 2.32548 12.521C0.148445 16.297 0.120414 20.9764 2.24761 24.7772C2.70233 24.0108 3.23802 23.2943 3.84223 22.6432C4.44645 21.992 5.12852 21.4001 5.86354 20.886C6.15007 20.6866 6.45529 20.4935 6.76986 20.3097C7.21212 20.0542 7.66995 19.8268 8.13089 19.6305C8.90952 19.2971 9.72551 19.0417 10.554 18.8766C11.3232 18.7208 12.1112 18.6367 12.8992 18.6273C12.513 17.9388 12.1922 17.2129 11.943 16.4683C11.6752 15.6708 11.4883 14.8358 11.3855 13.9915C11.3264 13.4899 11.2952 12.979 11.2952 12.4774C11.2952 12.1129 11.3108 11.7484 11.3419 11.3963C11.4167 10.5022 11.588 9.61742 11.8527 8.76379C12.1143 7.91638 12.4663 7.09702 12.9023 6.32438H12.8992Z" fill="white"/>
<path d="M12.024 16.4403C11.7593 15.6521 11.5724 14.8296 11.4727 13.9791C11.4136 13.4868 11.3824 12.9852 11.3824 12.4743C11.3824 12.1129 11.398 11.7546 11.4291 11.4026C11.507 10.4991 11.6783 9.62677 11.9368 8.78871C10.6131 8.93825 9.29571 9.35572 8.06548 10.066C3.6211 12.6332 1.89567 18.1039 3.90763 22.7024C4.5025 22.0606 5.17523 21.4749 5.91648 20.9577C6.20613 20.7552 6.50512 20.5651 6.81657 20.3876C7.25883 20.1321 7.71043 19.9078 8.16826 19.7115C8.95311 19.375 9.75977 19.1258 10.5726 18.9607C11.3949 18.7924 12.2233 18.7114 13.0487 18.7114C12.6344 17.9949 12.2887 17.2347 12.024 16.4372V16.4403Z" fill="url(#paint1_linear_127_1798)"/>
<path d="M3.8796 22.8612L3.82666 22.7397C1.77109 18.0416 3.57438 12.5615 8.02188 9.99439C9.23342 9.29341 10.5477 8.86036 11.9275 8.70771L12.0614 8.69213L12.0209 8.81986C11.7624 9.66104 11.5911 10.5334 11.5163 11.415C11.4852 11.7609 11.4696 12.1191 11.4696 12.4805C11.4696 12.9759 11.5008 13.4806 11.5599 13.9728C11.6596 14.8078 11.8434 15.6271 12.1081 16.4154C12.3697 17.1973 12.7123 17.9575 13.1265 18.6709L13.2044 18.8018H13.0518C13.0518 18.8018 13.0424 18.8018 13.0393 18.8018C12.2202 18.8018 11.398 18.8859 10.5945 19.0479C9.77845 19.213 8.97492 19.4623 8.20564 19.7925C7.75092 19.9857 7.29932 20.21 6.86329 20.4623C6.55495 20.6399 6.25285 20.8331 5.96943 21.0293C5.24375 21.534 4.57102 22.1198 3.97615 22.7615L3.88583 22.8612H3.8796ZM11.8122 8.89464C10.5072 9.05975 9.26145 9.48034 8.10909 10.1439C3.77994 12.6456 1.99845 17.9575 3.93566 22.5435C4.51807 21.9297 5.16589 21.372 5.86665 20.886C6.15318 20.6866 6.4584 20.4935 6.77297 20.3097C7.21523 20.0542 7.67306 19.8268 8.134 19.6305C8.91263 19.2972 9.72862 19.0417 10.5571 18.8766C11.3264 18.7208 12.1143 18.6367 12.9023 18.6273C12.5161 17.9388 12.1953 17.2129 11.9461 16.4683C11.6783 15.6708 11.4914 14.8358 11.3886 13.9915C11.3295 13.4899 11.2983 12.979 11.2983 12.4774C11.2983 12.1129 11.3139 11.7484 11.345 11.3963C11.4167 10.5489 11.5755 9.70777 11.8153 8.89464H11.8122Z" fill="white"/>
<path d="M12.024 16.4403C11.7593 15.6521 11.5724 14.8296 11.4727 13.9791C11.4136 13.4868 11.3824 12.9852 11.3824 12.4743C11.3824 12.1129 11.398 11.7546 11.4291 11.4026C10.7035 11.5646 9.99335 11.8387 9.31439 12.2282C6.21859 14.0164 4.88247 17.6833 5.91648 20.9577C6.20613 20.7552 6.50512 20.5651 6.81657 20.3876C7.25883 20.1321 7.71043 19.9078 8.16826 19.7115C8.95311 19.375 9.75977 19.1258 10.5726 18.9607C11.3949 18.7924 12.2233 18.7114 13.0487 18.7114C12.6344 17.9949 12.2887 17.2347 12.024 16.4372V16.4403Z" fill="url(#paint2_linear_127_1798)"/>
<path d="M5.86665 21.101L5.82928 20.9857C5.3185 19.3688 5.37456 17.5992 5.98189 16.0072C6.59856 14.3903 7.76649 13.0226 9.26768 12.1565C9.93729 11.7702 10.6567 11.4898 11.4073 11.3216L11.5257 11.2967L11.5163 11.415C11.4852 11.7609 11.4696 12.1191 11.4696 12.4805C11.4696 12.9759 11.5008 13.4806 11.5599 13.9728C11.6596 14.8078 11.8434 15.6271 12.1081 16.4154C12.3697 17.1973 12.7123 17.9575 13.1265 18.6709L13.2044 18.8018H13.0518C13.0518 18.8018 13.0424 18.8018 13.0393 18.8018C12.2202 18.8018 11.398 18.8859 10.5945 19.0479C9.77845 19.213 8.97492 19.4623 8.20564 19.7925C7.75092 19.9857 7.29932 20.21 6.86329 20.4623C6.55495 20.6399 6.25285 20.8331 5.96943 21.0293L5.86976 21.0979L5.86665 21.101ZM11.3295 11.5179C10.6381 11.683 9.97778 11.9478 9.358 12.3061C6.41169 14.0071 4.99771 17.5712 5.96631 20.8175C6.22482 20.643 6.49578 20.4717 6.77297 20.3097C7.21523 20.0542 7.67306 19.8268 8.134 19.6305C8.91263 19.2972 9.72862 19.0417 10.5571 18.8766C11.3264 18.7208 12.1143 18.6367 12.9023 18.6273C12.5161 17.9388 12.1953 17.2129 11.9461 16.4683C11.6783 15.6708 11.4914 14.8358 11.3886 13.9915C11.3295 13.4899 11.2983 12.979 11.2983 12.4774C11.2983 12.1534 11.3108 11.8325 11.3357 11.5179H11.3295Z" fill="white"/>
<path d="M12.024 16.4403C11.7593 15.6521 11.5724 14.8296 11.4727 13.9791C11.1613 14.0819 10.8561 14.219 10.5633 14.3903C8.65412 15.4932 7.75092 17.6647 8.16826 19.7115C8.95311 19.375 9.75977 19.1258 10.5726 18.9607C11.3949 18.7924 12.2233 18.7114 13.0487 18.7114C12.6344 17.9949 12.2887 17.2347 12.024 16.4372V16.4403Z" fill="url(#paint3_linear_127_1798)"/>
<path d="M8.10286 19.8361L8.08106 19.7302C7.64191 17.5868 8.61986 15.4122 10.5166 14.3155C10.8125 14.1442 11.127 14.004 11.4447 13.8981L11.5475 13.8638L11.5599 13.9697C11.6596 14.8047 11.8434 15.624 12.1081 16.4122C12.3697 17.1942 12.7123 17.9544 13.1265 18.6678L13.2044 18.7987H13.0518C13.0518 18.7987 13.0424 18.7987 13.0393 18.7987C12.2202 18.7987 11.398 18.8828 10.5945 19.0448C9.77845 19.2099 8.97492 19.4592 8.20564 19.7894L8.10597 19.833L8.10286 19.8361ZM11.398 14.1006C11.127 14.1971 10.8592 14.3218 10.6038 14.4682C8.80362 15.5056 7.85993 17.5525 8.23055 19.59C8.98114 19.2753 9.75977 19.0386 10.554 18.8766C11.3232 18.7208 12.1112 18.6367 12.8992 18.6273C12.513 17.9388 12.1922 17.2129 11.9399 16.4683C11.6845 15.705 11.5008 14.9075 11.398 14.1006Z" fill="white"/>
<path d="M13.0487 18.7146C12.2233 18.7146 11.3918 18.7956 10.5726 18.9638C10.4792 18.0198 10.9308 17.0603 11.8091 16.5555C11.8807 16.515 11.9524 16.4777 12.0271 16.4434C12.295 17.2409 12.6376 18.0011 13.0518 18.7177L13.0487 18.7146Z" fill="url(#paint4_linear_127_1798)"/>
<path d="M10.4948 19.0697L10.4854 18.9731C10.3858 17.9637 10.8872 16.9855 11.7655 16.4777C11.8371 16.4372 11.9119 16.3967 11.9897 16.3624L12.0801 16.3219L12.1112 16.4154C12.3728 17.1973 12.7154 17.9575 13.1296 18.6709L13.2075 18.8018H13.0549C13.0549 18.8018 13.0456 18.8018 13.0424 18.8018C12.2233 18.8018 11.4011 18.8859 10.5976 19.0479L10.501 19.0666L10.4948 19.0697ZM11.9742 16.5649C11.9337 16.5867 11.8932 16.6085 11.8527 16.6303C11.0616 17.0852 10.6007 17.9544 10.6536 18.8579C11.3918 18.7146 12.1486 18.6367 12.8992 18.6273C12.5286 17.97 12.2171 17.2752 11.9742 16.5649Z" fill="white"/>
<path d="M22.4015 39.4635C22.959 38.8342 23.4449 38.155 23.856 37.4385C24.2671 38.155 24.7529 38.8311 25.3104 39.4604C25.8586 40.0835 26.4784 40.6567 27.1636 41.1677C27.5622 41.4668 27.9827 41.744 28.4249 41.9995C28.7364 42.1802 29.0509 42.3422 29.3686 42.4949C30.1877 42.8781 31.0318 43.1678 31.882 43.361C32.8039 43.5728 33.7351 43.6725 34.6601 43.6725C32.5049 47.4017 28.4716 49.9096 23.856 49.9096C19.2403 49.9096 15.2101 47.4017 13.0518 43.6725C13.9768 43.6725 14.9049 43.5728 15.8237 43.3641C16.6771 43.1678 17.5211 42.8812 18.3402 42.498C18.661 42.3484 18.9787 42.1833 19.2901 42.0026C19.7293 41.7472 20.1497 41.4699 20.5484 41.1739C21.2336 40.6599 21.8533 40.0866 22.4015 39.4666V39.4635Z" fill="url(#paint5_linear_127_1798)"/>
<path d="M23.856 50C19.3867 50 15.2164 47.5918 12.9739 43.7192L12.8961 43.5884H13.0487C13.0487 43.5884 13.058 43.5884 13.0611 43.5884C13.983 43.5884 14.9049 43.4856 15.8019 43.28C16.6584 43.0837 17.4993 42.7939 18.2997 42.4201C18.6143 42.2737 18.932 42.1085 19.2434 41.9278C19.6732 41.6786 20.0937 41.4013 20.4923 41.1054C21.165 40.6007 21.7817 40.0305 22.333 39.4074C22.878 38.7906 23.3639 38.1145 23.7781 37.398L23.8529 37.2671L23.9276 37.398C24.3387 38.1114 24.8246 38.7875 25.3696 39.4043C25.9209 40.0274 26.5375 40.5975 27.2072 41.1022C27.6027 41.3982 28.0232 41.6786 28.4592 41.9278C28.7675 42.1054 29.0852 42.2705 29.3967 42.4201C30.1971 42.7971 31.038 43.0868 31.8945 43.28C32.7915 43.4856 33.7133 43.5884 34.6383 43.5884H34.8065L34.7287 43.7192C32.4893 47.5949 28.319 50 23.8497 50H23.856ZM13.2044 43.7629C15.4313 47.5045 19.4988 49.8255 23.856 49.8255C28.2131 49.8255 32.2807 47.5076 34.5075 43.7629C33.6168 43.7535 32.7292 43.6476 31.8633 43.4482C30.9944 43.2519 30.1441 42.9559 29.3312 42.5759C29.0136 42.4263 28.6928 42.2581 28.3813 42.0774C27.9391 41.8219 27.5124 41.5415 27.1137 41.2393C26.4348 40.7315 25.8056 40.152 25.2481 39.5196C24.728 38.9308 24.2609 38.289 23.8591 37.6129C23.4573 38.2921 22.9901 38.9339 22.47 39.5227C21.9125 40.1552 21.2834 40.7315 20.6044 41.2424C20.1996 41.5446 19.776 41.825 19.34 42.0774C19.0223 42.2612 18.7015 42.4294 18.3807 42.579C17.5709 42.9591 16.7175 43.255 15.8486 43.4513C14.9859 43.6476 14.0983 43.7535 13.2106 43.7629H13.2044Z" fill="white"/>
<path d="M22.4015 39.4635C21.8533 40.0866 21.2336 40.6598 20.5484 41.1708C20.1497 41.4699 19.7324 41.7471 19.2901 41.9995C18.9756 42.1802 18.661 42.3453 18.3402 42.4949C17.5211 42.8812 16.6771 43.1678 15.8237 43.361C16.6148 44.4327 17.6363 45.3642 18.8634 46.0745C23.3078 48.6417 28.9077 47.3986 31.882 43.3578C31.0286 43.1647 30.1846 42.8749 29.3686 42.4917C29.0478 42.3422 28.7333 42.1771 28.4249 41.9964C27.9827 41.7409 27.5622 41.4636 27.1636 41.1646C26.4784 40.6505 25.8617 40.0773 25.3104 39.4573C24.7561 38.828 24.2702 38.1519 23.856 37.4354C23.4417 38.1519 22.9559 38.8311 22.4015 39.4604V39.4635Z" fill="url(#paint6_linear_127_1798)"/>
<path d="M23.856 47.5076C22.1399 47.5076 20.4051 47.0684 18.8198 46.1524C17.6083 45.4514 16.5774 44.5324 15.7521 43.4139L15.6711 43.3049L15.8019 43.2737C16.6584 43.0774 17.4993 42.7877 18.2997 42.4139C18.6143 42.2674 18.932 42.1023 19.2434 41.9216C19.6732 41.6724 20.0937 41.3951 20.4923 41.0991C21.165 40.5944 21.7817 40.0243 22.333 39.4012C22.878 38.7843 23.3639 38.1083 23.7781 37.3917L23.8529 37.2609L23.9276 37.3917C24.3387 38.1052 24.8246 38.7812 25.3696 39.3981C25.9209 40.0212 26.5375 40.5913 27.2072 41.096C27.6027 41.392 28.0232 41.6724 28.4592 41.9216C28.7675 42.0992 29.0852 42.2643 29.3967 42.4139C30.1971 42.7908 31.038 43.0806 31.8945 43.2737L32.0253 43.3049L31.9443 43.4139C29.9884 46.0714 26.9487 47.5076 23.8466 47.5076H23.856ZM15.9732 43.417C16.7674 44.4669 17.7547 45.3362 18.907 45.9997C23.2362 48.5015 28.7239 47.3861 31.7294 43.4139C30.9072 43.2176 30.1005 42.9341 29.3281 42.5696C29.0105 42.4201 28.6897 42.2519 28.3782 42.0712C27.936 41.8157 27.5093 41.5353 27.1106 41.2331C26.4317 40.7253 25.8025 40.1458 25.245 39.5134C24.7249 38.9245 24.2577 38.2828 23.856 37.6067C23.4542 38.2859 22.987 38.9277 22.4669 39.5165C21.9094 40.1489 21.2803 40.7253 20.6013 41.2362C20.1964 41.5384 19.7729 41.8188 19.3368 42.0712C19.0192 42.255 18.6984 42.4232 18.3776 42.5727C17.6083 42.9341 16.7985 43.2176 15.9763 43.4139L15.9732 43.417Z" fill="white"/>
<path d="M22.4015 39.4635C21.8533 40.0866 21.2336 40.6598 20.5484 41.1708C20.1497 41.4699 19.7324 41.7471 19.2901 41.9995C18.9756 42.1802 18.661 42.3453 18.3402 42.4949C18.8416 43.0401 19.4365 43.523 20.1123 43.9124C23.2082 45.7007 27.0483 45.0246 29.3686 42.4917C29.0478 42.3422 28.7333 42.1771 28.4249 41.9964C27.9827 41.7409 27.5622 41.4636 27.1636 41.1646C26.4784 40.6505 25.8617 40.0773 25.3104 39.4573C24.7561 38.828 24.2702 38.1519 23.856 37.4354C23.4417 38.1519 22.9559 38.8311 22.4015 39.4604V39.4635Z" fill="url(#paint7_linear_127_1798)"/>
<path d="M23.8591 45.0059C22.5354 45.0059 21.2242 44.6601 20.0687 43.9903C19.3991 43.604 18.7949 43.1211 18.2748 42.554L18.1938 42.4668L18.3028 42.417C18.6174 42.2705 18.9351 42.1054 19.2465 41.9247C19.6763 41.6755 20.0968 41.3982 20.4954 41.1022C21.1682 40.5975 21.7848 40.0274 22.3361 39.4043C22.8811 38.7875 23.367 38.1114 23.7812 37.3948L23.856 37.264L23.9307 37.3948C24.3418 38.1083 24.8277 38.7843 25.3727 39.4012C25.924 40.0243 26.5407 40.5944 27.2103 41.0991C27.6058 41.3951 28.0263 41.6755 28.4623 41.9247C28.7706 42.1023 29.0883 42.2674 29.3998 42.417L29.5088 42.4668L29.4278 42.554C28.2817 43.8033 26.7244 44.6414 25.0395 44.9125C24.6471 44.9748 24.2484 45.0059 23.8529 45.0059H23.8591ZM18.4866 42.526C18.9756 43.0401 19.5362 43.4825 20.1559 43.8407C23.1023 45.5418 26.8926 44.9841 29.2222 42.526C28.9419 42.3889 28.6585 42.2394 28.3782 42.0805C27.936 41.825 27.5093 41.5446 27.1106 41.2424C26.4317 40.7346 25.8025 40.1551 25.245 39.5227C24.7249 38.9339 24.2577 38.2921 23.856 37.616C23.4542 38.2952 22.987 38.937 22.4669 39.5258C21.9094 40.1583 21.2803 40.7346 20.6013 41.2456C20.1964 41.5478 19.7729 41.8281 19.3368 42.0805C19.0565 42.2425 18.77 42.392 18.4897 42.5291L18.4866 42.526Z" fill="white"/>
<path d="M22.4015 39.4635C21.8533 40.0866 21.2336 40.6598 20.5484 41.1708C20.7944 41.3889 21.0654 41.5851 21.3613 41.7534C23.2673 42.8563 25.6032 42.5541 27.1636 41.1677C26.4784 40.6536 25.8617 40.0804 25.3104 39.4604C24.7561 38.8311 24.2702 38.155 23.856 37.4385C23.4417 38.155 22.9559 38.8342 22.4015 39.4635Z" fill="url(#paint8_linear_127_1798)"/>
<path d="M23.856 42.5136C22.9839 42.5136 22.1087 42.2892 21.3145 41.8313C21.0187 41.6599 20.7384 41.4605 20.4892 41.2362L20.4082 41.1646L20.4954 41.0991C21.1682 40.5944 21.7848 40.0243 22.3361 39.4012C22.8811 38.7843 23.367 38.1083 23.7812 37.3917L23.856 37.2609L23.9307 37.3917C24.3418 38.1052 24.8277 38.7812 25.3727 39.3981C25.924 40.0212 26.5407 40.5913 27.2103 41.096L27.2975 41.1614L27.2165 41.2331C26.2635 42.0774 25.0644 42.5136 23.8529 42.5136H23.856ZM20.6885 41.177C20.9097 41.3639 21.1495 41.5322 21.4049 41.6786C23.205 42.7192 25.4475 42.5104 27.0234 41.1739C26.3787 40.6817 25.7807 40.124 25.245 39.5196C24.7249 38.9308 24.2577 38.289 23.856 37.6129C23.4542 38.2921 22.987 38.9339 22.4669 39.5227C21.9343 40.1271 21.3363 40.6817 20.6885 41.177Z" fill="white"/>
<path d="M23.856 37.4385C24.2671 38.155 24.7529 38.8311 25.3104 39.4604C24.538 40.015 23.4822 40.1022 22.6071 39.5944C22.5354 39.5539 22.4669 39.5102 22.4015 39.4635C22.959 38.8342 23.4449 38.155 23.856 37.4385Z" fill="url(#paint9_linear_127_1798)"/>
<path d="M23.8529 40.015C23.4075 40.015 22.9621 39.8997 22.5603 39.6691C22.4887 39.6286 22.4171 39.5819 22.3486 39.5321L22.2676 39.476L22.333 39.4012C22.878 38.7843 23.3639 38.1083 23.7781 37.3917L23.8529 37.2609L23.9276 37.3917C24.3387 38.1052 24.8246 38.7812 25.3696 39.3981L25.435 39.4697L25.3572 39.5258C24.9087 39.8467 24.3792 40.0118 23.8497 40.0118L23.8529 40.015ZM22.5323 39.4448C22.5697 39.4697 22.6102 39.4947 22.6507 39.5165C23.4417 39.9713 24.4228 39.9402 25.1796 39.4417C24.6844 38.8747 24.2422 38.2578 23.856 37.6098C23.4698 38.2609 23.0275 38.8747 22.5323 39.4448Z" fill="white"/>
<path d="M37.1424 18.9638C36.3202 18.7956 35.4886 18.7146 34.6633 18.7146C35.0775 18.0011 35.4201 17.2409 35.6879 16.4434C35.9527 15.6552 36.1395 14.8327 36.2423 13.9853C36.3015 13.4931 36.3326 12.9883 36.3326 12.4774C36.3326 12.1191 36.3171 11.764 36.289 11.4119C36.2112 10.5116 36.0399 9.63611 35.7814 8.79806C35.5042 7.89457 35.1273 7.03782 34.6633 6.23403C38.9706 6.23715 43.1565 8.47716 45.4643 12.4743C47.7722 16.4745 47.6164 21.2194 45.4643 24.9517C45.0034 24.151 44.449 23.3971 43.8105 22.7055C43.2157 22.0637 42.546 21.478 41.8017 20.9608C41.512 20.7583 41.2099 20.5651 40.8954 20.3844C40.4562 20.129 40.0046 19.9047 39.5499 19.7115C38.7619 19.375 37.9584 19.1258 37.1424 18.9607V18.9638Z" fill="url(#paint10_linear_127_1798)"/>
<path d="M45.4643 25.1324L45.3896 24.9984C44.9286 24.1947 44.3743 23.4469 43.7482 22.7678C43.1503 22.1229 42.4775 21.5403 41.755 21.0356C41.4715 20.8362 41.1663 20.643 40.8549 20.4623C40.4251 20.2131 39.9766 19.9888 39.5188 19.7925C38.7464 19.4623 37.9428 19.213 37.1299 19.0479C36.3264 18.8828 35.4979 18.8018 34.6757 18.8018H34.5138L34.5916 18.6709C35.0059 17.9575 35.3453 17.2004 35.607 16.4154C35.8717 15.6271 36.0554 14.8047 36.1551 13.9728C36.2143 13.4806 36.2454 12.979 36.2454 12.4743C36.2454 12.116 36.2299 11.7609 36.2018 11.415C36.1271 10.5334 35.9589 9.66104 35.7004 8.81986C35.4294 7.93507 35.0526 7.07832 34.5885 6.27453L34.5107 6.14368H34.6633C39.1388 6.1468 43.306 8.55505 45.5422 12.4276C47.7784 16.3001 47.7784 21.1166 45.5422 24.9953L45.4674 25.1293L45.4643 25.1324ZM37.1611 18.8766C37.9864 19.0448 38.8024 19.2972 39.5842 19.6336C40.0482 19.833 40.5061 20.0604 40.939 20.3128C41.2566 20.4966 41.5619 20.6898 41.8515 20.8923C42.5865 21.4032 43.2686 21.9951 43.8728 22.6494C44.4739 23.3005 45.0096 24.014 45.4612 24.7804C47.5884 20.9795 47.5635 16.297 45.3834 12.521C43.2063 8.74821 39.1637 6.38357 34.8096 6.32438C35.2457 7.10013 35.6007 7.92261 35.8623 8.77313C36.124 9.62365 36.2953 10.5084 36.3731 11.4026C36.4043 11.7515 36.4167 12.1129 36.4167 12.4743C36.4167 12.9852 36.3856 13.4962 36.3264 13.9915C36.2267 14.8358 36.0368 15.6676 35.7689 16.4683C35.5197 17.2129 35.199 17.9388 34.8128 18.6242C35.6007 18.6336 36.3887 18.7177 37.1611 18.8734V18.8766Z" fill="white"/>
<path d="M37.1424 18.9638C37.9553 19.1289 38.7619 19.3782 39.5499 19.7146C40.0077 19.9109 40.4562 20.1352 40.8954 20.3876C41.2099 20.5683 41.512 20.7614 41.8017 20.9639C42.546 21.4811 43.2157 22.0668 43.8105 22.7086C44.3431 21.4873 44.639 20.1383 44.639 18.7177C44.639 13.5834 40.7646 9.35572 35.7782 8.79806C36.0368 9.633 36.208 10.5084 36.2859 11.4119C36.3171 11.764 36.3295 12.1191 36.3295 12.4774C36.3295 12.9883 36.2984 13.4931 36.2392 13.9853C36.1364 14.8358 35.9495 15.6552 35.6848 16.4434C35.4201 17.2378 35.0744 17.998 34.6601 18.7146C35.4855 18.7146 36.3171 18.7956 37.1393 18.9638L37.1424 18.9638Z" fill="url(#paint11_linear_127_1798)"/>
<path d="M43.8354 22.8675L43.7451 22.7678C43.1471 22.1229 42.4744 21.5403 41.7519 21.0356C41.4684 20.8362 41.1632 20.643 40.8518 20.4623C40.422 20.2131 39.9735 19.9888 39.5156 19.7925C38.7432 19.4623 37.9397 19.213 37.1268 19.0479C36.3233 18.8828 35.4948 18.8018 34.6726 18.8018H34.5107L34.5885 18.6709C35.0027 17.9575 35.3422 17.2004 35.6038 16.4154C35.8686 15.6271 36.0523 14.8047 36.152 13.9728C36.2112 13.4806 36.2423 12.979 36.2423 12.4743C36.2423 12.116 36.2267 11.7609 36.1987 11.415C36.124 10.5334 35.9558 9.66104 35.6973 8.81986L35.6568 8.69213L35.7907 8.70771C40.886 9.27472 44.7293 13.5772 44.7293 18.7146C44.7293 20.1134 44.449 21.4686 43.8915 22.7397L43.8386 22.8644L43.8354 22.8675ZM37.158 18.8766C37.9833 19.0448 38.7993 19.2972 39.581 19.6336C40.0451 19.833 40.5029 20.0604 40.9359 20.3128C41.2535 20.4966 41.5588 20.6898 41.8484 20.8923C42.546 21.3783 43.197 21.9359 43.7794 22.5528C44.2902 21.3378 44.5487 20.0511 44.5487 18.7208C44.5487 13.7174 40.8393 9.52084 35.8997 8.90398C36.1395 9.714 36.2984 10.5552 36.37 11.4057C36.4011 11.7546 36.4136 12.116 36.4136 12.4774C36.4136 12.9883 36.3825 13.4993 36.3233 13.9946C36.2236 14.8389 36.0336 15.6708 35.7658 16.4714C35.5166 17.216 35.1958 17.9419 34.8096 18.6273C35.5976 18.6367 36.3856 18.7208 37.158 18.8766Z" fill="white"/>
<path d="M37.1424 18.9638C37.9553 19.1289 38.7619 19.3782 39.5499 19.7146C40.0077 19.9109 40.4562 20.1352 40.8954 20.3876C41.2099 20.5683 41.512 20.7614 41.8017 20.9639C42.0228 20.2567 42.1443 19.5028 42.1443 18.7208C42.1443 15.1442 39.6371 12.1534 36.2859 11.4119C36.3171 11.764 36.3295 12.1191 36.3295 12.4774C36.3295 12.9883 36.2984 13.4931 36.2392 13.9853C36.1364 14.8358 35.9495 15.6552 35.6848 16.4434C35.4201 17.2378 35.0744 17.998 34.6601 18.7146C35.4855 18.7146 36.3171 18.7956 37.1393 18.9638L37.1424 18.9638Z" fill="url(#paint12_linear_127_1798)"/>
<path d="M41.8484 21.1041L41.7487 21.0356C41.4653 20.8362 41.1632 20.643 40.8486 20.4654C40.4188 20.2162 39.9704 19.9919 39.5125 19.7956C38.7401 19.4654 37.9366 19.2161 37.1237 19.051C36.3202 18.8859 35.4917 18.8049 34.6695 18.8049H34.5075L34.5854 18.6741C34.9996 17.9606 35.3391 17.2036 35.6007 16.4185C35.8655 15.6303 36.0492 14.8078 36.1489 13.9759C36.208 13.4837 36.2392 12.9821 36.2392 12.4774C36.2392 12.1191 36.2236 11.764 36.1956 11.4182L36.1862 11.2998L36.3046 11.3247C37.9584 11.6923 39.4627 12.6238 40.5403 13.9479C41.6304 15.2907 42.2315 16.9855 42.2315 18.7208C42.2315 19.4934 42.1162 20.2598 41.8858 20.992L41.8484 21.1072V21.1041ZM37.1611 18.8766C37.9864 19.0448 38.8024 19.2972 39.5842 19.6336C40.0482 19.833 40.5061 20.0604 40.939 20.3128C41.2193 20.4748 41.4934 20.6461 41.7519 20.8237C41.9543 20.1414 42.054 19.4373 42.054 18.7208C42.054 15.3187 39.6745 12.3123 36.3825 11.5272C36.4043 11.8387 36.4167 12.1596 36.4167 12.4805C36.4167 12.9915 36.3856 13.5024 36.3264 13.9978C36.2267 14.842 36.0368 15.6739 35.7689 16.4745C35.5197 17.2191 35.199 17.945 34.8128 18.6304C35.6007 18.6398 36.3887 18.7239 37.1611 18.8797V18.8766Z" fill="white"/>
<path d="M37.1424 18.9638C37.9553 19.1289 38.7619 19.3782 39.5499 19.7146C39.6153 19.3937 39.6496 19.0604 39.6496 18.7208C39.6496 16.5182 38.22 14.6458 36.2392 13.9853C36.1364 14.8358 35.9495 15.6552 35.6848 16.4434C35.4201 17.2378 35.0744 17.998 34.6601 18.7146C35.4855 18.7146 36.3171 18.7956 37.1393 18.9638L37.1424 18.9638Z" fill="url(#paint13_linear_127_1798)"/>
<path d="M39.6122 19.8361L39.5125 19.7925C38.7401 19.4623 37.9366 19.213 37.1237 19.0479C36.3202 18.8828 35.4917 18.8018 34.6695 18.8018H34.5075L34.5854 18.6709C34.9996 17.9575 35.3391 17.2004 35.6007 16.4154C35.8655 15.6271 36.0492 14.8047 36.1489 13.9728L36.1613 13.8669L36.2641 13.9012C38.3384 14.5928 39.7337 16.5275 39.7337 18.7177C39.7337 19.0604 39.6994 19.4 39.6309 19.7302L39.6091 19.8361H39.6122ZM37.158 18.8766C37.9491 19.0355 38.7277 19.2753 39.4814 19.59C39.5312 19.3065 39.5592 19.0136 39.5592 18.7177C39.5592 16.6397 38.2605 14.7984 36.3108 14.1037C36.208 14.9106 36.0243 15.705 35.7658 16.4714C35.5166 17.216 35.1958 17.9419 34.8096 18.6273C35.5976 18.6367 36.3856 18.7208 37.158 18.8766Z" fill="white"/>
<path d="M34.6633 18.7146C35.0775 18.0011 35.4201 17.2409 35.6879 16.4434C36.5538 16.8359 37.1549 17.7052 37.1549 18.7177C37.1549 18.7987 37.1517 18.8797 37.1424 18.9607C36.3202 18.7924 35.4886 18.7114 34.6633 18.7114V18.7146Z" fill="url(#paint14_linear_127_1798)"/>
<path d="M37.2203 19.0697L37.1237 19.051C36.3202 18.889 35.4917 18.8049 34.6695 18.8049H34.5075L34.5854 18.6741C34.9996 17.9606 35.3391 17.2036 35.6007 16.4185L35.6319 16.325L35.7222 16.3655C36.6472 16.783 37.2421 17.7083 37.2421 18.7208C37.2421 18.8018 37.2389 18.889 37.2296 18.9731L37.2203 19.0697ZM34.8128 18.6273C35.5665 18.6367 36.3233 18.7146 37.0614 18.8579C37.0614 18.8111 37.0645 18.7644 37.0645 18.7208C37.0645 17.808 36.5475 16.973 35.7346 16.568C35.4886 17.2815 35.1803 17.9731 34.8096 18.6304L34.8128 18.6273Z" fill="white"/>
<path d="M25.3727 20.696C25.3634 20.7614 25.3509 20.8268 25.3385 20.8923C25.2886 21.1664 25.2326 21.4437 25.1641 21.7179C25.136 21.8331 25.1049 21.9484 25.0737 22.0637C25.0519 22.1385 25.0301 22.2163 25.0083 22.2911C24.9896 22.3565 24.9678 22.422 24.9492 22.4843C24.89 22.6681 24.8277 22.8488 24.7623 23.0295C24.7467 23.0731 24.7311 23.1136 24.7156 23.1541C24.7 23.1946 24.6844 23.2351 24.6688 23.2725C24.647 23.3317 24.6221 23.3877 24.5972 23.4469C24.5131 23.6526 24.4228 23.8582 24.3263 24.0607C24.3045 24.1105 24.2795 24.1573 24.2546 24.2071C24.2017 24.3162 24.1456 24.4252 24.0896 24.5311C24.0615 24.5841 24.0335 24.6339 24.0055 24.6869C23.9681 24.7586 23.9276 24.8271 23.8902 24.8956C23.8809 24.9143 23.8684 24.933 23.8591 24.9517C23.8497 24.933 23.8373 24.9143 23.8279 24.8956C23.8155 24.8738 23.803 24.852 23.7906 24.8302C23.7625 24.7804 23.7376 24.7336 23.7096 24.6869C23.6784 24.6339 23.6504 24.5779 23.6224 24.5218C23.6068 24.4906 23.5912 24.4626 23.5757 24.4314C23.5663 24.4127 23.5539 24.3909 23.5445 24.3691C23.4916 24.2663 23.4417 24.1635 23.3919 24.0607C23.3701 24.0171 23.3514 23.9735 23.3327 23.9298C23.3172 23.8956 23.3016 23.8613 23.286 23.827C23.258 23.7647 23.23 23.7024 23.2019 23.637C23.1739 23.5747 23.1459 23.5093 23.1209 23.4438C23.1116 23.422 23.1054 23.4002 23.096 23.3815C23.096 23.3815 23.096 23.3815 23.096 23.3784C23.0711 23.313 23.0431 23.2507 23.0182 23.1852C23.0057 23.1541 22.9933 23.1198 22.9808 23.0887C22.9683 23.0575 22.9559 23.0232 22.9434 22.9921C22.9278 22.9516 22.9123 22.9111 22.8998 22.8706C22.8842 22.8332 22.8718 22.7927 22.8593 22.7522C22.85 22.7273 22.8438 22.7024 22.8344 22.6805C22.8251 22.6525 22.8157 22.6245 22.8064 22.5964C22.7908 22.5528 22.7784 22.5061 22.7628 22.4625C22.7472 22.4188 22.7348 22.3721 22.7223 22.3285C22.7067 22.2849 22.6943 22.2381 22.6818 22.1945C22.6693 22.1509 22.6569 22.1073 22.6444 22.0637C22.6133 21.9484 22.5821 21.8331 22.5541 21.7179C22.5074 21.5278 22.4638 21.3347 22.4264 21.1446C22.4171 21.0948 22.4077 21.0449 22.3984 20.9951C22.3828 20.9234 22.3704 20.8487 22.361 20.777C22.3548 20.7365 22.3486 20.696 22.3423 20.6586C22.333 20.6119 22.3267 20.5651 22.3205 20.5184C22.3112 20.453 22.3018 20.3876 22.2925 20.3221C22.2769 20.21 22.2645 20.0978 22.2551 19.9857C22.2489 19.9389 22.2458 19.8953 22.2427 19.8486C22.2364 19.78 22.2302 19.7115 22.2271 19.6461C22.2209 19.5775 22.2177 19.509 22.2146 19.4436C22.2084 19.3501 22.2053 19.2567 22.2022 19.1632C22.2022 19.1071 22.1991 19.0541 22.1991 18.9981C22.1959 18.8485 22.1959 18.6959 22.1991 18.5463C22.1991 18.4871 22.1991 18.4279 22.2022 18.3656C22.2053 18.3033 22.2053 18.2472 22.2084 18.1849C22.2084 18.132 22.2146 18.079 22.2177 18.0292C22.224 17.9014 22.2333 17.7768 22.2458 17.6491C22.252 17.5899 22.2551 17.5307 22.2613 17.4715C22.2676 17.4123 22.2738 17.3531 22.28 17.2939C22.2925 17.188 22.3049 17.0821 22.3205 16.9761C22.3299 16.9232 22.3361 16.8702 22.3423 16.8172C22.3517 16.7643 22.3579 16.7113 22.3672 16.6584C22.3766 16.5992 22.3859 16.5431 22.3984 16.487C22.4171 16.3904 22.4358 16.2938 22.4544 16.2004C22.4669 16.1412 22.4794 16.082 22.4918 16.0259C22.5012 15.9761 22.5136 15.9293 22.523 15.8795C22.5821 15.6209 22.6507 15.3654 22.7285 15.11C22.741 15.0726 22.7503 15.0352 22.7628 14.9978C22.7815 14.9324 22.8033 14.8701 22.8251 14.8047C22.8406 14.7548 22.8593 14.7018 22.8749 14.652C22.8905 14.6022 22.9092 14.5523 22.9278 14.5025C22.9652 14.3965 23.0057 14.2875 23.0462 14.1816C23.0618 14.138 23.0805 14.0975 23.096 14.057C23.1147 14.0071 23.1365 13.9573 23.1583 13.9105C23.1988 13.8108 23.2424 13.7143 23.286 13.6177C23.3078 13.5678 23.3296 13.5211 23.3514 13.4712C23.3732 13.4214 23.395 13.3747 23.4199 13.3279C23.4698 13.222 23.5227 13.1161 23.5757 13.0133C23.6068 12.9541 23.6348 12.8949 23.666 12.8388C23.7314 12.7173 23.7968 12.5989 23.8653 12.4805C25.2886 14.948 25.8368 17.8578 25.3821 20.7022L25.3727 20.696Z" fill="#231F20"/>
<path d="M23.856 24.9548C21.5481 28.9551 17.3591 31.192 13.0487 31.1951C15.2039 27.4659 19.2372 24.9548 23.856 24.9548Z" fill="#231F20"/>
<path d="M34.6633 31.1951C30.3559 31.1951 26.1669 28.9551 23.856 24.9548C28.4748 24.9548 32.508 27.4659 34.6633 31.1951Z" fill="#231F20"/>
<path d="M23.856 24.9548C21.5481 28.9551 17.3591 31.192 13.0487 31.1951C15.2039 27.4659 19.2372 24.9548 23.856 24.9548Z" fill="#231F20"/>
<path d="M15.2568 21.5154C14.7025 21.6805 14.1574 21.911 13.6342 22.2132C10.5602 23.989 9.22408 27.6123 10.2114 30.868C9.04966 30.5969 7.90664 30.1514 6.81657 29.5221C4.84821 28.3849 3.30654 26.7929 2.24761 24.9548C3.30654 23.1167 4.8451 21.5247 6.81657 20.3876C8.78493 19.2504 10.9308 18.7114 13.0518 18.7146C13.6498 19.752 14.3972 20.696 15.2568 21.5154Z" fill="#231F20"/>
<path d="M25.3727 20.696C25.3634 20.7614 25.3509 20.8268 25.3385 20.8923C25.2886 21.1664 25.2326 21.4437 25.1641 21.7179C25.136 21.8331 25.1049 21.9484 25.0737 22.0637C25.0519 22.1385 25.0301 22.2163 25.0083 22.2911C24.9896 22.3565 24.9678 22.422 24.9492 22.4843C24.89 22.6681 24.8277 22.8488 24.7623 23.0295C24.7467 23.0731 24.7311 23.1136 24.7156 23.1541C24.7 23.1946 24.6844 23.2351 24.6688 23.2725C24.647 23.3317 24.6221 23.3877 24.5972 23.4469C24.5131 23.6526 24.4228 23.8582 24.3263 24.0607C24.3045 24.1105 24.2795 24.1573 24.2546 24.2071C24.2017 24.3162 24.1456 24.4252 24.0896 24.5311C24.0615 24.5841 24.0335 24.6339 24.0055 24.6869C23.9681 24.7586 23.9276 24.8271 23.8902 24.8956C23.8809 24.9143 23.8684 24.933 23.8591 24.9517C23.8497 24.933 23.8373 24.9143 23.8279 24.8956C23.8155 24.8738 23.803 24.852 23.7906 24.8302C23.7625 24.7804 23.7376 24.7336 23.7096 24.6869C23.6784 24.6339 23.6504 24.5779 23.6224 24.5218C23.6068 24.4906 23.5912 24.4626 23.5757 24.4314C23.5663 24.4127 23.5539 24.3909 23.5445 24.3691C23.4916 24.2663 23.4417 24.1635 23.3919 24.0607C23.3701 24.0171 23.3514 23.9735 23.3327 23.9298C23.3172 23.8956 23.3016 23.8613 23.286 23.827C23.258 23.7647 23.23 23.7024 23.2019 23.637C23.1739 23.5747 23.1459 23.5093 23.1209 23.4438C23.1116 23.422 23.1054 23.4002 23.096 23.3815C23.096 23.3815 23.096 23.3815 23.096 23.3784C23.0711 23.313 23.0431 23.2507 23.0182 23.1852C23.0057 23.1541 22.9933 23.1198 22.9808 23.0887C22.9683 23.0575 22.9559 23.0232 22.9434 22.9921C22.9278 22.9516 22.9123 22.9111 22.8998 22.8706C22.8842 22.8332 22.8718 22.7927 22.8593 22.7522C22.85 22.7273 22.8438 22.7024 22.8344 22.6805C22.8251 22.6525 22.8157 22.6245 22.8064 22.5964C22.7908 22.5528 22.7784 22.5061 22.7628 22.4625C22.7472 22.4188 22.7348 22.3721 22.7223 22.3285C22.7067 22.2849 22.6943 22.2381 22.6818 22.1945C22.6693 22.1509 22.6569 22.1073 22.6444 22.0637C22.6133 21.9484 22.5821 21.8331 22.5541 21.7179C22.5074 21.5278 22.4638 21.3347 22.4264 21.1446C22.4171 21.0948 22.4077 21.0449 22.3984 20.9951C22.3828 20.9234 22.3704 20.8487 22.361 20.777C22.3548 20.7365 22.3486 20.696 22.3423 20.6586C22.333 20.6119 22.3267 20.5651 22.3205 20.5184C22.3112 20.453 22.3018 20.3876 22.2925 20.3221C22.2769 20.21 22.2645 20.0978 22.2551 19.9857C22.2489 19.9389 22.2458 19.8953 22.2427 19.8486C22.2364 19.78 22.2302 19.7115 22.2271 19.6461C22.2209 19.5775 22.2177 19.509 22.2146 19.4436C22.2084 19.3501 22.2053 19.2567 22.2022 19.1632C22.2022 19.1071 22.1991 19.0541 22.1991 18.9981C22.1959 18.8485 22.1959 18.6959 22.1991 18.5463C22.1991 18.4871 22.1991 18.4279 22.2022 18.3656C22.2053 18.3033 22.2053 18.2472 22.2084 18.1849C22.2084 18.132 22.2146 18.079 22.2177 18.0292C22.224 17.9014 22.2333 17.7768 22.2458 17.6491C22.252 17.5899 22.2551 17.5307 22.2613 17.4715C22.2676 17.4123 22.2738 17.3531 22.28 17.2939C22.2925 17.188 22.3049 17.0821 22.3205 16.9761C22.3299 16.9232 22.3361 16.8702 22.3423 16.8172C22.3517 16.7643 22.3579 16.7113 22.3672 16.6584C22.3766 16.5992 22.3859 16.5431 22.3984 16.487C22.4171 16.3904 22.4358 16.2938 22.4544 16.2004C22.4669 16.1412 22.4794 16.082 22.4918 16.0259C22.5012 15.9761 22.5136 15.9293 22.523 15.8795C22.5821 15.6209 22.6507 15.3654 22.7285 15.11C22.741 15.0726 22.7503 15.0352 22.7628 14.9978C22.7815 14.9324 22.8033 14.8701 22.8251 14.8047C22.8406 14.7548 22.8593 14.7018 22.8749 14.652C22.8905 14.6022 22.9092 14.5523 22.9278 14.5025C22.9652 14.3965 23.0057 14.2875 23.0462 14.1816C23.0618 14.138 23.0805 14.0975 23.096 14.057C23.1147 14.0071 23.1365 13.9573 23.1583 13.9105C23.1988 13.8108 23.2424 13.7143 23.286 13.6177C23.3078 13.5678 23.3296 13.5211 23.3514 13.4712C23.3732 13.4214 23.395 13.3747 23.4199 13.3279C23.4698 13.222 23.5227 13.1161 23.5757 13.0133C23.6068 12.9541 23.6348 12.8949 23.666 12.8388C23.7314 12.7173 23.7968 12.5989 23.8653 12.4805C25.2886 14.948 25.8368 17.8578 25.3821 20.7022L25.3727 20.696Z" fill="#231F20"/>
<path d="M23.856 24.9548C21.5481 28.9551 17.3591 31.192 13.0487 31.1951C15.2039 27.4659 19.2372 24.9548 23.856 24.9548Z" fill="#231F20"/>
<path d="M23.6566 12.8326C23.6255 12.8918 23.5943 12.9478 23.5663 13.007C23.5134 13.1098 23.4604 13.2158 23.4106 13.3217C23.3888 13.3684 23.3639 13.4183 23.3421 13.465C23.3203 13.5149 23.2985 13.5616 23.2767 13.6114C23.2331 13.708 23.1895 13.8046 23.149 13.9043C23.1272 13.9541 23.1085 14.004 23.0867 14.0507C23.0711 14.0912 23.0524 14.1348 23.0369 14.1753C22.9964 14.2813 22.9559 14.3903 22.9185 14.4962C22.8998 14.5461 22.8811 14.5959 22.8656 14.6458C22.8469 14.6956 22.8313 14.7455 22.8157 14.7984C22.7939 14.8607 22.7721 14.9262 22.7534 14.9916C22.741 15.029 22.7316 15.0664 22.7192 15.1037C22.6413 15.3592 22.5728 15.6147 22.5136 15.8733C22.5012 15.9231 22.4918 15.9698 22.4825 16.0197C22.4669 16.0789 22.4576 16.1381 22.4451 16.1942C22.4264 16.2907 22.4077 16.3873 22.389 16.4808C22.3797 16.5369 22.3704 16.5961 22.3579 16.6521C22.3486 16.7051 22.3392 16.7581 22.333 16.811C22.3236 16.864 22.3174 16.9169 22.3112 16.9699C22.2956 17.0758 22.2831 17.1818 22.2707 17.2877C22.2645 17.3469 22.2582 17.4061 22.252 17.4653C22.2458 17.5245 22.2395 17.5836 22.2364 17.6428C22.224 17.7675 22.2146 17.8952 22.2084 18.0229C22.2084 18.0759 22.2022 18.1289 22.1991 18.1787C22.1991 18.2379 22.1959 18.2971 22.1928 18.3594C22.1897 18.4217 22.1897 18.4778 22.1897 18.5401C22.1897 18.6896 22.1897 18.8423 22.1897 18.9918C22.1897 19.0479 22.1897 19.104 22.1928 19.157C22.1928 19.2504 22.1991 19.3439 22.2053 19.4373C22.2084 19.5059 22.2146 19.5744 22.2177 19.6399C22.2209 19.7084 22.2271 19.7769 22.2333 19.8424C22.2364 19.8891 22.2427 19.9327 22.2458 19.9794C22.2551 20.0916 22.2707 20.2038 22.2831 20.3159C22.2925 20.3813 22.3018 20.4468 22.3112 20.5122C22.3174 20.5589 22.3236 20.6056 22.333 20.6524C22.3392 20.6929 22.3454 20.7303 22.3517 20.7708C22.3641 20.8424 22.3766 20.9172 22.389 20.9888C22.3984 21.0387 22.4077 21.0885 22.4171 21.1384C22.4544 21.3284 22.498 21.5216 22.5448 21.7116C22.5728 21.8269 22.6039 21.9422 22.6351 22.0574C22.6475 22.1011 22.66 22.1447 22.6725 22.1883C22.6849 22.2319 22.6974 22.2786 22.7129 22.3223C22.7254 22.3659 22.741 22.4126 22.7534 22.4562C22.7659 22.4998 22.7815 22.5466 22.797 22.5902C22.8064 22.6182 22.8157 22.6463 22.8251 22.6743C22.8344 22.6992 22.8406 22.7242 22.85 22.746C22.8624 22.7865 22.878 22.8239 22.8905 22.8644C22.906 22.9049 22.9185 22.9454 22.9341 22.9859C22.9465 23.017 22.959 23.0513 22.9715 23.0824C22.9839 23.1136 22.9964 23.1479 23.0088 23.179C23.0337 23.2444 23.0587 23.3067 23.0867 23.3722C23.0867 23.3722 23.0867 23.3722 23.0867 23.3753C23.096 23.3971 23.1023 23.4189 23.1116 23.4376C23.1365 23.503 23.1645 23.5653 23.1926 23.6308C23.2206 23.6931 23.2486 23.7585 23.2767 23.8208C23.2922 23.8551 23.3078 23.8893 23.3234 23.9236C23.3421 23.9672 23.3639 24.0108 23.3826 24.0545C23.4324 24.1573 23.4822 24.2601 23.5352 24.3629C23.5445 24.3847 23.557 24.4065 23.5663 24.4252C23.5819 24.4564 23.5975 24.4844 23.613 24.5155C23.6411 24.5716 23.6722 24.6246 23.7002 24.6807C23.7252 24.7305 23.7532 24.7772 23.7812 24.824C23.7937 24.8458 23.8061 24.8676 23.8186 24.8894C23.8311 24.9081 23.8404 24.9268 23.8497 24.9455C23.8622 24.9268 23.8715 24.9081 23.8809 24.8894C23.9214 24.8209 23.9587 24.7492 23.9961 24.6807C24.0241 24.6308 24.0522 24.5779 24.0802 24.5249C24.1363 24.419 24.1923 24.3099 24.2453 24.2009C24.2702 24.151 24.2951 24.1043 24.3169 24.0545C24.4135 23.852 24.5038 23.6463 24.5879 23.4407C24.6128 23.3815 24.6346 23.3254 24.6595 23.2662C24.6751 23.2257 24.6907 23.1884 24.7062 23.1479C24.7218 23.1074 24.7374 23.0637 24.7529 23.0232C24.8183 22.8425 24.8838 22.6587 24.9398 22.478C24.9585 22.4126 24.9803 22.3472 24.999 22.2849C25.0208 22.207 25.0426 22.1322 25.0644 22.0574C25.0955 21.9422 25.1267 21.8269 25.1547 21.7116C25.2232 21.4375 25.2793 21.1633 25.3291 20.886C25.3416 20.8206 25.3509 20.7552 25.3634 20.6898C25.8181 17.8453 25.2699 14.9355 23.8466 12.4681C23.7781 12.5865 23.7127 12.708 23.6473 12.8263L23.6566 12.8326Z" fill="url(#paint15_linear_127_1798)"/>
<path d="M34.6601 6.23715C32.5018 2.50794 28.4716 0 23.856 0C19.2403 0 15.2101 2.50794 13.0518 6.23715C11.9897 8.07215 11.3824 10.2031 11.3824 12.4774C11.3824 14.7517 11.9897 16.8796 13.0518 18.7146C14.2509 18.7146 15.4406 18.889 16.5805 19.2255C16.4435 18.6616 16.3718 18.0728 16.3718 17.4684C16.3718 13.9199 18.8385 10.9477 22.1523 10.1782C22.7005 10.0505 23.2704 9.98193 23.856 9.98193C24.4415 9.98193 25.0114 10.0505 25.5596 10.1782C28.8734 10.9508 31.3401 13.923 31.3401 17.4684C31.3401 18.0728 31.2685 18.6616 31.1314 19.2255C32.2744 18.889 33.4611 18.7146 34.6601 18.7146C35.7222 16.8796 36.3264 14.7517 36.3264 12.4774C36.3264 10.2031 35.7191 8.07215 34.657 6.23715H34.6601Z" fill="url(#paint16_linear_127_1798)"/>
<path d="M22.5354 34.1236C22.8157 35.2795 23.258 36.3979 23.856 37.4354C22.797 39.2704 21.2585 40.8624 19.2901 41.9995C17.3218 43.1366 15.1728 43.6756 13.0518 43.6725C8.74444 43.6694 4.55856 41.4325 2.25072 37.4322C-0.0571167 33.432 0.098608 28.6871 2.25072 24.9548C3.30965 23.1167 4.84821 21.5247 6.81969 20.3876C8.78805 19.2504 10.9339 18.7114 13.0549 18.7146C13.6529 19.752 14.4004 20.696 15.26 21.5154C14.7056 21.6805 14.1605 21.911 13.6373 22.2132C10.5633 23.989 9.22719 27.6123 10.2145 30.868C10.3764 31.4069 10.6038 31.9335 10.8966 32.4413C11.1893 32.9491 11.5319 33.4102 11.9181 33.8183C14.2415 36.3013 18.0506 36.9556 21.1214 35.1798C21.6447 34.8776 22.1181 34.5193 22.5385 34.1205L22.5354 34.1236Z" fill="url(#paint17_linear_127_1798)"/>
<path d="M34.6633 31.1951C30.3559 31.1951 26.1669 28.9551 23.856 24.9548C28.4748 24.9548 32.508 27.4659 34.6633 31.1951Z" fill="#231F20"/>
<path d="M22.5354 34.1236C22.8157 35.2795 23.258 36.3979 23.856 37.4354C22.797 39.2704 21.2585 40.8624 19.2901 41.9995C17.3218 43.1366 15.1728 43.6756 13.0518 43.6725C11.9897 41.8375 11.3824 39.7065 11.3824 37.4322C11.3824 36.1767 11.5693 34.9617 11.9119 33.8183C14.2353 36.3013 18.0443 36.9556 21.1152 35.1798C21.6384 34.8776 22.1119 34.5193 22.5323 34.1205L22.5354 34.1236Z" fill="url(#paint18_linear_127_1798)"/>
<path d="M36.3295 37.4322C36.3295 39.7065 35.7222 41.8375 34.6601 43.6725C32.5392 43.6725 30.3902 43.1366 28.4218 41.9995C26.4535 40.8624 24.9149 39.2735 23.856 37.4354C24.4539 36.3979 24.8993 35.2795 25.1765 34.1236C25.597 34.5224 26.0704 34.8776 26.5936 35.1829C29.6676 36.9556 33.4735 36.3044 35.7969 33.8214C36.1426 34.9648 36.3264 36.1767 36.3264 37.4354L36.3295 37.4322Z" fill="#231F20"/>
<path d="M23.856 24.9548C28.4748 24.9548 32.508 27.4659 34.6633 31.1951C30.3559 31.1951 26.1669 28.9551 23.856 24.9548Z" fill="#231F20"/>
<path d="M45.4612 37.4322C43.1534 41.4325 38.9675 43.6694 34.6601 43.6725C32.5392 43.6725 30.3902 43.1366 28.4218 41.9995C26.4535 40.8624 24.9149 39.2735 23.856 37.4354C24.4539 36.3979 24.8993 35.2795 25.1765 34.1236C25.597 34.5224 26.0704 34.8776 26.5936 35.1829C29.6676 36.9556 33.4735 36.3044 35.7969 33.8214C36.18 33.4102 36.5226 32.9522 36.8185 32.4444C37.1113 31.9366 37.3386 31.4101 37.5006 30.8711C38.491 27.6154 37.1517 23.9921 34.0777 22.2163C33.5545 21.9141 33.0095 21.6805 32.452 21.5185C33.3147 20.6991 34.059 19.7551 34.657 18.7177C36.7749 18.7177 38.9239 19.2566 40.8922 20.3907C42.8606 21.5278 44.4023 23.1198 45.4612 24.9579C47.6102 28.6903 47.769 33.4382 45.4612 37.4354V37.4322Z" fill="url(#paint19_linear_127_1798)"/>
<path d="M23.6535 24.9548C20.402 24.9019 17.4495 23.6058 15.2568 21.5185C14.3941 20.696 13.6498 19.752 13.0518 18.7177C14.2509 18.7177 15.4406 18.8921 16.5805 19.2286C19.4645 20.0791 22.0464 21.9671 23.7189 24.7274C22.3081 22.4718 19.8756 21.2163 17.3747 21.2132C18.6361 23.3971 20.9688 24.8832 23.6535 24.9548Z" fill="url(#paint20_linear_127_1798)"/>
<path d="M23.856 24.9548C21.5481 28.9551 17.3591 31.192 13.0518 31.1951C15.2008 27.4752 19.2185 24.9673 23.8186 24.9548H23.8591H23.856Z" fill="url(#paint21_linear_127_1798)"/>
<path d="M25.1765 34.1236C24.8962 35.2795 24.4539 36.3979 23.856 37.4354C23.258 36.3979 22.8126 35.2826 22.5354 34.1236C21.8284 31.1951 22.171 28.0049 23.7345 25.1729C23.7532 25.1355 23.7719 25.1013 23.7937 25.0639C23.8155 25.0265 23.8342 24.9922 23.856 24.9548C22.47 27.3537 22.5635 30.2044 23.856 32.4413C25.0986 30.2885 25.2326 27.5687 24.0086 25.2321C25.544 28.0516 25.8804 31.2138 25.1765 34.1236Z" fill="url(#paint22_linear_127_1798)"/>
<path d="M25.3727 20.696C25.3634 20.7614 25.3509 20.8268 25.3385 20.8923C25.2886 21.1664 25.2326 21.4437 25.1641 21.7179C25.136 21.8331 25.1049 21.9484 25.0737 22.0637C25.0519 22.1385 25.0301 22.2163 25.0083 22.2911C24.9896 22.3565 24.9678 22.422 24.9492 22.4843C24.89 22.6681 24.8277 22.8488 24.7623 23.0295C24.7467 23.0731 24.7311 23.1136 24.7156 23.1541C24.7 23.1946 24.6844 23.2351 24.6688 23.2725C24.647 23.3317 24.6221 23.3877 24.5972 23.4469C24.5131 23.6526 24.4228 23.8582 24.3263 24.0607C24.3045 24.1105 24.2795 24.1573 24.2546 24.2071C24.2017 24.3162 24.1456 24.4252 24.0896 24.5311C24.0615 24.5841 24.0335 24.6339 24.0055 24.6869C23.9681 24.7586 23.9276 24.8271 23.8902 24.8956C23.8809 24.9143 23.8684 24.933 23.8591 24.9517C23.8497 24.933 23.8373 24.9143 23.8279 24.8956C23.8155 24.8738 23.803 24.852 23.7906 24.8302C23.7625 24.7804 23.7376 24.7336 23.7096 24.6869C23.6784 24.6339 23.6504 24.5779 23.6224 24.5218C23.6068 24.4906 23.5912 24.4626 23.5757 24.4314C23.5663 24.4127 23.5539 24.3909 23.5445 24.3691C23.4916 24.2663 23.4417 24.1635 23.3919 24.0607C23.3701 24.0171 23.3514 23.9735 23.3327 23.9298C23.3172 23.8956 23.3016 23.8613 23.286 23.827C23.258 23.7647 23.23 23.7024 23.2019 23.637C23.1739 23.5716 23.1459 23.5093 23.1209 23.4438C23.1116 23.422 23.1054 23.4002 23.096 23.3815C23.096 23.3815 23.096 23.3815 23.096 23.3784C23.0711 23.313 23.0431 23.2507 23.0182 23.1852C23.0057 23.1541 22.9933 23.1198 22.9808 23.0887C22.9683 23.0575 22.9559 23.0232 22.9434 22.9921C22.9278 22.9516 22.9123 22.9111 22.8998 22.8706C22.8842 22.8332 22.8718 22.7927 22.8593 22.7522C22.85 22.7273 22.8438 22.7024 22.8344 22.6805C22.8251 22.6525 22.8157 22.6245 22.8064 22.5964C22.7908 22.5528 22.7784 22.5061 22.7628 22.4625C22.7472 22.4188 22.7348 22.3721 22.7223 22.3285C22.7067 22.2849 22.6943 22.2381 22.6818 22.1945C22.6693 22.1509 22.6569 22.1073 22.6444 22.0637C22.6133 21.9484 22.5821 21.8331 22.5541 21.7179C22.5074 21.5278 22.4638 21.3347 22.4264 21.1446C22.4171 21.0948 22.4077 21.0449 22.3984 20.9951C22.3828 20.9234 22.3704 20.8487 22.361 20.777C22.3548 20.7365 22.3486 20.696 22.3423 20.6586C22.333 20.6119 22.3267 20.5651 22.3205 20.5184C22.3112 20.453 22.3018 20.3876 22.2925 20.3221C22.2769 20.21 22.2645 20.0978 22.2551 19.9857C22.2489 19.9389 22.2458 19.8953 22.2427 19.8486C22.2364 19.78 22.2302 19.7115 22.2271 19.6461C22.2209 19.5775 22.2177 19.509 22.2146 19.4436C22.2084 19.3501 22.2053 19.2567 22.2022 19.1632C22.2022 19.1071 22.1991 19.0541 22.1991 18.9981C22.1959 18.8485 22.1959 18.6959 22.1991 18.5463C22.1991 18.4871 22.1991 18.4279 22.2022 18.3656C22.2022 18.3064 22.2053 18.2472 22.2084 18.1849C22.2084 18.132 22.2146 18.079 22.2177 18.0292C22.224 17.9014 22.2333 17.7768 22.2458 17.6491C22.252 17.5899 22.2551 17.5307 22.2613 17.4715C22.2676 17.4123 22.2738 17.3531 22.28 17.2939C22.2925 17.188 22.3049 17.0821 22.3205 16.9761C22.3299 16.9232 22.3361 16.8702 22.3423 16.8172C22.3517 16.7643 22.3579 16.7113 22.3672 16.6584C22.3766 16.5992 22.3859 16.5431 22.3984 16.487C22.4171 16.3904 22.4358 16.2938 22.4544 16.2004C22.4669 16.1412 22.4794 16.082 22.4918 16.0259C22.5012 15.9761 22.5136 15.9293 22.523 15.8795C22.5821 15.6209 22.6507 15.3654 22.7285 15.11C22.741 15.0726 22.7503 15.0352 22.7628 14.9978C22.7815 14.9324 22.8033 14.8701 22.8251 14.8047C22.8406 14.7548 22.8593 14.705 22.8749 14.652C22.8905 14.6022 22.9092 14.5523 22.9278 14.5025C22.9652 14.3965 23.0057 14.2875 23.0462 14.1816C23.0618 14.138 23.0805 14.0975 23.096 14.057C23.1147 14.0071 23.1365 13.9573 23.1552 13.9105C23.1957 13.8108 23.2393 13.7143 23.2829 13.6177C23.3047 13.5678 23.3265 13.5211 23.3483 13.4712C23.3701 13.4214 23.3919 13.3747 23.4168 13.3279C23.4667 13.222 23.5196 13.1161 23.5725 13.0133C23.6037 12.9541 23.6317 12.8949 23.6629 12.8388C23.7283 12.7173 23.7937 12.5989 23.8622 12.4805C25.2855 14.948 25.8337 17.8578 25.379 20.7022L25.3727 20.696Z" fill="url(#paint23_linear_127_1798)"/>
<path d="M34.6633 31.1951C30.359 31.1951 26.1763 28.9613 23.8653 24.9704C23.8653 24.9673 23.8591 24.9611 23.856 24.9548H23.8965C28.4966 24.9704 32.5143 27.4752 34.6633 31.1951Z" fill="url(#paint24_linear_127_1798)"/>
<path d="M34.6633 18.7146C34.0653 19.752 33.3178 20.696 32.4582 21.5154C30.2687 23.5996 27.3286 24.8956 24.0833 24.9517C26.7618 24.8738 29.0852 23.3878 30.3435 21.21C27.7584 21.21 25.2481 22.5528 23.8622 24.9548C23.8747 24.9361 23.884 24.9174 23.8933 24.8987C23.9027 24.8801 23.9151 24.8614 23.9276 24.8427C25.597 22.0169 28.2131 20.0854 31.1377 19.2255C32.2807 18.889 33.4673 18.7146 34.6664 18.7146L34.6633 18.7146Z" fill="url(#paint25_linear_127_1798)"/>
<path d="M45.4643 24.9548C44.4054 26.7929 42.8668 28.3849 40.8954 29.5221C39.8084 30.1514 38.6654 30.5969 37.5006 30.868C38.491 27.6123 37.1517 23.989 34.0777 22.2132C33.5545 21.911 33.0095 21.6774 32.452 21.5154C33.3147 20.696 34.059 19.752 34.657 18.7146C36.7749 18.7146 38.9239 19.2535 40.8923 20.3876C42.8606 21.5247 44.4023 23.1167 45.4612 24.9548H45.4643Z" fill="url(#paint26_linear_127_1798)"/>
<path d="M23.856 8.73263C25.2338 8.73263 26.3507 7.61537 26.3507 6.23715C26.3507 4.85893 25.2338 3.74167 23.856 3.74167C22.4782 3.74167 21.3613 4.85893 21.3613 6.23715C21.3613 7.61537 22.4782 8.73263 23.856 8.73263Z" fill="white"/>
<path d="M8.89631 36.4745C10.0895 35.7854 10.4983 34.2592 9.80943 33.0656C9.12054 31.872 7.5948 31.4631 6.4016 32.1522C5.2084 32.8413 4.79957 34.3675 5.48847 35.5611C6.17736 36.7547 7.7031 37.1636 8.89631 36.4745Z" fill="white"/>
<path d="M42.2209 35.5641C42.9098 34.3706 42.5009 32.8444 41.3077 32.1553C40.1145 31.4661 38.5888 31.8751 37.8999 33.0687C37.211 34.2622 37.6198 35.7884 38.813 36.4776C40.0062 37.1667 41.532 36.7577 42.2209 35.5641Z" fill="white"/>
<path d="M16.5805 19.2255C15.4375 18.889 14.2509 18.7146 13.0518 18.7146C11.9897 16.8796 11.3824 14.7517 11.3824 12.4774C11.3824 10.2031 11.9897 8.07215 13.0518 6.23715C15.1728 6.23715 17.3218 6.77301 19.2901 7.91015C20.3771 8.53947 21.3363 9.30587 22.1523 10.1782C18.8385 10.9508 16.3718 13.923 16.3718 17.4684C16.3718 18.0728 16.4435 18.6616 16.5805 19.2255Z" fill="url(#paint27_linear_127_1798)"/>
<path d="M58.7663 32.731C58.8099 32.5784 58.8535 32.3883 58.8909 32.1609C58.9314 31.9335 58.9657 31.6531 58.9937 31.3166C59.0217 30.9801 59.0435 30.5813 59.0591 30.1171C59.0747 29.6529 59.0809 29.1108 59.0809 28.4909V21.3596C59.0809 20.7396 59.0747 20.1975 59.0591 19.7333C59.0435 19.2691 59.0217 18.8672 58.9937 18.5276C58.9657 18.188 58.9283 17.9045 58.8909 17.6802C58.8504 17.4528 58.8099 17.2628 58.7663 17.1101V17.0665H61.395V17.1101C61.3514 17.2628 61.3078 17.4528 61.2704 17.6802C61.2299 17.9077 61.1987 18.188 61.1707 18.5276C61.1458 18.8672 61.124 19.2691 61.1053 19.7333C61.0866 20.1975 61.0773 20.7396 61.0773 21.3596V23.8021L67.4713 18.5775C68.1877 17.9918 68.5458 17.4902 68.5458 17.0665H71.623V17.1101C71.1932 17.2129 70.7571 17.4092 70.3149 17.6958C69.8726 17.9855 69.4054 18.3376 68.9071 18.7519L63.2574 23.4843L70.0564 30.9552C70.3398 31.2481 70.5827 31.4911 70.7852 31.6842C70.9845 31.8774 71.162 32.0394 71.3177 32.1671C71.4704 32.2948 71.6105 32.4008 71.7382 32.4849C71.8659 32.569 71.9998 32.65 72.1368 32.731V32.7746H68.9289C68.9009 32.7092 68.8511 32.6251 68.7825 32.5223C68.714 32.4195 68.633 32.3135 68.5427 32.2045C68.4524 32.0955 68.3527 31.9833 68.2468 31.8649C68.141 31.7496 68.0413 31.6375 67.9447 31.5378L61.0804 24.0015V28.4909C61.0804 29.1108 61.0897 29.6529 61.1084 30.1171C61.1271 30.5813 61.1489 30.9801 61.1738 31.3166C61.1988 31.6531 61.233 31.9335 61.2735 32.1609C61.314 32.3883 61.3545 32.5784 61.3981 32.731V32.7746H58.7694V32.731H58.7663Z" fill="#14183E"/>
<path d="M77.4813 29.0735C77.1076 29.0735 76.7556 29.0735 76.4193 29.0797C76.0829 29.0828 75.7777 29.0859 75.5005 29.0922C75.2233 29.0953 75.0084 29.0984 74.8558 29.0984L74.4509 29.952C74.2765 30.301 74.127 30.6063 74.0024 30.868C73.8779 31.1265 73.7751 31.354 73.6972 31.5534C73.6162 31.7496 73.5571 31.921 73.5228 32.0612C73.4854 32.2045 73.4667 32.3353 73.4667 32.46C73.4667 32.541 73.4699 32.6002 73.4792 32.6407C73.4854 32.6812 73.4979 32.7123 73.5135 32.7341V32.7777H71.5856V32.7341C71.6354 32.6843 71.7164 32.5721 71.8254 32.4008C71.9344 32.2294 72.0621 32.0207 72.2023 31.7715C72.3455 31.5222 72.4981 31.2418 72.6632 30.9272C72.8283 30.6125 72.9902 30.2885 73.1491 29.952L77.6152 20.7303H78.4375L82.8165 29.952C82.9846 30.301 83.1528 30.6374 83.3241 30.9583C83.4954 31.2792 83.6543 31.5658 83.8006 31.8182C83.947 32.0705 84.0747 32.2793 84.1837 32.4413C84.2927 32.6033 84.3675 32.703 84.4017 32.731V32.7746H81.5987C81.6143 32.7154 81.6205 32.6625 81.6205 32.6157V32.4568C81.6205 32.2948 81.5862 32.1017 81.5177 31.8774C81.4492 31.6499 81.3651 31.4194 81.2654 31.1826C81.1658 30.9459 81.0661 30.7184 80.9602 30.4972C80.8543 30.2791 80.7671 30.0953 80.7017 29.9489L80.275 29.0735H77.4813ZM75.2794 28.2198H75.9459C76.2511 28.2198 76.5781 28.2198 76.9269 28.2136C77.2727 28.2105 77.6215 28.2074 77.9734 28.2074C78.3253 28.2074 78.6617 28.2074 78.9919 28.2011C79.3189 28.198 79.6148 28.1949 79.8795 28.1949L77.6121 23.3535L75.2794 28.2167V28.2198Z" fill="#14183E"/>
<path d="M89.6216 27.7712C89.4752 27.793 89.332 27.8055 89.1887 27.8086C89.0454 27.8117 88.9022 27.8148 88.7558 27.8148C88.6374 27.8148 88.5097 27.8117 88.3727 27.8024C88.2326 27.7961 88.0924 27.7837 87.946 27.7681V28.3039C87.946 28.9551 87.9523 29.5221 87.9678 30.0081C87.9834 30.4941 88.0021 30.9116 88.027 31.2636C88.0519 31.6126 88.0831 31.9085 88.1204 32.1453C88.1578 32.3821 88.2014 32.5784 88.2512 32.731V32.7746H85.7223V32.731C85.7721 32.5784 85.8188 32.3821 85.8593 32.1391C85.8998 31.8992 85.9309 31.6001 85.959 31.2449C85.9839 30.8898 86.0057 30.4692 86.0182 29.9801C86.0337 29.4909 86.04 28.9177 86.04 28.2603V25.5C86.04 24.8427 86.0337 24.2725 86.0182 23.7865C86.0026 23.3005 85.9839 22.8799 85.959 22.5279C85.9341 22.1727 85.8998 21.8768 85.8593 21.6337C85.8188 21.3939 85.7721 21.1945 85.7223 21.0418V20.9982C85.8375 21.0044 85.9621 21.0138 86.096 21.02C86.205 21.0262 86.3265 21.0325 86.4635 21.0356C86.5974 21.0387 86.7345 21.0418 86.8746 21.0418C87.1082 21.0418 87.4539 21.02 87.9149 20.9764C88.3758 20.9328 88.9146 20.911 89.5344 20.911C90.1542 20.911 90.7335 20.9888 91.2474 21.1415C91.7613 21.2942 92.2035 21.5154 92.571 21.7989C92.9386 22.0824 93.2251 22.4313 93.4244 22.8394C93.6237 23.2476 93.7265 23.7055 93.7265 24.2071C93.7265 24.6028 93.6705 24.9611 93.5615 25.2851C93.4524 25.6091 93.2998 25.9019 93.1005 26.1605C92.9043 26.4191 92.6707 26.6465 92.3997 26.8459C92.1288 27.0422 91.8298 27.2135 91.5028 27.36L93.7919 30.5907C93.9881 30.8524 94.1875 31.1047 94.3899 31.3477C94.5892 31.5876 94.7823 31.8026 94.9661 31.9926C95.1498 32.1827 95.3211 32.3416 95.48 32.4693C95.6419 32.597 95.7759 32.6843 95.8849 32.7279V32.7715H93.0164C93.0164 32.7061 92.9697 32.5908 92.8794 32.4257C92.7891 32.2606 92.6832 32.0892 92.5617 31.9116C92.4402 31.7341 92.3219 31.5596 92.2004 31.3914C92.0789 31.2231 91.9917 31.0985 91.9326 31.0175L89.6216 27.765V27.7712ZM87.946 27.0578C88.0924 27.0796 88.2388 27.0951 88.3883 27.1076C88.5378 27.1201 88.681 27.1232 88.8212 27.1232C89.7337 27.1232 90.4252 26.8771 90.8954 26.3879C91.3657 25.8988 91.6024 25.1636 91.6024 24.1853C91.6024 23.3815 91.4156 22.746 91.0387 22.2786C90.6619 21.8113 90.1106 21.5777 89.3787 21.5777C89.1451 21.5777 88.9396 21.587 88.7589 21.6057C88.5814 21.6244 88.4288 21.6431 88.3042 21.6649C88.164 21.6929 88.0457 21.7241 87.9429 21.7521V27.0546L87.946 27.0578Z" fill="#14183E"/>
<path d="M96.1465 32.731C96.2399 32.6282 96.3396 32.4413 96.4361 32.1733C96.5358 31.9023 96.6137 31.6126 96.6728 31.2979C96.76 30.787 96.8566 30.2044 96.9625 29.5501C97.0684 28.8959 97.1743 28.2229 97.2802 27.5282C97.3861 26.8334 97.4888 26.1418 97.5916 25.4533C97.6944 24.7648 97.7878 24.123 97.875 23.5311C97.9622 22.9391 98.037 22.422 98.093 21.9764C98.1522 21.5309 98.1927 21.2069 98.2145 21.0013H99.5164L104.739 30.3539L110.093 21.0013H111.155L112.47 30.1483C112.535 30.5658 112.6 30.9178 112.663 31.2107C112.725 31.5035 112.784 31.7496 112.843 31.949C112.902 32.1515 112.959 32.3135 113.018 32.435C113.077 32.5597 113.127 32.6594 113.17 32.731V32.7746H110.476V32.731C110.498 32.6718 110.526 32.5752 110.557 32.435C110.592 32.298 110.607 32.1328 110.607 31.9428C110.607 31.8182 110.598 31.6406 110.579 31.4069C110.56 31.1733 110.532 30.9427 110.498 30.7184L109.557 24.0046L104.574 32.7559L103.796 32.6469L98.9028 23.9392C98.7191 25.1667 98.5602 26.3007 98.4201 27.3444C98.3609 27.7899 98.3017 28.2354 98.2457 28.6809C98.1865 29.1264 98.1366 29.5439 98.093 29.9364C98.0494 30.3259 98.0121 30.6717 97.984 30.9708C97.956 31.2699 97.9404 31.4942 97.9404 31.6375C97.9404 31.8213 97.9435 31.9802 97.9529 32.1142C97.9591 32.2481 97.9716 32.3665 97.9871 32.4693C98.0027 32.5877 98.0152 32.6874 98.0308 32.7746H96.1465V32.731Z" fill="#14183E"/>
<path d="M119.866 29.0735C119.493 29.0735 119.141 29.0735 118.804 29.0797C118.468 29.0828 118.163 29.0859 117.886 29.0922C117.608 29.0953 117.394 29.0984 117.241 29.0984L116.836 29.952C116.662 30.301 116.512 30.6063 116.388 30.868C116.263 31.1265 116.16 31.354 116.082 31.5534C116.001 31.7496 115.942 31.921 115.908 32.0612C115.871 32.2045 115.852 32.3353 115.852 32.46C115.852 32.541 115.855 32.6002 115.864 32.6407C115.871 32.6812 115.883 32.7123 115.899 32.7341V32.7777H113.971V32.7341C114.021 32.6843 114.102 32.5721 114.211 32.4008C114.32 32.2294 114.447 32.0207 114.587 31.7715C114.731 31.5222 114.883 31.2418 115.048 30.9272C115.213 30.6125 115.375 30.2885 115.534 29.952L120 20.7303H120.823L125.202 29.952C125.37 30.301 125.538 30.6374 125.709 30.9583C125.881 31.2792 126.039 31.5658 126.186 31.8182C126.332 32.0705 126.46 32.2793 126.569 32.4413C126.678 32.6033 126.753 32.703 126.787 32.731V32.7746H123.984C123.999 32.7154 124.006 32.6625 124.006 32.6157V32.4568C124.006 32.2948 123.971 32.1017 123.903 31.8774C123.834 31.6499 123.75 31.4194 123.651 31.1826C123.551 30.9459 123.451 30.7184 123.345 30.4972C123.239 30.2791 123.152 30.0953 123.087 29.9489L122.66 29.0735H119.866ZM117.665 28.2198H118.331C118.636 28.2198 118.963 28.2198 119.312 28.2136C119.658 28.2105 120.007 28.2074 120.359 28.2074C120.711 28.2074 121.047 28.2074 121.377 28.2011C121.704 28.198 122 28.1949 122.265 28.1949L119.997 23.3535L117.665 28.2167V28.2198Z" fill="#14183E"/>
<path d="M132.468 29.0735C132.094 29.0735 131.742 29.0735 131.406 29.0797C131.069 29.0828 130.764 29.0859 130.487 29.0922C130.21 29.0953 129.995 29.0984 129.842 29.0984L129.437 29.952C129.263 30.301 129.113 30.6063 128.989 30.868C128.864 31.1265 128.761 31.354 128.684 31.5534C128.603 31.7496 128.543 31.921 128.509 32.0612C128.472 32.2045 128.453 32.3353 128.453 32.46C128.453 32.541 128.456 32.6002 128.466 32.6407C128.472 32.6812 128.484 32.7123 128.5 32.7341V32.7777H126.572V32.7341C126.622 32.6843 126.703 32.5721 126.812 32.4008C126.921 32.2294 127.048 32.0207 127.189 31.7715C127.332 31.5222 127.485 31.2418 127.65 30.9272C127.815 30.6125 127.977 30.2885 128.135 29.952L132.602 20.7303H133.424L137.803 29.952C137.971 30.301 138.139 30.6374 138.311 30.9583C138.482 31.2792 138.641 31.5658 138.787 31.8182C138.933 32.0705 139.061 32.2793 139.17 32.4413C139.279 32.6033 139.354 32.703 139.388 32.731V32.7746H136.585C136.601 32.7154 136.607 32.6625 136.607 32.6157V32.4568C136.607 32.2948 136.573 32.1017 136.504 31.8774C136.436 31.6499 136.351 31.4194 136.252 31.1826C136.152 30.9459 136.052 30.7184 135.947 30.4972C135.841 30.2791 135.753 30.0953 135.688 29.9489L135.261 29.0735H132.468ZM130.266 28.2198H130.932C131.237 28.2198 131.565 28.2198 131.913 28.2136C132.259 28.2105 132.608 28.2074 132.96 28.2074C133.312 28.2074 133.648 28.2074 133.978 28.2011C134.305 28.198 134.601 28.1949 134.866 28.1949L132.599 23.3535L130.266 28.2167V28.2198Z" fill="#14183E"/>
<path d="M151.233 32.9304H150.806L142.101 24.366V28.2666C142.101 28.9239 142.104 29.4972 142.113 29.9863C142.12 30.4754 142.132 30.896 142.151 31.2512C142.169 31.6063 142.194 31.9023 142.229 32.1453C142.263 32.3883 142.303 32.5846 142.353 32.7372V32.7809H140.712V32.7372C140.762 32.5846 140.805 32.3883 140.843 32.1453C140.88 31.9054 140.908 31.6063 140.93 31.2512C140.952 30.896 140.967 30.4754 140.973 29.9863C140.98 29.4972 140.986 28.9239 140.986 28.2666V25.5063C140.986 24.8489 140.983 24.2788 140.973 23.7928C140.967 23.3067 140.952 22.8862 140.93 22.5341C140.908 22.179 140.88 21.883 140.843 21.64C140.805 21.4001 140.762 21.2007 140.712 21.048V21.0044H141.391L150.105 29.6124V25.5063C150.105 24.8489 150.102 24.2788 150.093 23.7928C150.086 23.3067 150.074 22.8862 150.055 22.5341C150.037 22.179 150.012 21.883 149.984 21.64C149.956 21.4001 149.915 21.2007 149.862 21.048V21.0044H151.494V21.048C151.444 21.2007 151.401 21.397 151.37 21.64C151.338 21.883 151.31 22.179 151.289 22.5341C151.267 22.8893 151.251 23.3067 151.245 23.7928C151.239 24.2788 151.233 24.8489 151.233 25.5063V32.9335V32.9304Z" fill="#14183E"/>
<defs>
<linearGradient id="paint0_linear_127_1798" x1="152.701" y1="33.2057" x2="129.984" y2="-24.35" gradientUnits="userSpaceOnUse">
<stop stop-color="#E5D318"/>
<stop offset="0.5" stop-color="#F38A1E"/>
<stop offset="1" stop-color="#EB3825"/>
</linearGradient>
<linearGradient id="paint1_linear_127_1798" x1="153.003" y1="35.524" x2="120.827" y2="-40.2856" gradientUnits="userSpaceOnUse">
<stop stop-color="#E5D318"/>
<stop offset="0.5" stop-color="#F38A1E"/>
<stop offset="1" stop-color="#EB3825"/>
</linearGradient>
<linearGradient id="paint2_linear_127_1798" x1="153.381" y1="38.0991" x2="103.69" y2="-69.1549" gradientUnits="userSpaceOnUse">
<stop stop-color="#E5D318"/>
<stop offset="0.5" stop-color="#F38A1E"/>
<stop offset="1" stop-color="#EB3825"/>
</linearGradient>
<linearGradient id="paint3_linear_127_1798" x1="154.044" y1="41.1957" x2="65.714" y2="-130.517" gradientUnits="userSpaceOnUse">
<stop stop-color="#E5D318"/>
<stop offset="0.5" stop-color="#F38A1E"/>
<stop offset="1" stop-color="#EB3825"/>
</linearGradient>
<linearGradient id="paint4_linear_127_1798" x1="155.647" y1="45.1792" x2="-59.761" y2="-322.721" gradientUnits="userSpaceOnUse">
<stop stop-color="#E5D318"/>
<stop offset="0.5" stop-color="#F38A1E"/>
<stop offset="1" stop-color="#EB3825"/>
</linearGradient>
<linearGradient id="paint5_linear_127_1798" x1="75.7567" y1="-0.462153" x2="75.9072" y2="49.0142" gradientUnits="userSpaceOnUse">
<stop stop-color="#E5D318"/>
<stop offset="0.5" stop-color="#F38A1E"/>
<stop offset="1" stop-color="#EB3825"/>
</linearGradient>
<linearGradient id="paint6_linear_127_1798" x1="75.674" y1="-0.562022" x2="75.8571" y2="61.2774" gradientUnits="userSpaceOnUse">
<stop stop-color="#E5D318"/>
<stop offset="0.5" stop-color="#F38A1E"/>
<stop offset="1" stop-color="#EB3825"/>
</linearGradient>
<linearGradient id="paint7_linear_127_1798" x1="75.591" y1="-0.749563" x2="75.8147" y2="81.7251" gradientUnits="userSpaceOnUse">
<stop stop-color="#E5D318"/>
<stop offset="0.5" stop-color="#F38A1E"/>
<stop offset="1" stop-color="#EB3825"/>
</linearGradient>
<linearGradient id="paint8_linear_127_1798" x1="75.4985" y1="-1.15619" x2="75.7869" y2="122.621" gradientUnits="userSpaceOnUse">
<stop stop-color="#E5D318"/>
<stop offset="0.5" stop-color="#F38A1E"/>
<stop offset="1" stop-color="#EB3825"/>
</linearGradient>
<linearGradient id="paint9_linear_127_1798" x1="75.3494" y1="-2.31321" x2="75.8813" y2="245.332" gradientUnits="userSpaceOnUse">
<stop stop-color="#E5D318"/>
<stop offset="0.5" stop-color="#F38A1E"/>
<stop offset="1" stop-color="#EB3825"/>
</linearGradient>
<linearGradient id="paint10_linear_127_1798" x1="2.91087" y1="32.6232" x2="26.0774" y2="-24.9019" gradientUnits="userSpaceOnUse">
<stop stop-color="#E5D318"/>
<stop offset="0.5" stop-color="#F38A1E"/>
<stop offset="1" stop-color="#EB3825"/>
</linearGradient>
<linearGradient id="paint11_linear_127_1798" x1="3.65558" y1="34.7144" x2="36.4831" y2="-41.0131" gradientUnits="userSpaceOnUse">
<stop stop-color="#E5D318"/>
<stop offset="0.5" stop-color="#F38A1E"/>
<stop offset="1" stop-color="#EB3825"/>
</linearGradient>
<linearGradient id="paint12_linear_127_1798" x1="4.8966" y1="36.97" x2="55.5334" y2="-70.0354" gradientUnits="userSpaceOnUse">
<stop stop-color="#E5D318"/>
<stop offset="0.5" stop-color="#F38A1E"/>
<stop offset="1" stop-color="#EB3825"/>
</linearGradient>
<linearGradient id="paint13_linear_127_1798" x1="7.4729" y1="39.3692" x2="97.4855" y2="-131.675" gradientUnits="userSpaceOnUse">
<stop stop-color="#E5D318"/>
<stop offset="0.5" stop-color="#F38A1E"/>
<stop offset="1" stop-color="#EB3825"/>
</linearGradient>
<linearGradient id="paint14_linear_127_1798" x1="15.4089" y1="41.4604" x2="234.278" y2="-324.663" gradientUnits="userSpaceOnUse">
<stop stop-color="#E5D318"/>
<stop offset="0.5" stop-color="#F38A1E"/>
<stop offset="1" stop-color="#EB3825"/>
</linearGradient>
<linearGradient id="paint15_linear_127_1798" x1="873.169" y1="-17.628" x2="856.078" y2="99.4174" gradientUnits="userSpaceOnUse">
<stop stop-color="#82549E"/>
<stop offset="0.49" stop-color="#60539F"/>
<stop offset="1" stop-color="#2F4598"/>
</linearGradient>
<linearGradient id="paint16_linear_127_1798" x1="163.277" y1="7.3894" x2="126.668" y2="58.9786" gradientUnits="userSpaceOnUse">
<stop stop-color="#82549E"/>
<stop offset="0.49" stop-color="#60539F"/>
<stop offset="1" stop-color="#2F4598"/>
</linearGradient>
<linearGradient id="paint17_linear_127_1798" x1="23.2291" y1="3.00839" x2="30.0871" y2="44.5864" gradientUnits="userSpaceOnUse">
<stop stop-color="#82549E"/>
<stop offset="0.49" stop-color="#60539F"/>
<stop offset="1" stop-color="#2F4598"/>
</linearGradient>
<linearGradient id="paint18_linear_127_1798" x1="0.498047" y1="25.0079" x2="151.494" y2="25.0079" gradientUnits="userSpaceOnUse">
<stop stop-color="#4A71B3"/>
<stop offset="0.53" stop-color="#3C58A3"/>
<stop offset="1" stop-color="#28266F"/>
</linearGradient>
<linearGradient id="paint19_linear_127_1798" x1="25.2472" y1="59.5256" x2="33.6368" y2="13.956" gradientUnits="userSpaceOnUse">
<stop stop-color="#82549E"/>
<stop offset="0.49" stop-color="#60539F"/>
<stop offset="1" stop-color="#2F4598"/>
</linearGradient>
<linearGradient id="paint20_linear_127_1798" x1="150.877" y1="49.6753" x2="53.083" y2="-52.0483" gradientUnits="userSpaceOnUse">
<stop stop-color="#4A71B3"/>
<stop offset="0.53" stop-color="#3C58A3"/>
<stop offset="1" stop-color="#28266F"/>
</linearGradient>
<linearGradient id="paint21_linear_127_1798" x1="152.234" y1="-0.349478" x2="53.4214" y2="99.4903" gradientUnits="userSpaceOnUse">
<stop stop-color="#4A71B3"/>
<stop offset="0.53" stop-color="#3C58A3"/>
<stop offset="1" stop-color="#28266F"/>
</linearGradient>
<linearGradient id="paint22_linear_127_1798" x1="76.9716" y1="-0.786321" x2="76.9561" y2="49.6386" gradientUnits="userSpaceOnUse">
<stop stop-color="#4A71B3"/>
<stop offset="0.53" stop-color="#3C58A3"/>
<stop offset="1" stop-color="#28266F"/>
</linearGradient>
<linearGradient id="paint23_linear_127_1798" x1="77.5184" y1="49.8501" x2="77.4874" y2="0.0974855" gradientUnits="userSpaceOnUse">
<stop stop-color="#4A71B3"/>
<stop offset="0.53" stop-color="#3C58A3"/>
<stop offset="1" stop-color="#28266F"/>
</linearGradient>
<linearGradient id="paint24_linear_127_1798" x1="0.62859" y1="-0.124812" x2="99.6958" y2="100.267" gradientUnits="userSpaceOnUse">
<stop stop-color="#4A71B3"/>
<stop offset="0.53" stop-color="#3C58A3"/>
<stop offset="1" stop-color="#28266F"/>
</linearGradient>
<linearGradient id="paint25_linear_127_1798" x1="3.54495" y1="49.5007" x2="98.9455" y2="-48.7293" gradientUnits="userSpaceOnUse">
<stop stop-color="#4A71B3"/>
<stop offset="0.53" stop-color="#3C58A3"/>
<stop offset="1" stop-color="#28266F"/>
</linearGradient>
<linearGradient id="paint26_linear_127_1798" x1="93.8496" y1="36.6188" x2="89.0632" y2="-1.82892" gradientUnits="userSpaceOnUse">
<stop stop-color="#4A71B3"/>
<stop offset="0.53" stop-color="#3C58A3"/>
<stop offset="1" stop-color="#28266F"/>
</linearGradient>
<linearGradient id="paint27_linear_127_1798" x1="97.436" y1="9.87047" x2="86.2229" y2="55.9503" gradientUnits="userSpaceOnUse">
<stop stop-color="#4A71B3"/>
<stop offset="0.53" stop-color="#3C58A3"/>
<stop offset="1" stop-color="#28266F"/>
</linearGradient>
</defs>
</svg>
