<svg xmlns="http://www.w3.org/2000/svg" width="271" height="148" fill="none" viewBox="0 0 271 148">
  <g clip-path="url(#a)">
    <path fill="#FFD7CF" d="M208.63 18.385h33.905s.771-5.39-3.583-6.8c-4.354-1.408-5.344-2.404-6.999-4.394-1.654-1.989-7.385-3.429-10.777 1.578-2.523 3.73-5.281 3.676-7.171 4.147-4.326 1.079-5.457 2.903-5.375 5.473v-.004ZM44.19 17.176H24.479s-.446-3.134 2.085-3.954c2.532-.82 3.107-1.397 4.069-2.554.962-1.158 4.295-1.993 6.267.918 1.467 2.17 3.07 2.138 4.17 2.412 2.515.628 3.173 1.688 3.126 3.182l-.004-.004Z"/>
    <path fill="#D98B7B" d="M161.299 33.901H86.045L60.958 2.868h70.419c3.059 0 5.958 1.385 7.886 3.77l22.04 27.263h-.004Z"/>
    <path fill="#FFAF9E" d="M86.041 146.866h-50.17V42.953a25.574 25.574 0 0 1 5.683-16.082L60.958 2.868 86.04 33.902v112.964Z"/>
    <path fill="#E69E8F" d="M161.296 33.902H86.041v112.964h75.255V33.902Z"/>
    <path fill="#FFAF9E" d="m111.128 17.655-7.483-9.212V0h7.483v17.655Z"/>
    <path fill="#E69E8F" d="M118.608 0h-7.48v17.655h7.48V0Z"/>
    <path fill="#D9926F" d="M130.931 59.666h66.937l22.314-27.604h-62.634a9.013 9.013 0 0 0-7.014 3.354l-19.603 24.25Z"/>
    <path fill="#EDB193" d="M197.868 146.866h44.624v-79.15a22.75 22.75 0 0 0-5.054-14.304l-17.256-21.347-22.314 27.605v87.2-.004Z"/>
    <path fill="#FFBE9E" d="M130.935 146.87h66.937v-87.2h-66.937v87.2Z"/>
    <path fill="#EDB193" d="m175.559 45.217 6.654-8.196v-7.51h-6.654v15.706Z"/>
    <path fill="#FFBE9E" d="M168.9 45.216h6.655V29.511H168.9v15.705Z"/>
    <path fill="#527851" d="M19.326 95.957c1.12-.412 1.835-1.518 1.847-2.715.09-8.33.986-35.236 8.794-35.236 6.881 0 8.152 9.95 8.352 15.035a6.733 6.733 0 0 0 1.944 4.5c2.559 2.558 6.83 8.6 7.511 20.801.102 1.805.822 3.504 1.964 4.901 4.256 5.198 5.833 12.503 5.743 18.985-.032 2.248 1.017 4.37 2.77 5.771 5.52 4.406 5.652 13.28 5.019 18.871H9.87s-3.478-12.919 4.053-22.539a4.636 4.636 0 0 0 .778-4.265c-3.278-10.162-.829-22.108 4.624-24.113v.004Z"/>
    <path stroke="#593137" stroke-miterlimit="10" d="M31.262 62.82v84.046m-5.137-75.657 5.137 16.034m8.36-6.473-8.36 27.094m-10.269-7.368 10.269 30.151m14.376-23.54-14.376 33.984"/>
    <path fill="#283554" d="m176.005 49.242-10.418-5.563h-11.302l-10.417 5.563a5.36 5.36 0 0 0-2.782 3.982l-4.248 30.233h46.188l-4.248-30.233a5.351 5.351 0 0 0-2.781-3.982h.008Z"/>
    <path fill="#283554" d="M155.576 41.32h8.724l-4.362 33.16-4.362-33.16Z"/>
    <path fill="#374973" d="m155.576 41.32-3.309 4.277a3.385 3.385 0 0 0 .301 4.477l.951.933c.399.393.438 1.024.093 1.464l-1.31 1.663a3.378 3.378 0 0 0-.391 3.547l8.027 16.803-4.362-33.163Zm8.724 0 3.309 4.277a3.385 3.385 0 0 1-.301 4.477l-.95.933a1.101 1.101 0 0 0-.094 1.464l1.31 1.663a3.378 3.378 0 0 1 .391 3.547l-8.027 16.803 4.362-33.163Z"/>
    <path stroke="#374973" stroke-miterlimit="10" stroke-width=".52" d="m143.328 53.856 2.605 12.146c.286 1.33.431 2.688.431 4.05v10.957m30.184-27.153-2.605 12.146a19.26 19.26 0 0 0-.43 4.05v10.957m-13.575-5.779v6.3m13.348-19.459h-6.256v.989h6.256v-.989Z"/>
    <path stroke="#283554" stroke-miterlimit="10" d="M127.035 42.996c-12.085 0-16.024 9.969-16.024 9.969h32.051s-3.94-9.97-16.024-9.97h-.003Z"/>
    <path stroke="#283554" stroke-miterlimit="10" d="M124.586 39.018a2.452 2.452 0 0 1 2.973-2.401 2.436 2.436 0 0 1 1.866 1.87 2.456 2.456 0 0 1-1.913 2.936.618.618 0 0 0-.481.612v.996"/>
    <path fill="#FFFDFC" d="m141.814 58.96 5.911-7.792-10.343-6.27s-3.842 4.32-10.344 4.32c-6.501 0-10.343-4.32-10.343-4.32l-10.343 6.27 5.911 7.792c.254 9.993-5.911 31.76-5.911 31.76h41.381s-6.166-21.767-5.911-31.76h-.008Z"/>
    <path fill="#FFEBE0" d="M112.228 58.96s-.106-4.743-.74-7.411l-1.697 4.198 2.437 3.213Zm29.609 0s.106-4.743.74-7.411l1.698 4.198-2.438 3.213Z"/>
    <path fill="#CC5050" d="m125.779 51.27 1.252-2.052c-6.502 0-10.344-4.32-10.344-4.32-.516 3.182 1.041 5.595 2.805 7.251 1.89 1.773 4.933 1.334 6.287-.879Zm2.507 0-1.252-2.052c6.502 0 10.344-4.32 10.344-4.32.516 3.182-1.041 5.595-2.805 7.251-1.89 1.773-4.933 1.334-6.287-.879Z"/>
    <path stroke="#FFC0B3" stroke-miterlimit="10" stroke-width=".58" d="M127.034 51.211v37.766m2.078-32.261a.656.656 0 0 1-.654.655.656.656 0 0 1 0-1.31c.36 0 .654.294.654.655Zm0 7.642a.657.657 0 0 1-.654.656.656.656 0 0 1 0-1.31c.36 0 .654.294.654.654Zm0 7.647c0 .36-.294.655-.654.655a.656.656 0 0 1 0-1.31c.36 0 .654.294.654.655ZM116.918 57.37h5.79s.638 5.168-2.895 5.168c-3.532 0-2.895-5.167-2.895-5.167Z"/>
    <path fill="#593137" d="m67.353 136.301.955 10.565h16.555l-.129-1.451c-.12-1.358-1.122-2.555-2.456-2.935l-3.494-.997c-1.631-.463-2.852-1.922-3-3.582l-.145-1.604h-8.278l-.008.004Z"/>
    <path fill="#402327" d="m68.179 145.446.13 1.42h16.555l-.13-1.42H68.18Z"/>
    <path fill="#593137" d="m30.734 128.556-4.82 9.443 13.997 8.867.661-1.295c.618-1.212.411-2.762-.516-3.797l-2.426-2.715c-1.13-1.264-1.388-3.155-.63-4.638l.732-1.432-6.998-4.433Z"/>
    <path fill="#402327" d="m26.563 136.732-.649 1.267 13.997 8.867.65-1.267-13.998-8.867Z"/>
    <path fill="#B0532E" d="m68.652 65.594 8.133 72.205H66.133L53.591 65.061l15.061.533Z"/>
    <path fill="#8F4325" d="m55.915 78.55 5.95 34.497 13.262 10.008L72.54 100.1a18.762 18.762 0 0 0-7.398-12.9c-4.182-3.139-7.444-6.599-9.224-8.65h-.004Z"/>
    <path fill="#B0532E" d="m63.125 66.234-10.453 41.395-14.443 29.574-10.37-4.394 13.022-27.624 5.645-38.951h16.599Z"/>
    <path fill="#8F4325" d="M68.957 68.313 45.596 72.66l.931-6.426 22.126-.64.305 2.72Z"/>
    <path stroke="#FFAF9E" stroke-miterlimit="10" stroke-width=".5" d="m58.035 85.847 5.09-19.613m2.061.251-1.428 4.908a2.08 2.08 0 0 1-1.353 1.397l-1.076.349"/>
    <path fill="#283554" d="m54.73 26.475-2.441-5.756s-1.381.031-1.737-.973c-.356-1.004.09-2.005 1.236-2.122 0 0 0-1.683 1.47-2.213 1.472-.53 2.058.294 2.058.294s.501-1.322 2.007-1.71c1.495-.385 2.023.737 2.023.737s2.237-1.887 3.208.887c1.412.769 1.263 3.864-.885 3.66 0 0-.352 1.625-2.147 1.507L58.7 27.47l-3.974-.988.004-.008Z"/>
    <path fill="#593137" d="m56.983 30.057 8.368 1.302a14.78 14.78 0 0 1 4.577 1.507l17.251 9.008 16.427-2.437 1.983 3.979-15.41 9.44a7.382 7.382 0 0 1-7.545.097l-13.602-7.858.536 16.45s1.475 1.613 1.338 3.292c-.133 1.68-2.144 2.013-4.085 2.013H46.237a.915.915 0 0 1-.869-1.19l.098-.305a3.9 3.9 0 0 0 .063-2.119c-.877-3.46-3.576-14.485-3.744-19.483-.2-5.975 1.271-8.192 5.958-10.205 4.686-2.012 9.24-3.491 9.24-3.491Z"/>
    <path fill="#402327" d="M89.918 53.008C81.527 50.85 72.36 39.645 69.579 36.032c-.265-.345-.813-.145-.801.29l.254 8.777 13.602 7.858a7.374 7.374 0 0 0 7.284.051Zm-20.867-7.356L48.17 37.754l-3.974 12.418c4.361 4.653 5.7 8.411 6.055 10.746.333 2.177 1.264 4.213 2.633 5.936h13.942c1.94 0 3.951-.338 4.084-2.013.133-1.68-1.337-3.292-1.337-3.292l-.517-15.897h-.004Z"/>
    <path fill="#FFC0B3" d="M66.133 137.799h10.652l-.274-2.436H65.714l.419 2.436Zm-37.156-7.364-1.119 2.374 10.371 4.394 1.213-2.483-10.465-4.285Z"/>
    <path fill="#FF7070" d="M54.432 24.466v5.037a2.07 2.07 0 0 1-1.342 1.939l-1.744.647s1.803 2.33 6.724 1.616c2.66-.384 5.063-2.687 5.063-2.687l-3.216-.502-.176-4.853-5.305-1.201-.004.004Z"/>
    <path fill="#CC5050" d="M55.12 25.172s.314 4.178 4.742 3.978l-.117-3.205-4.624-.773Z"/>
    <path fill="#374973" d="m113.401 101.43-5.027-62.138H81.746l-5.027 62.138h15.433l2.906-49.038 2.91 49.038h15.433Z"/>
    <path fill="#283554" d="M95.058 41.513c5.618 0 10.539-.887 13.313-2.225H81.75c2.773 1.334 7.694 2.225 13.312 2.225h-.004Z"/>
    <path stroke="#283554" stroke-miterlimit="10" stroke-width=".58" d="M81.75 41.513c2.773 1.334 7.694 2.224 13.312 2.224 5.618 0 10.539-.886 13.312-2.224M95.058 52.761v-9.102m1.847.078v4.818a2.697 2.697 0 0 1-1.632 2.48l-.211.09"/>
    <path stroke="#283554" stroke-miterlimit="10" stroke-width=".58" d="M103.496 42.996s-.012 5.842 5.692 6.387m-22.451-6.387s.012 5.842-5.692 6.387m26.14-.471 4.389 51.89m-28.639-51.89-4.39 51.89"/>
    <path fill="#FF7070" d="m60.242 22.332-.266-3.241c-1.15.518-2.59.824-3.67.993a1.7 1.7 0 0 0-1.435 1.82l.074.942a1.05 1.05 0 0 0-.787.007 1.108 1.108 0 0 0-.692.997 1.098 1.098 0 0 0 1.224 1.118c.122-.016.227-.122.345-.102.489 2.542 4.686 3.821 5.88 1.052.872-2.025-.677-3.582-.677-3.582l.004-.004ZM75.6 43.027l2.226-1.055 1.177-2.119a1.82 1.82 0 0 1 1.01-.843l3.427-1.177.426 1.828a.903.903 0 0 1-.56 1.047l-1.435.538s-1.502 2.629-3.165 2.935L75.6 47.315v-4.288Z"/>
    <path stroke="#CC4343" stroke-miterlimit="10" stroke-width=".5" d="m80.607 39.441 2.958-1.079m-2.79 1.699 2.954-1.075m-2.793 1.691 2.953-1.075"/>
    <path fill="#593137" d="m75.6 43.027 3.31 6.152-15.425 11.386a6.834 6.834 0 0 1-8.74-.514L42.923 48.979l4.225-12.12 13.766 12.053 14.682-5.885h.004Z"/>
    <path stroke="#402327" stroke-miterlimit="10" stroke-width=".5" d="m60.918 48.912-3.063 1.185"/>
    <path fill="#527851" d="M241.35 64.802c5.512 0 7.593 9.906 7.824 20.005a7.744 7.744 0 0 0 1.643 4.578c4.166 5.36 5.684 11.566 5.062 17.039-.113.977.211 1.982.853 2.794 2.011 2.55 2.198 7.819 1.553 12.613-.243 1.785.109 3.633.97 5.309 2.852 5.539 3.341 13.484 1.866 19.726h-39.069s-5.856-14.23-.391-23.163a7.827 7.827 0 0 0 1.084-5.21c-1.452-10.107-.493-16.733 3.7-19.884 1.686-1.267 2.559-3.33 2.387-5.528-.493-6.316 3.153-9.687 5.187-11.06a2.86 2.86 0 0 0 1.248-2.428c-.043-4.194.411-14.791 6.091-14.791h-.008Z"/>
    <path stroke="#593137" stroke-miterlimit="10" d="M241.479 69.294v77.572m-3.665-74.261 3.665 15.89m5.907-8.608-5.907 21.959m-8.508-10.26 8.508 24.827m11.736-10.577-11.736 31.763"/>
    <path fill="#DB6739" d="M185.992 80.66H74.869v66.206h111.123V80.66Z"/>
    <path fill="#B0532E" d="M185.992 80.66H74.869v12.974h111.123V80.66Z"/>
    <path fill="#ED855C" d="M185.992 80.66h-18.226v66.206h18.226V80.66Z"/>
    <path fill="#DB6739" d="M185.992 80.66h-18.226v12.974h18.226V80.66Z"/>
    <path fill="#ED855C" d="M190.557 90.715h-18.222l-4.569-10.055h18.226l4.565 10.055Z"/>
    <path fill="#DB6739" d="M69.658 90.715h92.897l5.211-10.055H74.869l-5.211 10.055Z"/>
    <path fill="#B0532E" d="M148.613 110.858H97.84a1.57 1.57 0 0 0-1.57 1.573v14.399a1.57 1.57 0 0 0 1.57 1.573h50.773c.866 0 1.569-.704 1.569-1.573v-14.399c0-.869-.703-1.573-1.569-1.573Zm-23.327-9.138a2.065 2.065 0 0 1-2.062 2.068 2.065 2.065 0 0 1-2.061-2.068c0-1.141.923-2.067 2.061-2.067 1.139 0 2.062.926 2.062 2.067Z"/>
    <path stroke="#FFC0B3" stroke-miterlimit="10" stroke-width=".75" d="M102.362 110.454h39.194l-19.595-10.166-19.599 10.166Z"/>
    <path fill="#FFFDFC" d="M147.345 109.681H96.572a1.57 1.57 0 0 0-1.569 1.573v14.399a1.57 1.57 0 0 0 1.569 1.573h50.773a1.57 1.57 0 0 0 1.569-1.573v-14.399a1.57 1.57 0 0 0-1.569-1.573Z"/>
    <path fill="#593137" d="M105.229 121.349c0 .73-.254 1.357-.767 1.875a2.512 2.512 0 0 1-1.854.777h-2.62v-11.095h2.62c.728 0 1.35.259 1.858.777.509.517.763 1.141.763 1.867v5.799Zm-3.571 1h1.005a.878.878 0 0 0 .669-.286.94.94 0 0 0 .274-.675v-5.803a.949.949 0 0 0-.278-.682.896.896 0 0 0-.665-.283h-1.005v7.733-.004Zm8.892-9.577c.735 0 1.361.259 1.873.777.517.518.771 1.146.771 1.876v6.049c0 .738-.258 1.366-.775 1.88a2.547 2.547 0 0 1-1.869.773 2.54 2.54 0 0 1-1.87-.777 2.57 2.57 0 0 1-.767-1.876v-6.049c0-.738.258-1.366.774-1.88a2.536 2.536 0 0 1 1.863-.773Zm.907 2.617a.92.92 0 0 0-.278-.675.922.922 0 0 0-.676-.278.94.94 0 0 0-.681.278.915.915 0 0 0-.282.675v6.07c0 .266.094.49.282.674a.937.937 0 0 0 .681.279.924.924 0 0 0 .676-.279.924.924 0 0 0 .278-.674v-6.07Zm6.314-2.483 2.214 7.454v-7.454h1.667v11.095h-1.792l-2.292-7.105v7.105h-1.667v-11.095h1.87Zm8.657 8.549-.407 2.546h-1.737l1.878-11.083h2.293l1.854 11.083h-1.753l-.391-2.546h-1.741.004Zm.876-5.999-.618 4.371h1.236l-.618-4.371Zm5.864-.859h-1.772v-1.679h5.203v1.679h-1.764v9.404h-1.667v-9.404Zm6.017 9.404v-11.095h4.745v1.679h-3.078v3.025h2.249v1.679h-2.249v3.025h3.078v1.679h-4.745v.008Z"/>
    <path fill="#FFFDFC" d="M124.022 100.936a2.065 2.065 0 0 1-2.061 2.067 2.065 2.065 0 0 1-2.062-2.067c0-1.142.923-2.068 2.062-2.068 1.138 0 2.061.926 2.061 2.068Zm59.959 30.417h-32.978v3.951h32.978v-3.951Zm-1.111 3.951h-30.76v11.562h30.76v-11.562Z"/>
    <path fill="#FFC0B3" d="M182.87 135.304h-30.76v3.398l30.76-2.649v-.749Z"/>
    <path fill="#5A6B6B" d="M161.233 118.34v4.429c0 .796-.591 1.467-1.381 1.569l-2.007.251a4.014 4.014 0 0 0-3.509 3.99v2.778h9.236a1.555 1.555 0 0 1 2.848 0h4.096v-13.014h-9.279l-.004-.003Z"/>
    <path fill="#422529" d="M154.336 129.035v2.318h9.236a1.555 1.555 0 0 1 2.848 0h4.096v-2.318h-16.18Z"/>
    <path stroke="#FFC0B3" stroke-miterlimit="10" stroke-width=".5" d="M157.278 124.699s2.899.726 2.899 4.336m10.335-4.673s-4.886.486-4.886 4.677m-4.393-7.894h2.77m-2.77 1.275h2.77m-3.067 1.271h1.94c.622 0 1.127-.506 1.127-1.13v-2.393"/>
    <path fill="#422529" d="M170.536 117.598h-9.389a.47.47 0 0 0-.47.471v1.628c0 .26.211.471.47.471h9.389a.47.47 0 0 0 .469-.471v-1.628a.47.47 0 0 0-.469-.471Z"/>
    <path fill="#6B8080" d="M170.872 118.34v4.429c0 .796-.591 1.467-1.381 1.569l-2.007.251a4.014 4.014 0 0 0-3.509 3.99v2.778h9.236a1.555 1.555 0 0 1 2.848 0h4.096v-13.014h-9.279l-.004-.003Z"/>
    <path fill="#593137" d="M163.975 129.035v2.318h9.236a1.555 1.555 0 0 1 2.848 0h4.096v-2.318h-16.18Z"/>
    <path stroke="#FFC0B3" stroke-miterlimit="10" stroke-width=".5" d="M166.921 124.699s2.899.726 2.899 4.336m10.335-4.673s-4.886.486-4.886 4.677m-4.397-7.894h2.77m-2.77 1.275h2.77m-3.067 1.271h1.94c.622 0 1.127-.506 1.127-1.13v-2.393"/>
    <path fill="#593137" d="M180.179 117.598h-9.389a.47.47 0 0 0-.47.471v1.628c0 .26.211.471.47.471h9.389a.47.47 0 0 0 .469-.471v-1.628a.47.47 0 0 0-.469-.471Z"/>
    <path fill="#FF7070" d="m104.713 37.978-1.221 1.585a.387.387 0 0 0 .11.569l2.214 1.298c.262.153.602.09.79-.149l1.135-1.436a.895.895 0 0 0-.215-1.306l-1.284-.828a1.15 1.15 0 0 0-1.533.263l.004.004Z"/>
    <path stroke="#CC4343" stroke-miterlimit="10" stroke-width=".4" d="m105.468 38.35-1.483 1.986m2.226-1.534-1.483 1.985m2.316-1.495-1.482 1.985"/>
    <path stroke="#FFC0B3" stroke-miterlimit="10" stroke-width=".5" d="M185.209 10.28a.568.568 0 1 1-1.136 0 .568.568 0 0 1 1.136 0Z"/>
    <path fill="#FFFDFC" d="M45.58 27.954c-4.468.824-5.133 1.495-5.958 5.975-.822-4.48-1.49-5.147-5.958-5.975 4.467-.824 5.132-1.495 5.958-5.976.821 4.481 1.49 5.148 5.958 5.976Zm109.519 6.591c-3.357.62-3.857 1.122-4.471 4.484-.619-3.366-1.119-3.868-4.472-4.484 3.357-.62 3.857-1.122 4.472-4.484.618 3.366 1.118 3.868 4.471 4.484Zm76.189 2.821c-3.356.62-3.857 1.122-4.471 4.484-.618-3.366-1.119-3.868-4.471-4.484 3.356-.62 3.857-1.122 4.471-4.484.618 3.366 1.119 3.868 4.471 4.484Zm-50.663 12.507c-2.754.51-3.169.922-3.674 3.684-.508-2.762-.919-3.177-3.673-3.684 2.754-.51 3.169-.921 3.673-3.684.509 2.763.92 3.178 3.674 3.684ZM83.819 70.655c-3.356.62-3.857 1.122-4.471 4.485-.618-3.367-1.12-3.869-4.472-4.485 3.357-.62 3.858-1.122 4.472-4.484.618 3.366 1.118 3.868 4.471 4.484Zm107.055-33.218-5.403-7.18a13.68 13.68 0 0 0 2.16-7.4c0-7.583-6.13-13.731-13.692-13.731s-13.692 6.148-13.692 13.731c0 7.584 6.13 13.732 13.692 13.732 2.871 0 5.535-.887 7.738-2.401l9.201 3.248h-.004Z"/>
    <path fill="#CC4343" d="M178.872 17.396c-3.032-1.146-4.988 2.535-4.988 2.535s-1.956-3.68-4.988-2.535c-3.333 1.26-3.591 8.059 4.988 11.986 8.579-3.927 8.321-10.727 4.988-11.986Z"/>
    <path stroke="#593137" stroke-miterlimit="10" d="M.498 146.866h270"/>
    <path fill="#FF7070" d="m225.464 133.939 3.884 4.943c.528.671.653 1.573.333 2.366l-3.02 5.516c-.392.71.512 1.424 1.111.879l7.507-6.866a1.435 1.435 0 0 0-.149-2.256c-.716-.49-1.49-1.11-1.913-1.738-.927-1.369-3.306-6.607-3.306-6.607l-4.447 3.763Z"/>
    <path fill="#1D3B3B" d="m227.772 147.639 7.507-6.866a1.435 1.435 0 0 0-.149-2.256c-.548-.372-1.127-.824-1.561-1.298a8.902 8.902 0 0 1-3.783 2.589c.11.471.082.973-.105 1.436l-3.02 5.516c-.392.71.512 1.424 1.111.879Z"/>
    <path fill="#2D5C5C" d="m198.76 72.413-6.822 63.75h10.672l12.651-63.75H198.76Z"/>
    <path fill="#1D3B3B" d="m194.993 107.637-3.051 28.526h10.672l10.738-54.13s-5.129 8.725-12.33 14.528a16.475 16.475 0 0 0-6.033 11.08l.004-.004Z"/>
    <path fill="#FF7070" d="m196.304 135.171-.196 7.281a2.374 2.374 0 0 1-1.303 2.001l-5.895 2.154c-.759.279-.548 1.409.258 1.393l10.156-.208a1.429 1.429 0 0 0 1.369-1.793c-.215-.84-.391-1.82-.297-2.574.203-1.64 1.854-7.999 1.854-7.999l-5.946-.259v.004Z"/>
    <path fill="#1D3B3B" d="m189.168 148 10.156-.208a1.429 1.429 0 0 0 1.369-1.793c-.164-.643-.305-1.365-.321-2.005-1.897.279-3.501-.137-4.546-.549a2.352 2.352 0 0 1-1.024 1.008l-5.896 2.154c-.759.279-.548 1.409.258 1.393h.004Z"/>
    <path fill="#2D5C5C" d="M221.094 73.849v32.191l13.641 22.104-8.802 7.027-17.088-21.312a13.259 13.259 0 0 1-2.89-9.031l1.76-31.45 13.379.47Z"/>
    <path fill="#6B8080" d="m234.739 128.144-1.229-1.989-8.962 7.282 1.389 1.734 8.802-7.027Z"/>
    <path stroke="#1D3B3B" stroke-miterlimit="10" stroke-width=".5" d="m205.274 73.849 1.96 8.184m.485-8.655-.884 17.337m8.426-16.866s-1.717 5.54 3.709 7.45"/>
    <path stroke="#1D3B3B" stroke-miterlimit="10" stroke-width=".5" d="m219.49 73.794-2.3 33.074 14.263 20.958"/>
    <path fill="#374973" d="M201.108 37.962c.665-.73 4.42-2.424 5.887-1.934 1.045.35 1.725 2.409 1.725 2.409s4.859.663 8.599 2.428c3.74 1.766 9.498 10.444 9.498 10.444l-7.699 4.767.071 9.687 3.665 8.608-26.687.063 3.446-7.87-.598-5.729s-2.492-2.723-1.761-7.062l-7.921-1.84s1.87-4.892 5.054-8.459c1.279-1.435 5.5-2.88 6.764-3.42 0 0-.505-1.582-.043-2.092Z"/>
    <path stroke="#283554" stroke-miterlimit="10" stroke-width=".5" d="m215.155 47.943 3.74 7.615m-21.84-9.216.278 6.678"/>
    <path fill="#FF7070" d="m197.258 53.773-6.595-1.53s-3.232 10.876-4.186 14.7c-.955 3.826 1.835 11.127 13.238 3.716h-4.366l1.905-16.882.004-.004Z"/>
    <path fill="#D9926F" d="M216.251 55.088a.804.804 0 0 0 .465-.899c-.074-.38-.434-.636-.817-.636h-20.358c-.634 0-1.15.518-1.15 1.154v.765c0 .636.516 1.154 1.15 1.154h20.358c.383 0 .743-.26.817-.636a.802.802 0 0 0-.465-.898v-.004Z"/>
    <path stroke="#B0532E" stroke-miterlimit="10" stroke-width=".5" d="M216.251 55.088h-20.393"/>
    <path fill="#FFC0B3" d="M194.868 52.02a.805.805 0 0 0-.466.898c.075.38.435.636.818.636h20.358c.634 0 1.15-.518 1.15-1.154v-.765c0-.636-.516-1.153-1.15-1.153H195.22c-.383 0-.743.258-.818.635a.803.803 0 0 0 .466.899v.004Z"/>
    <path stroke="#D9926F" stroke-miterlimit="10" stroke-width=".5" d="M194.868 52.02h20.393"/>
    <path fill="#FFC0B3" d="M216.779 56.626h-23.495a.858.858 0 0 0-.857.859v6.975c0 .475.384.86.857.86h23.495a.858.858 0 0 0 .857-.86v-6.975a.858.858 0 0 0-.857-.86Z"/>
    <path fill="#593137" d="M209.62 28.581a2.64 2.64 0 0 0 2.637-2.644 2.641 2.641 0 0 0-2.637-2.644 2.641 2.641 0 0 0-2.637 2.644 2.64 2.64 0 0 0 2.637 2.644Z"/>
    <path fill="#422529" d="M210.156 28.523a3.779 3.779 0 0 0-3.118-3.116 2.642 2.642 0 0 0 3.122 3.115h-.004Z"/>
    <path fill="#593137" d="M198.287 30.225s-1.623-.867-1.322-3.229c.301-2.357 2.695-2.703 4.319-1.973 1.623.73 3.121-.373 5.034.235 1.913.609 3.122 2.621 2.477 4.967-.646 2.346-3.494 4.442-3.494 4.442l-7.014-4.442Zm21.207 27.903h-28.436V70.66h28.436V58.13Z"/>
    <path fill="#402327" d="M219.494 58.128h-28.436v4.26h28.436v-4.26Z"/>
    <path fill="#754148" d="M219.494 58.128h-4.339V70.66h4.339V58.13Z"/>
    <path fill="#593137" d="M213.117 61.573H189.02l2.038-3.445h24.097l-2.038 3.445Z"/>
    <path fill="#FF7070" d="M204.871 32.481c.023 0 .047.008.074.008a.756.756 0 0 0 0-1.514.76.76 0 0 0-.72.533c-2.73-.988-2.366-3.954-2.366-3.954-.755.266-1.671.792-2.351 1.212a2.201 2.201 0 0 0-1.041 1.765l-.074 1.601s-.963 1.044-.278 2.684c.634 1.518 2.993 1.157 2.993 1.157l.641 2.06a.54.54 0 0 0 .391.369c2.414.56 3.638-.452 4.143-1.075a.853.853 0 0 0 .129-.844l-1.545-4.002h.004Z"/>
    <path fill="#CC5050" d="M201.108 35.973c.786-.086 1.799-.761 2.382-1.538.153-.204.481-.11.497.141.086 1.354-.513 2.896-2.261 3.382l-.622-1.989.004.004Z"/>
    <path fill="#FF7070" d="m219.118 56.076 6.987-4.327 4.647 11.366c1.444 3.53-1.099 7.415-4.905 7.49l-14.541.286s-2.989 2.08-4.405 1.369c0 0-.747.251-1.224-.369 0 0-.818.075-1.221-.392-.763-.035-.935-.663-.935-.663l4.135-1.405c.427-.145.423-.753-.008-.894l-.852-.279a.438.438 0 0 1 .242-.84l3.529.91c.309.08.633.056.927-.07l10.507-4.531-2.879-7.655-.004.004Z"/>
    <path stroke="#CC4343" stroke-miterlimit="10" stroke-width=".5" d="m204.456 71.503 2.207-.848m-.99 1.24 2.046-.816m-.822 1.185 1.737-.777m13.363-7.752 3.611-1.652"/>
    <path fill="#CC4343" d="m227.967 56.312-1.862-4.56-6.987 4.328.106.283a1.437 1.437 0 0 0 1.729.882c1.58-.443 4.002-.933 7.014-.93v-.003Z"/>
    <path fill="#6B8080" d="m192.177 133.958-.239 2.205h10.672l.438-2.205h-10.871Z"/>
    <path fill="#FFFDFC" d="m66.677 23.58 4.471-5.94a11.31 11.31 0 0 1-1.788-6.121C69.36 5.245 74.43.157 80.69.157c6.259 0 11.329 5.085 11.329 11.362s-5.07 11.362-11.33 11.362c-2.374 0-4.577-.734-6.4-1.99l-7.612 2.688Z"/>
    <path fill="#9FABC7" d="M75.17 10.734c0 .628-.509 1.134-1.13 1.134a1.135 1.135 0 0 1-.001-2.268c.622 0 1.13.51 1.13 1.134Zm3.407 1.134c.624 0 1.13-.508 1.13-1.134 0-.626-.506-1.134-1.13-1.134-.624 0-1.13.508-1.13 1.134 0 .627.506 1.134 1.13 1.134Zm5.668-1.134c0 .628-.508 1.134-1.13 1.134a1.135 1.135 0 0 1 0-2.268c.622 0 1.13.51 1.13 1.134Zm3.404 1.134c.624 0 1.13-.508 1.13-1.134 0-.626-.506-1.134-1.13-1.134-.625 0-1.13.508-1.13 1.134 0 .627.505 1.134 1.13 1.134Z"/>
  </g>
  <defs>
    <clipPath id="a">
      <path fill="#fff" d="M0 0h270v148H0z" transform="translate(.498)"/>
    </clipPath>
  </defs>
</svg>
