<svg width="81" height="81" viewBox="0 0 81 81" fill="none" xmlns="http://www.w3.org/2000/svg">
<g clip-path="url(#clip0_127_1681)">
<circle cx="40.498" cy="40.5" r="40" fill="#5DADAA" fill-opacity="0.15"/>
<path d="M40.4981 17.0625C35.5623 17.0501 30.7504 18.6078 26.7583 21.5104L27.6753 22.7753C31.5295 19.9909 36.1856 18.5375 40.9394 18.635C45.6931 18.7326 50.2857 20.3759 54.0224 23.3161C57.759 26.2564 60.4363 30.3337 61.6491 34.9312C62.862 39.5286 62.5445 44.396 60.7446 48.7969L62.1903 49.3905C63.6464 45.8302 64.2044 41.9665 63.8151 38.1397C63.4258 34.3129 62.1012 30.6407 59.9579 27.4466C57.8147 24.2525 54.9187 21.6347 51.5251 19.8238C48.1315 18.0129 44.3446 17.0646 40.4981 17.0625ZM40.4981 63.9375C44.4546 63.9379 48.347 62.9377 51.8132 61.0299L51.0579 59.6619C47.2959 61.7301 43.0088 62.6465 38.7301 62.2969C34.4513 61.9474 30.3698 60.3474 26.9934 57.696C23.617 55.0446 21.0948 51.4589 19.7406 47.3851C18.3864 43.3112 18.26 38.9291 19.3772 34.784L17.8689 34.3766C16.9321 37.8518 16.8077 41.496 17.5052 45.0271C18.2028 48.5581 19.7035 51.8812 21.8914 54.7392C24.0792 57.5972 26.8954 59.9134 30.1219 61.5084C33.3485 63.1035 36.8988 63.9346 40.4981 63.9375Z" fill="#5DADAA"/>
<path d="M40.498 24.875C36.9391 24.8756 33.487 26.0909 30.7126 28.3199C27.9381 30.5489 26.0077 33.6582 25.2405 37.1335C24.4732 40.6087 24.9152 44.2417 26.4932 47.4317C28.0713 50.6216 30.6909 53.1774 33.9188 54.6762L34.5773 53.2594C31.6721 51.9109 29.3143 49.6111 27.8939 46.7403C26.4736 43.8696 26.0757 40.6 26.7662 37.4724C27.4567 34.3449 29.1942 31.5467 31.6912 29.5408C34.1882 27.535 37.2952 26.4416 40.498 26.4416C43.7009 26.4416 46.8079 27.535 49.3049 29.5408C51.8019 31.5467 53.5394 34.3449 54.2299 37.4724C54.9204 40.6 54.5225 43.8696 53.1022 46.7403C51.6818 49.6111 49.324 51.9109 46.4188 53.2594L47.0773 54.6762C50.3052 53.1774 52.9248 50.6216 54.5028 47.4317C56.0809 44.2417 56.5229 40.6087 55.7556 37.1335C54.9884 33.6582 53.0579 30.5489 50.2835 28.3199C47.5091 26.0909 44.057 24.8756 40.498 24.875ZM23.3105 31.9063V27.2188H24.873V22.7846C24.8674 22.3759 24.6996 21.9861 24.4066 21.701C24.1136 21.4159 23.7193 21.2589 23.3105 21.2644H22.5186C22.8386 21.0389 23.0797 20.7187 23.2079 20.3488C23.3361 19.979 23.3448 19.5782 23.233 19.2031C23.1382 18.8898 22.9641 18.6062 22.7276 18.3797C22.4911 18.1533 22.2003 17.9917 21.8831 17.9105C21.5966 17.829 21.2953 17.8143 21.0022 17.8676C20.7092 17.9208 20.4323 18.0407 20.1928 18.2178C19.9533 18.3949 19.7577 18.6246 19.621 18.8893C19.4843 19.1539 19.4102 19.4463 19.4043 19.7441C19.406 20.0422 19.4788 20.3356 19.6165 20.6C19.7542 20.8644 19.9529 21.0921 20.1962 21.2644H19.4043C18.9955 21.2589 18.6013 21.4159 18.3083 21.701C18.0153 21.9861 17.8475 22.3759 17.8418 22.7846V27.2188H19.4043V31.9063H23.3105ZM59.9518 51.0171C59.8569 50.7038 59.6828 50.4202 59.4464 50.1937C59.2099 49.9673 58.919 49.8057 58.6018 49.7245C58.3154 49.643 58.014 49.6283 57.721 49.6816C57.4279 49.7348 57.151 49.8546 56.9116 50.0318C56.6721 50.2089 56.4765 50.4386 56.3398 50.7032C56.2031 50.9678 56.1289 51.2603 56.123 51.5581C56.1248 51.8562 56.1975 52.1496 56.3352 52.414C56.4729 52.6784 56.6717 52.9061 56.915 53.0784H56.123C55.7143 53.0729 55.32 53.2299 55.027 53.515C54.734 53.8001 54.5662 54.1899 54.5605 54.5987V59.0328H56.123V63.7203H60.0293V59.0328H61.5918V54.5986C61.5861 54.1899 61.4183 53.8001 61.1253 53.515C60.8323 53.2299 60.4381 53.0729 60.0293 53.0784H59.2374C59.5573 52.8529 59.7984 52.5327 59.9266 52.1628C60.0548 51.793 60.0636 51.3922 59.9518 51.0171Z" fill="#5DADAA"/>
<path d="M63.9355 17.0625H62.373V18.625H63.9355V17.0625Z" fill="#5DADAA"/>
<path d="M61.5918 19.4062H60.0293V20.9688H61.5918V19.4062Z" fill="#5DADAA"/>
<path d="M20.9668 60.0312H19.4043V61.5938H20.9668V60.0312Z" fill="#5DADAA"/>
<path d="M18.623 62.375H17.0605V63.9375H18.623V62.375Z" fill="#5DADAA"/>
<path d="M47.5293 45.1875V37.7627C47.5293 37.3014 47.4384 36.8446 47.2619 36.4185C47.0854 35.9923 46.8266 35.605 46.5005 35.2789C46.1743 34.9527 45.787 34.6939 45.3609 34.5174C44.9347 34.3409 44.4779 34.25 44.0166 34.25H42.5453C43.0266 33.8327 43.3688 33.2783 43.5262 32.661C43.6836 32.0438 43.6486 31.3932 43.4259 30.7964C43.2031 30.1996 42.8034 29.6851 42.2801 29.3218C41.7568 28.9586 41.135 28.7639 40.498 28.7639C39.861 28.7639 39.2392 28.9586 38.716 29.3218C38.1927 29.6851 37.7929 30.1996 37.5702 30.7964C37.3475 31.3932 37.3125 32.0438 37.4699 32.661C37.6272 33.2783 37.9695 33.8327 38.4508 34.25H36.9794C36.5181 34.25 36.0614 34.3409 35.6352 34.5174C35.209 34.6939 34.8218 34.9527 34.4956 35.2789C34.1694 35.605 33.9107 35.9923 33.7342 36.4185C33.5576 36.8446 33.4668 37.3014 33.4668 37.7627V45.1875H35.8105V38.8705C35.8105 38.5202 35.8795 38.1734 36.0136 37.8497C36.1476 37.5261 36.3441 37.2321 36.5918 36.9844V56.125H40.1074V45.1875H40.8887V56.125H44.4043V36.9844C44.9176 37.7791 45.189 38.7058 45.1855 39.6518V45.1875H47.5293Z" fill="#5DADAA"/>
</g>
<defs>
<clipPath id="clip0_127_1681">
<rect width="80" height="80" fill="white" transform="translate(0.498047 0.5)"/>
</clipPath>
</defs>
</svg>
