<svg width="31" height="30" viewBox="0 0 31 30" fill="none" xmlns="http://www.w3.org/2000/svg">
<g clip-path="url(#clip0_127_1806)">
<mask id="mask0_127_1806" style="mask-type:luminance" maskUnits="userSpaceOnUse" x="0" y="0" width="31" height="30">
<path d="M15.498 30C23.7823 30 30.498 23.2843 30.498 15C30.498 6.71573 23.7823 0 15.498 0C7.21378 0 0.498047 6.71573 0.498047 15C0.498047 23.2843 7.21378 30 15.498 30Z" fill="white"/>
</mask>
<g mask="url(#mask0_127_1806)">
<path d="M6.94336 60.7031C24.7416 60.7031 39.1699 46.2748 39.1699 28.4766C39.1699 10.6783 24.7416 -3.75 6.94336 -3.75C-10.8549 -3.75 -25.2832 10.6783 -25.2832 28.4766C-25.2832 46.2748 -10.8549 60.7031 6.94336 60.7031Z" fill="url(#paint0_radial_127_1806)"/>
</g>
<path d="M19.7168 11.9531C20.364 11.9531 20.8887 11.4285 20.8887 10.7812C20.8887 10.134 20.364 9.60938 19.7168 9.60938C19.0696 9.60938 18.5449 10.134 18.5449 10.7812C18.5449 11.4285 19.0696 11.9531 19.7168 11.9531Z" fill="white"/>
<path d="M15.498 11.25C14.7564 11.25 14.0313 11.4699 13.4147 11.882C12.798 12.294 12.3173 12.8797 12.0335 13.5649C11.7497 14.2502 11.6754 15.0042 11.8201 15.7316C11.9648 16.459 12.322 17.1272 12.8464 17.6516C13.3708 18.1761 14.039 18.5333 14.7665 18.6779C15.4939 18.8226 16.2479 18.7484 16.9331 18.4645C17.6183 18.1807 18.204 17.7001 18.6161 17.0834C19.0281 16.4667 19.248 15.7417 19.248 15C19.248 14.0054 18.853 13.0516 18.1497 12.3483C17.4464 11.6451 16.4926 11.25 15.498 11.25ZM15.498 16.875C15.1272 16.875 14.7647 16.765 14.4564 16.559C14.148 16.353 13.9077 16.0601 13.7658 15.7175C13.6239 15.3749 13.5867 14.9979 13.6591 14.6342C13.7314 14.2705 13.91 13.9364 14.1722 13.6742C14.4344 13.412 14.7685 13.2334 15.1323 13.161C15.496 13.0887 15.873 13.1258 16.2156 13.2677C16.5582 13.4096 16.851 13.65 17.0571 13.9583C17.2631 14.2666 17.373 14.6292 17.373 15C17.373 15.4973 17.1755 15.9742 16.8239 16.3258C16.4722 16.6775 15.9953 16.875 15.498 16.875Z" fill="white"/>
<path d="M20.1855 7.5H10.8105C9.25725 7.5 7.99805 8.7592 7.99805 10.3125V19.6875C7.99805 21.2408 9.25725 22.5 10.8105 22.5H20.1855C21.7388 22.5 22.998 21.2408 22.998 19.6875V10.3125C22.998 8.7592 21.7388 7.5 20.1855 7.5Z" stroke="white" stroke-width="1.5" stroke-miterlimit="10"/>
</g>
<defs>
<radialGradient id="paint0_radial_127_1806" cx="0" cy="0" r="1" gradientUnits="userSpaceOnUse" gradientTransform="translate(6.94336 28.4766) scale(32.2266)">
<stop stop-color="#FFD676"/>
<stop offset="0.25" stop-color="#F2A454"/>
<stop offset="0.38" stop-color="#F05C3C"/>
<stop offset="0.7" stop-color="#C22F86"/>
<stop offset="0.96" stop-color="#6666AD"/>
<stop offset="0.99" stop-color="#5C6CB2"/>
</radialGradient>
<clipPath id="clip0_127_1806">
<rect width="30" height="30" fill="white" transform="translate(0.498047)"/>
</clipPath>
</defs>
</svg>
