<svg xmlns="http://www.w3.org/2000/svg" width="23" height="29" fill="none" viewBox="0 0 23 29">
  <path fill="#5DADAA" d="M11.415.44C5.625.44.935 5.132.935 10.918c0 9.143 10.48 17.013 10.48 17.013s10.48-7.872 10.48-17.013c0-5.79-4.691-10.48-10.48-10.48Zm0 14.279a3.8 3.8 0 1 1 0-7.6 3.8 3.8 0 1 1 0 7.6Z"/>
  <path fill="#5DADAA" d="M11.415 0a11.036 11.036 0 0 0-4.462.952 10.836 10.836 0 0 0-3.524 2.523 11.073 11.073 0 0 0-2.306 3.794 11.079 11.079 0 0 0-.6 4.435 14.76 14.76 0 0 0 .922 4.201 21.327 21.327 0 0 0 1.904 3.832 29.72 29.72 0 0 0 2.417 3.31 37.941 37.941 0 0 0 4.313 4.36c.346.296.697.61 1.072.873.015.012.03.024.044.032a.416.416 0 0 0 .443 0c.26-.196.515-.4.764-.612a34.788 34.788 0 0 0 1.738-1.547c.811-.77 1.59-1.573 2.329-2.414a31.69 31.69 0 0 0 2.463-3.164c.783-1.154 1.483-2.37 2.04-3.65.574-1.319 1.013-2.693 1.215-4.12.217-1.508.19-3.037-.175-4.523a10.79 10.79 0 0 0-1.89-3.946 11.08 11.08 0 0 0-3.299-2.906 10.994 10.994 0 0 0-4.31-1.377A11.418 11.418 0 0 0 11.415 0c-.229 0-.451.202-.44.44a.45.45 0 0 0 .44.439c.375 0 .75.02 1.122.058.088.01.173.021.26.033l.062.009c.047.005.094.014.138.02a10.687 10.687 0 0 1 2.312.66c.023.008.046.02.07.031.04.018.082.036.123.056a10.285 10.285 0 0 1 2.048 1.225c-.041-.033.02.017.032.023a9.119 9.119 0 0 1 .513.434 10.506 10.506 0 0 1 1.086 1.13c.053.065.106.13.156.194l.035.044c-.05-.065-.009-.012.003.003l.082.108c.21.284.404.577.586.88a10.155 10.155 0 0 1 .6 1.171c.01.018.015.035.024.053.026.061-.027-.062 0 .003l.053.126a9.839 9.839 0 0 1 .592 2.083c.014.085.029.17.04.257.003.027.02.15.01.062.005.047.01.094.017.14.085.724.093 1.454.035 2.18a10.1 10.1 0 0 1-.068.645l-.008.056a8.236 8.236 0 0 1-.041.26 13.41 13.41 0 0 1-.205 1.023c-.162.67-.37 1.33-.616 1.971-.064.164-.128.328-.196.493-.032.079.018-.044-.015.035l-.052.123a18.471 18.471 0 0 1-.563 1.18c-.316.613-.659 1.21-1.028 1.79a27.359 27.359 0 0 1-1.532 2.171l-.153.194a35.159 35.159 0 0 1-2.944 3.26 37.465 37.465 0 0 1-2.514 2.253c-.07.056-.14.115-.21.17l-.077.059c-.008.009-.02.015-.029.023a.853.853 0 0 0 .07-.055l-.011.008s-.038.03-.044.033h.442c-.006-.006-.047-.03-.047-.035l-.012-.01c-.04-.032.088.068.074.056-.012-.008-.02-.017-.033-.023l-.079-.062a35.034 35.034 0 0 1-2.203-1.922 37.242 37.242 0 0 1-2.27-2.34c-.413-.466-.815-.94-1.199-1.427-.052-.064-.102-.129-.152-.193-.02-.03-.044-.056-.064-.085l.014.017a1.136 1.136 0 0 0-.055-.07 31.925 31.925 0 0 1-.876-1.204 23.164 23.164 0 0 1-2.13-3.791l-.053-.123c-.003-.006-.026-.065-.009-.018.024.053-.017-.044-.02-.053a16.339 16.339 0 0 1-.53-1.462 14.597 14.597 0 0 1-.478-2.03l-.035-.243c-.009-.053.003.018.003.024l-.01-.056c-.005-.05-.01-.1-.017-.152a12.898 12.898 0 0 1-.085-1.576c.006-.376.03-.748.074-1.12.005-.04.008-.079.014-.12-.011.091.006-.04.009-.061l.044-.276a10.548 10.548 0 0 1 .595-2.077l.052-.126c-.029.07.006-.012.018-.038a10.35 10.35 0 0 1 1.271-2.16l.036-.043a9.199 9.199 0 0 1 .524-.612c.237-.258.49-.504.75-.739.129-.114.26-.225.396-.334.035-.029.07-.055.105-.085.064-.052-.035.024.032-.026l.217-.161c.287-.205.583-.399.888-.574.325-.182.641-.343.964-.49.035-.014.07-.032.105-.046.024-.012.047-.021.07-.033a.248.248 0 0 1-.014.006l.252-.102A10.02 10.02 0 0 1 9.848.994c.046-.01.093-.015.137-.021.03-.003.12-.018.041-.006.094-.012.188-.024.281-.032.367-.039.733-.056 1.102-.059.229 0 .451-.202.44-.44A.439.439 0 0 0 11.415 0Z"/>
  <path fill="#5DADAA" d="M11.415 14.28c-.097 0-.19-.004-.284-.012-.047-.003-.094-.01-.14-.012a.429.429 0 0 0-.06-.006c.065.009.015 0-.02-.006a3.908 3.908 0 0 1-.554-.135 3.926 3.926 0 0 1-.237-.088c-.064-.023.059.027-.003 0-.018-.008-.035-.014-.053-.023a3.972 3.972 0 0 1-.615-.354l-.108-.08c.064.05-.027-.023-.044-.038a6.647 6.647 0 0 1-.214-.19c-.059-.059-.117-.117-.173-.179-.03-.032-.059-.067-.088-.1-.017-.023-.1-.125-.05-.058a3.517 3.517 0 0 1-.301-.466 3.715 3.715 0 0 1-.123-.24c-.01-.02-.06-.138-.027-.056a4.149 4.149 0 0 1-.205-.674l-.026-.137c-.003-.012-.015-.097-.006-.041.009.05-.003-.015-.003-.02a3.49 3.49 0 0 1-.024-.303 4.4 4.4 0 0 1 .024-.588c.009-.088-.009.044.006-.041.009-.053.017-.106.03-.156.017-.09.04-.178.064-.27a3.406 3.406 0 0 1 .126-.371c.011-.03.026-.059.038-.088a4.023 4.023 0 0 1 .424-.706c-.044.058.01-.009.027-.03.032-.038.064-.079.1-.114.122-.137.254-.266.398-.384.02-.017.111-.087.044-.038l.108-.079c.08-.055.158-.108.24-.158.077-.047.156-.09.235-.129l.102-.05a3.85 3.85 0 0 1 .612-.205c.091-.02.182-.04.273-.055l.059-.01a2.99 2.99 0 0 1 .164-.015c.19-.013.38-.013.571.001.047.003.094.009.14.012.012 0 .097.012.042.006-.05-.009.014.003.02.003a3.85 3.85 0 0 1 .83.231c-.077-.03.031.015.055.026a6.017 6.017 0 0 1 .354.188c.077.047.153.094.226.146l.108.08c.053.04-.05-.041.003.003.02.017.041.032.059.05.14.117.275.245.398.383.03.032.059.067.088.1.015.017.091.114.038.044a3.86 3.86 0 0 1 .425.706c.012.023.056.129.027.055.017.041.032.085.05.126a3.993 3.993 0 0 1 .155.548l.026.138.009.059c-.012-.065-.003-.015.003.023.02.19.029.38.02.568a4.624 4.624 0 0 1-.02.284.429.429 0 0 0-.006.06c.011-.086.003-.016 0 .002-.009.053-.018.106-.03.155a4.01 4.01 0 0 1-.155.548 1.27 1.27 0 0 1-.05.126c.03-.07-.005.012-.017.038a4.102 4.102 0 0 1-.43.724c.049-.068-.021.026-.039.044l-.088.1c-.064.07-.129.14-.199.204-.059.059-.12.112-.185.167-.011.012-.105.088-.073.062.041-.032-.02.017-.032.023l-.062.044a3.751 3.751 0 0 1-.597.346c-.024.012-.132.056-.056.026a3.954 3.954 0 0 1-.832.232c-.085.014.044-.003-.04.006-.048.006-.095.008-.142.014-.105 0-.208.003-.31.003-.229 0-.451.202-.44.44a.45.45 0 0 0 .44.44 4.295 4.295 0 0 0 3.987-2.799c.61-1.64.082-3.589-1.271-4.696a4.314 4.314 0 0 0-2.411-.973 4.22 4.22 0 0 0-2.497.598c-1.532.929-2.308 2.742-1.962 4.491.33 1.679 1.754 3.059 3.45 3.322.235.036.467.06.704.062.228 0 .451-.202.44-.44a.452.452 0 0 0-.44-.445Z"/>
</svg>
