<svg xmlns="http://www.w3.org/2000/svg" width="151" height="50" fill="none" viewBox="0 0 151 50">
  <path fill="url(#a)" d="M11.526 16.44c.268.798.61 1.558 1.025 2.275a12.337 12.337 0 0 0-4.88 1c-.459.193-.91.42-1.352.676a12.451 12.451 0 0 0-4.569 4.567 12.485 12.485 0 0 1 0-12.477 12.46 12.46 0 0 1 10.8-6.24 12.392 12.392 0 0 0-1.672 6.24 12.602 12.602 0 0 0 .642 3.966l.006-.007Z"/>
  <path fill="#fff" d="m1.75 25.132-.075-.134a12.62 12.62 0 0 1 0-12.564A12.607 12.607 0 0 1 12.554 6.15h.152l-.077.13a12.208 12.208 0 0 0-1.11 2.54 12.419 12.419 0 0 0-.46 5.153 12.232 12.232 0 0 0 1.566 4.698l.078.13h-.165c-.819 0-1.641.085-2.445.247a12.2 12.2 0 0 0-2.389.745 12.264 12.264 0 0 0-2.236 1.236 12.326 12.326 0 0 0-3.64 3.966l-.075.134-.003.003ZM12.4 6.324a12.431 12.431 0 0 0-10.574 6.197 12.44 12.44 0 0 0-.077 12.256 12.567 12.567 0 0 1 8.306-5.9c.77-.156 1.557-.24 2.345-.25a12.579 12.579 0 0 1 .003-12.303H12.4Z"/>
  <path fill="url(#b)" d="M11.526 16.44a12.592 12.592 0 0 1-.595-5.038c.078-.903.25-1.775.508-2.613a9.963 9.963 0 0 0-3.872 1.277c-4.444 2.567-6.17 8.038-4.157 12.636a12.451 12.451 0 0 1 4.26-2.99 12.336 12.336 0 0 1 4.88-1 12.262 12.262 0 0 1-1.024-2.275v.003Z"/>
  <path fill="#fff" d="m3.382 22.861-.053-.121A10.053 10.053 0 0 1 7.524 9.994a9.937 9.937 0 0 1 3.905-1.286l.134-.016-.04.128a12.419 12.419 0 0 0-.461 5.153 12.232 12.232 0 0 0 1.567 4.698l.077.13h-.165c-.819 0-1.641.085-2.445.247a12.2 12.2 0 0 0-2.388.745 12.264 12.264 0 0 0-2.237 1.236 12.32 12.32 0 0 0-1.993 1.733l-.09.1h-.006Zm7.932-13.966a9.868 9.868 0 0 0-3.703 1.249 9.877 9.877 0 0 0-4.173 12.4 12.435 12.435 0 0 1 1.93-1.658 12.59 12.59 0 0 1 7.036-2.259 12.586 12.586 0 0 1-1.513-4.635 12.83 12.83 0 0 1-.09-1.515 12.616 12.616 0 0 1 .517-3.583h-.004Z"/>
  <path fill="url(#c)" d="M11.526 16.44a12.592 12.592 0 0 1-.595-5.038 7.489 7.489 0 0 0-5.513 9.555 12.72 12.72 0 0 1 2.252-1.246 12.336 12.336 0 0 1 4.88-1 12.262 12.262 0 0 1-1.024-2.274v.003Z"/>
  <path fill="#fff" d="m5.369 21.101-.038-.115a7.604 7.604 0 0 1 .153-4.979 7.58 7.58 0 0 1 5.425-4.685l.119-.025-.01.118a12.578 12.578 0 0 0 .044 2.558 12.232 12.232 0 0 0 1.567 4.698l.077.13h-.165c-.819 0-1.641.085-2.445.247a12.2 12.2 0 0 0-2.388.745 12.264 12.264 0 0 0-2.237 1.236l-.1.069-.002.003Zm5.462-9.583a7.334 7.334 0 0 0-1.971.788c-2.946 1.701-4.36 5.265-3.392 8.511a12.59 12.59 0 0 1 6.936-2.19 12.586 12.586 0 0 1-1.513-4.635 12.83 12.83 0 0 1-.053-2.475h-.007Z"/>
  <path fill="url(#d)" d="M11.526 16.44a12.168 12.168 0 0 1-.551-2.46 4.994 4.994 0 0 0-3.304 5.732 12.336 12.336 0 0 1 4.88-1 12.262 12.262 0 0 1-1.025-2.275v.003Z"/>
  <path fill="#fff" d="m7.605 19.836-.022-.106a5.07 5.07 0 0 1 3.364-5.832l.102-.034.013.106a12.223 12.223 0 0 0 1.567 4.698l.077.13h-.165c-.819 0-1.641.085-2.445.247a12.2 12.2 0 0 0-2.388.744l-.1.044-.003.003Zm3.295-5.735a4.892 4.892 0 0 0-3.167 5.49 12.432 12.432 0 0 1 4.668-.964A12.439 12.439 0 0 1 10.9 14.1Z"/>
  <path fill="url(#e)" d="M12.55 18.715c-.825 0-1.656.08-2.475.249a2.493 2.493 0 0 1 1.454-2.52c.268.797.61 1.557 1.025 2.274l-.003-.003Z"/>
  <path fill="#fff" d="m9.997 19.07-.01-.097a2.592 2.592 0 0 1 1.505-2.61l.09-.041.031.093c.262.782.604 1.543 1.019 2.256l.078.13h-.166c-.819 0-1.64.085-2.444.247l-.097.019-.006.003Zm1.48-2.505-.122.065a2.411 2.411 0 0 0-1.2 2.228 12.656 12.656 0 0 1 2.246-.23 12.356 12.356 0 0 1-.925-2.063Z"/>
  <path fill="url(#f)" d="M21.904 39.464a12.241 12.241 0 0 0 1.454-2.026 12.2 12.2 0 0 0 1.454 2.022 12.102 12.102 0 0 0 1.854 1.708c.398.299.819.576 1.26.831a12.447 12.447 0 0 0 6.235 1.673A12.466 12.466 0 0 1 23.36 49.91a12.469 12.469 0 0 1-10.804-6.237c.925 0 1.853-.1 2.772-.309a12.603 12.603 0 0 0 3.466-1.361 12.423 12.423 0 0 0 3.111-2.536v-.003Z"/>
  <path fill="#fff" d="M23.358 50c-4.47 0-8.64-2.408-10.882-6.28l-.078-.132h.165a12.281 12.281 0 0 0 5.239-1.168c.314-.146.632-.312.943-.492.43-.25.85-.527 1.25-.823a12.37 12.37 0 0 0 3.285-3.707l.075-.13.075.13a12.35 12.35 0 0 0 4.531 4.53 12.148 12.148 0 0 0 3.435 1.352 12.29 12.29 0 0 0 2.744.308h.169l-.078.131A12.602 12.602 0 0 1 23.35 50h.007Zm-10.652-6.237a12.436 12.436 0 0 0 10.652 6.063 12.43 12.43 0 0 0 10.652-6.063 12.491 12.491 0 0 1-7.394-2.524 12.368 12.368 0 0 1-1.866-1.72c-.52-.588-.987-1.23-1.389-1.906a12.51 12.51 0 0 1-1.389 1.91 12.531 12.531 0 0 1-3.13 2.554 12.42 12.42 0 0 1-3.491 1.374c-.863.197-1.75.303-2.638.312h-.007Z"/>
  <path fill="url(#g)" d="M21.904 39.464a12.107 12.107 0 0 1-1.854 1.707 12.592 12.592 0 0 1-4.725 2.19 9.986 9.986 0 0 0 3.04 2.713c4.445 2.568 10.045 1.325 13.019-2.716a12.31 12.31 0 0 1-3.457-1.362 12.582 12.582 0 0 1-3.114-2.54 12.584 12.584 0 0 1-1.455-2.02c-.414.716-.9 1.395-1.454 2.024v.004Z"/>
  <path fill="#fff" d="M23.358 47.508c-1.716 0-3.45-.44-5.036-1.356a10.018 10.018 0 0 1-3.068-2.738l-.081-.11.13-.03a12.537 12.537 0 0 0 3.442-1.352c.43-.25.85-.527 1.25-.823a12.37 12.37 0 0 0 3.285-3.707l.075-.131.075.13a12.35 12.35 0 0 0 5.469 5.023c.8.377 1.64.667 2.497.86l.131.03-.08.11a10.04 10.04 0 0 1-8.098 4.094h.009Zm-7.883-4.091A9.767 9.767 0 0 0 18.41 46a9.87 9.87 0 0 0 12.822-2.586 12.358 12.358 0 0 1-3.35-1.343 12.219 12.219 0 0 1-1.268-.838 12.368 12.368 0 0 1-1.866-1.72 12.65 12.65 0 0 1-1.39-1.906 12.51 12.51 0 0 1-1.388 1.91 12.536 12.536 0 0 1-3.13 2.554 12.483 12.483 0 0 1-3.36 1.343l-.004.003Z"/>
  <path fill="url(#h)" d="M21.904 39.464a12.107 12.107 0 0 1-1.854 1.707 12.592 12.592 0 0 1-2.208 1.324 7.486 7.486 0 0 0 1.772 1.417 7.483 7.483 0 0 0 9.257-1.42 11.33 11.33 0 0 1-.944-.496 12.582 12.582 0 0 1-3.114-2.54 12.584 12.584 0 0 1-1.455-2.02c-.414.716-.9 1.395-1.454 2.024v.004Z"/>
  <path fill="#fff" d="M23.361 45.006a7.563 7.563 0 0 1-3.79-1.016 7.55 7.55 0 0 1-1.794-1.436l-.081-.087.109-.05c.314-.147.632-.312.944-.492a12.37 12.37 0 0 0 4.535-4.53l.074-.131.075.13a12.35 12.35 0 0 0 5.469 5.023l.109.05-.081.087a7.618 7.618 0 0 1-4.389 2.358 7.586 7.586 0 0 1-1.186.094h.006Zm-5.373-2.48c.49.514 1.05.956 1.67 1.315 2.946 1.7 6.737 1.143 9.066-1.315a15.75 15.75 0 0 1-.844-.446 12.219 12.219 0 0 1-1.267-.838 12.368 12.368 0 0 1-1.866-1.72 12.7 12.7 0 0 1-1.39-1.906 12.51 12.51 0 0 1-1.388 1.91 12.537 12.537 0 0 1-3.13 2.554c-.28.163-.567.312-.847.45l-.004-.004Z"/>
  <path fill="url(#i)" d="M21.904 39.464a12.107 12.107 0 0 1-1.854 1.707c.246.218.517.414.813.582a4.984 4.984 0 0 0 5.803-.585 12.582 12.582 0 0 1-1.854-1.708 12.584 12.584 0 0 1-1.454-2.022c-.414.717-.9 1.396-1.454 2.026Z"/>
  <path fill="#fff" d="M23.358 42.514a5.077 5.077 0 0 1-3.367-1.278l-.08-.071.086-.066a12.37 12.37 0 0 0 3.286-3.707l.075-.131.075.13a12.35 12.35 0 0 0 3.28 3.705l.086.065-.08.072a5.066 5.066 0 0 1-3.364 1.28h.003Zm-3.168-1.337c.222.187.461.355.717.502a4.89 4.89 0 0 0 5.618-.505 12.603 12.603 0 0 1-1.778-1.654 12.81 12.81 0 0 1-1.39-1.907 12.51 12.51 0 0 1-3.166 3.564Z"/>
  <path fill="url(#j)" d="M23.358 37.438a12.2 12.2 0 0 0 1.454 2.022 2.49 2.49 0 0 1-2.909.004 12.241 12.241 0 0 0 1.455-2.026Z"/>
  <path fill="#fff" d="M23.355 40.015a2.593 2.593 0 0 1-1.505-.483l-.08-.056.065-.075a12.453 12.453 0 0 0 1.445-2.01l.075-.13.075.13c.41.714.896 1.39 1.442 2.007l.065.072-.078.056c-.448.32-.978.486-1.507.486l.003.003Zm-1.32-.57a2.416 2.416 0 0 0 2.647-.003 12.565 12.565 0 0 1-1.324-1.832 12.592 12.592 0 0 1-1.324 1.835Z"/>
  <path fill="url(#k)" d="M36.644 18.964a12.374 12.374 0 0 0-2.479-.25 12.412 12.412 0 0 0 1.67-6.237 12.529 12.529 0 0 0-.551-3.68 12.39 12.39 0 0 0-1.119-2.563 12.467 12.467 0 0 1 10.801 6.24 12.47 12.47 0 0 1 0 12.478 12.32 12.32 0 0 0-3.663-3.99 11.54 11.54 0 0 0-.906-.578c-.439-.255-.89-.48-1.345-.672a12.36 12.36 0 0 0-2.408-.751v.003Z"/>
  <path fill="#fff" d="m44.966 25.132-.075-.134a12.4 12.4 0 0 0-1.64-2.23 12.43 12.43 0 0 0-2.894-2.306 12.331 12.331 0 0 0-6.18-1.66h-.161l.078-.131c.414-.713.753-1.47 1.015-2.256.265-.788.448-1.61.548-2.442a12.585 12.585 0 0 0 .047-2.558 12.321 12.321 0 0 0-1.613-5.14l-.078-.131h.152a12.607 12.607 0 0 1 10.88 6.284 12.61 12.61 0 0 1 0 12.567l-.076.134-.003.003Zm-8.303-6.255a12.488 12.488 0 0 1 3.778 1.436 12.564 12.564 0 0 1 2.933 2.336 12.51 12.51 0 0 1 1.59 2.131 12.439 12.439 0 0 0-.079-12.259 12.438 12.438 0 0 0-10.573-6.197 12.516 12.516 0 0 1 1.516 7.668 12.452 12.452 0 0 1-1.514 4.633 12.68 12.68 0 0 1 2.349.248v.004Z"/>
  <path fill="url(#l)" d="M36.644 18.964a12.435 12.435 0 0 1 3.753 1.424c.315.18.617.373.907.576a12.32 12.32 0 0 1 2.008 1.745 9.957 9.957 0 0 0 .829-3.991c0-5.135-3.874-9.362-8.86-9.92a12.45 12.45 0 0 1 .46 5.187 12.43 12.43 0 0 1-1.579 4.73c.825 0 1.657.08 2.48.249h.002Z"/>
  <path fill="#fff" d="m43.337 22.867-.09-.1a12.43 12.43 0 0 0-2.893-2.305 12.331 12.331 0 0 0-6.18-1.66h-.161l.078-.131c.414-.713.753-1.47 1.015-2.256a12.564 12.564 0 0 0 .595-5 12.42 12.42 0 0 0-.502-2.595l-.04-.128.134.016a10.051 10.051 0 0 1 8.938 10.007 9.96 9.96 0 0 1-.837 4.025l-.053.124-.004.003Zm-6.677-3.99a12.488 12.488 0 0 1 3.778 1.436 12.654 12.654 0 0 1 2.843 2.24 9.823 9.823 0 0 0 .77-3.832c0-5.004-3.71-9.2-8.65-9.817a12.54 12.54 0 0 1 .515 3.573 12.404 12.404 0 0 1-.648 3.994c-.25.745-.57 1.47-.956 2.156.788.01 1.576.094 2.348.25Z"/>
  <path fill="url(#m)" d="M36.644 18.964a12.435 12.435 0 0 1 3.753 1.424c.315.18.617.373.907.576a7.487 7.487 0 0 0-5.516-9.552 12.643 12.643 0 0 1-.047 2.573 12.43 12.43 0 0 1-1.579 4.73c.825 0 1.657.08 2.48.249h.002Z"/>
  <path fill="#fff" d="m41.35 21.104-.1-.068c-.283-.2-.585-.393-.9-.57a12.334 12.334 0 0 0-6.18-1.66h-.16l.077-.132a12.272 12.272 0 0 0 1.563-4.698 12.564 12.564 0 0 0 .047-2.558l-.009-.118.119.025a7.62 7.62 0 0 1 4.235 2.623 7.595 7.595 0 0 1 1.346 7.044l-.038.115v-.003Zm-4.687-2.227a12.488 12.488 0 0 1 3.778 1.436c.28.162.554.333.813.51a7.37 7.37 0 0 0 .302-2.102c0-3.402-2.38-6.409-5.672-7.194a12.863 12.863 0 0 1-.056 2.47 12.452 12.452 0 0 1-1.514 4.633c.789.01 1.577.094 2.349.25v-.003Z"/>
  <path fill="url(#n)" d="M36.644 18.964c.813.165 1.62.414 2.408.75a4.995 4.995 0 0 0-3.31-5.73 12.434 12.434 0 0 1-1.58 4.73c.825 0 1.657.082 2.48.25h.002Z"/>
  <path fill="#fff" d="m39.114 19.836-.1-.043a12.334 12.334 0 0 0-4.843-.991h-.161l.077-.131a12.274 12.274 0 0 0 1.563-4.698l.013-.106.103.034a5.07 5.07 0 0 1 3.367 5.83l-.022.105h.003Zm-2.454-.96c.791.16 1.57.4 2.323.714a4.888 4.888 0 0 0-3.17-5.486 12.266 12.266 0 0 1-.545 2.367c-.25.745-.57 1.47-.956 2.156.788.01 1.576.094 2.348.25Z"/>
  <path fill="url(#o)" d="M34.165 18.715c.414-.714.757-1.474 1.025-2.272a2.494 2.494 0 0 1 1.454 2.518 12.367 12.367 0 0 0-2.479-.25v.004Z"/>
  <path fill="#fff" d="m36.722 19.07-.096-.019a12.468 12.468 0 0 0-2.455-.246h-.161l.077-.13a12.13 12.13 0 0 0 1.016-2.256l.03-.094.091.04a2.588 2.588 0 0 1 1.508 2.608l-.01.097Zm-2.407-.443c.753.01 1.51.088 2.248.23 0-.046.003-.093.003-.136 0-.913-.517-1.748-1.33-2.153a12.485 12.485 0 0 1-.924 2.062l.003-.003Z"/>
  <path fill="#231F20" d="M24.875 20.696a12.99 12.99 0 0 1-.209 1.022c-.028.115-.06.23-.09.346l-.066.227c-.018.066-.04.131-.059.193a16.118 16.118 0 0 1-.233.67l-.047.119c-.022.059-.047.115-.072.174-.084.206-.174.411-.27.614-.023.05-.047.096-.072.146-.053.11-.11.218-.166.324-.027.053-.056.103-.084.156-.037.072-.077.14-.115.209-.01.018-.022.037-.031.056l-.031-.056-.037-.066c-.028-.05-.053-.096-.081-.143-.032-.053-.06-.11-.088-.165l-.046-.09c-.01-.02-.022-.041-.031-.063-.053-.103-.103-.206-.153-.308a32.095 32.095 0 0 1-.19-.424 3.493 3.493 0 0 1-.081-.193c-.01-.022-.016-.044-.025-.063v-.003c-.025-.065-.053-.127-.078-.193l-.037-.096-.038-.097c-.015-.04-.03-.08-.043-.121a1.295 1.295 0 0 1-.04-.119c-.01-.025-.016-.05-.026-.072l-.028-.084c-.015-.043-.028-.09-.043-.134-.016-.043-.028-.09-.04-.134-.016-.043-.029-.09-.041-.133a13.865 13.865 0 0 1-.255-1.05l-.029-.15a2.672 2.672 0 0 1-.037-.218c-.006-.04-.012-.081-.019-.118-.01-.047-.015-.094-.021-.14l-.029-.197a6.198 6.198 0 0 1-.037-.336 1.989 1.989 0 0 1-.012-.137 3.684 3.684 0 0 1-.016-.203 3.634 3.634 0 0 1-.012-.202 8.48 8.48 0 0 1-.013-.28c0-.057-.003-.11-.003-.166a11.351 11.351 0 0 1 .003-.632l.006-.181c0-.053.007-.106.01-.156.006-.128.015-.252.028-.38l.015-.178.019-.177a11.504 11.504 0 0 1 .062-.477c.01-.053.016-.106.025-.159.01-.059.019-.115.031-.171l.056-.287.038-.174c.01-.05.022-.097.03-.146.06-.26.129-.515.206-.77.013-.037.022-.075.035-.112.018-.066.04-.128.062-.193l.05-.153c.015-.05.034-.1.053-.15.037-.106.078-.215.118-.32.016-.044.034-.085.05-.125.019-.05.04-.1.062-.146.04-.1.084-.197.128-.293.022-.05.044-.097.065-.147.022-.05.044-.096.069-.143a9.89 9.89 0 0 1 .156-.315c.03-.059.059-.118.09-.174.065-.122.13-.24.2-.359a12.524 12.524 0 0 1 1.516 8.222l-.01-.006Zm-1.517 4.259a12.467 12.467 0 0 1-10.807 6.24 12.47 12.47 0 0 1 10.807-6.24Z"/>
  <path fill="#231F20" d="M34.165 31.195c-4.307 0-8.496-2.24-10.807-6.24a12.47 12.47 0 0 1 10.807 6.24Z"/>
  <path fill="#231F20" d="M23.358 24.955a12.467 12.467 0 0 1-10.807 6.24 12.47 12.47 0 0 1 10.807-6.24Zm-8.599-3.44a7.492 7.492 0 0 0-5.045 9.353 12.435 12.435 0 0 1-3.395-1.346 12.428 12.428 0 0 1-4.57-4.567 12.404 12.404 0 0 1 4.57-4.567 12.386 12.386 0 0 1 6.235-1.673 12.507 12.507 0 0 0 2.205 2.8Zm10.116-.819a12.99 12.99 0 0 1-.209 1.022c-.028.115-.06.23-.09.346l-.066.227c-.018.066-.04.131-.059.193a16.118 16.118 0 0 1-.233.67l-.047.119c-.022.059-.047.115-.072.174-.084.206-.174.411-.27.614-.023.05-.047.096-.072.146-.053.11-.11.218-.166.324-.027.053-.056.103-.084.156-.037.072-.077.14-.115.209-.01.018-.022.037-.031.056l-.031-.056-.037-.066c-.028-.05-.053-.096-.081-.143-.032-.053-.06-.11-.088-.165l-.046-.09c-.01-.02-.022-.041-.031-.063-.053-.103-.103-.206-.153-.308a32.095 32.095 0 0 1-.19-.424 3.493 3.493 0 0 1-.081-.193c-.01-.022-.016-.044-.025-.063v-.003c-.025-.065-.053-.127-.078-.193l-.037-.096-.038-.097c-.015-.04-.03-.08-.043-.121a1.295 1.295 0 0 1-.04-.119c-.01-.025-.016-.05-.026-.072l-.028-.084c-.015-.043-.028-.09-.043-.134-.016-.043-.028-.09-.04-.134-.016-.043-.029-.09-.041-.133a13.865 13.865 0 0 1-.255-1.05l-.029-.15a2.672 2.672 0 0 1-.037-.218c-.006-.04-.012-.081-.019-.118-.01-.047-.015-.094-.021-.14l-.029-.197a6.198 6.198 0 0 1-.037-.336 1.989 1.989 0 0 1-.012-.137 3.684 3.684 0 0 1-.016-.203 3.634 3.634 0 0 1-.012-.202 8.48 8.48 0 0 1-.013-.28c0-.057-.003-.11-.003-.166a11.351 11.351 0 0 1 .003-.632l.006-.181c0-.053.007-.106.01-.156.006-.128.015-.252.028-.38l.015-.178.019-.177a11.504 11.504 0 0 1 .062-.477c.01-.053.016-.106.025-.159.01-.059.019-.115.031-.171l.056-.287.038-.174c.01-.05.022-.097.03-.146.06-.26.129-.515.206-.77.013-.037.022-.075.035-.112.018-.066.04-.128.062-.193l.05-.153c.015-.05.034-.1.053-.15.037-.106.078-.215.118-.32.016-.044.034-.085.05-.125.019-.05.04-.1.062-.146.04-.1.084-.197.128-.293.022-.05.044-.097.065-.147.022-.05.044-.096.069-.143a9.89 9.89 0 0 1 .156-.315c.03-.059.059-.118.09-.174.065-.122.13-.24.2-.359a12.524 12.524 0 0 1 1.516 8.222l-.01-.006Z"/>
  <path fill="#231F20" d="M23.358 24.955a12.467 12.467 0 0 1-10.807 6.24 12.47 12.47 0 0 1 10.807-6.24Z"/>
  <path fill="url(#p)" d="M23.159 12.833c-.032.059-.063.115-.09.174a9.897 9.897 0 0 0-.156.315l-.069.143-.065.146a8.34 8.34 0 0 0-.128.293c-.022.05-.04.1-.062.147-.016.04-.035.084-.05.124-.04.106-.081.215-.119.321-.018.05-.037.1-.053.15-.018.05-.034.1-.05.152a3.52 3.52 0 0 0-.062.194c-.012.037-.021.074-.034.112a11.214 11.214 0 0 0-.237.916c-.015.059-.025.118-.037.174l-.056.287c-.01.056-.019.115-.031.171-.01.053-.019.106-.025.159a11.504 11.504 0 0 0-.062.477l-.019.177a3.32 3.32 0 0 0-.016.178 7.446 7.446 0 0 0-.028.38c0 .053-.006.106-.009.156 0 .059-.003.118-.006.18-.003.063-.003.119-.003.181v.452c0 .056 0 .112.003.165 0 .093.006.187.012.28.003.069.01.137.013.203.003.068.009.137.015.202.003.047.01.09.013.137.01.113.025.225.037.337l.028.196c.006.047.013.094.022.14l.019.119.037.218.028.15a11.775 11.775 0 0 0 .218.918l.037.131c.013.044.025.09.04.134.013.044.029.09.041.134.013.044.028.09.044.134l.028.084c.01.025.016.05.025.072.012.04.028.078.04.118.016.04.029.081.044.122l.037.096.038.097c.025.065.05.128.078.193v.003c.009.022.015.044.025.063.024.065.052.127.08.193.029.062.057.128.085.19l.046.103.06.13c.05.103.1.206.152.309l.031.062.047.09c.028.057.06.11.087.166.025.05.053.096.081.143l.037.065c.013.02.022.038.032.056a.49.49 0 0 0 .03-.056c.041-.068.079-.14.116-.208l.084-.156c.056-.106.112-.215.165-.324.025-.05.05-.097.072-.146.096-.203.187-.409.27-.614l.073-.175.046-.118.047-.125c.065-.18.13-.364.187-.545.018-.065.04-.13.059-.193l.065-.228a12.588 12.588 0 0 0 .265-1.171l.034-.196a12.524 12.524 0 0 0-1.516-8.222c-.069.118-.134.24-.2.358l.01.007Z"/>
  <path fill="url(#q)" d="M34.162 6.237A12.47 12.47 0 0 0 23.358 0a12.469 12.469 0 0 0-10.804 6.237 12.417 12.417 0 0 0-1.67 6.24c0 2.275.608 4.403 1.67 6.238 1.199 0 2.389.174 3.528.51a7.484 7.484 0 1 1 14.55 0 12.52 12.52 0 0 1 3.53-.51 12.403 12.403 0 0 0 1.666-6.238c0-2.274-.607-4.405-1.669-6.24h.003Z"/>
  <path fill="url(#r)" d="M22.037 34.124c.28 1.155.723 2.274 1.32 3.311A12.433 12.433 0 0 1 18.793 42a12.4 12.4 0 0 1-6.238 1.673 12.46 12.46 0 0 1-10.801-6.24 12.47 12.47 0 0 1 0-12.477 12.404 12.404 0 0 1 4.569-4.567 12.386 12.386 0 0 1 6.235-1.673 12.504 12.504 0 0 0 2.205 2.8 7.492 7.492 0 0 0-3.342 12.303 7.485 7.485 0 0 0 10.62.303l-.003.003Z"/>
  <path fill="#231F20" d="M34.165 31.195c-4.307 0-8.496-2.24-10.807-6.24a12.47 12.47 0 0 1 10.807 6.24Z"/>
  <path fill="url(#s)" d="M22.037 34.124c.28 1.155.723 2.274 1.32 3.311A12.433 12.433 0 0 1 18.793 42a12.4 12.4 0 0 1-6.238 1.673 12.417 12.417 0 0 1-1.67-6.24c0-1.255.187-2.47.53-3.614a7.485 7.485 0 0 0 10.62.303l.003.003Z"/>
  <path fill="#231F20" d="M35.831 37.432c0 2.274-.607 4.405-1.669 6.24A12.43 12.43 0 0 1 27.924 42a12.41 12.41 0 0 1-4.566-4.565 12.46 12.46 0 0 0 1.32-3.311 7.488 7.488 0 0 0 10.62-.302 12.46 12.46 0 0 1 .53 3.613l.003-.003ZM23.358 24.955a12.47 12.47 0 0 1 10.807 6.24c-4.307 0-8.496-2.24-10.807-6.24Z"/>
  <path fill="url(#t)" d="M44.963 37.432a12.46 12.46 0 0 1-10.8 6.24A12.43 12.43 0 0 1 27.922 42a12.41 12.41 0 0 1-4.565-4.565 12.46 12.46 0 0 0 1.32-3.311 7.488 7.488 0 0 0 12.324-3.253 7.488 7.488 0 0 0-5.048-9.352 12.42 12.42 0 0 0 2.205-2.801c2.118 0 4.267.539 6.235 1.673a12.427 12.427 0 0 1 4.57 4.567c2.148 3.732 2.307 8.48 0 12.477v-.003Z"/>
  <path fill="url(#u)" d="M23.155 24.955a12.438 12.438 0 0 1-8.396-3.436 12.558 12.558 0 0 1-2.205-2.801c1.199 0 2.389.174 3.528.51a12.436 12.436 0 0 1 7.139 5.5 7.484 7.484 0 0 0-6.344-3.515 7.478 7.478 0 0 0 6.279 3.742Z"/>
  <path fill="url(#v)" d="M23.358 24.955a12.465 12.465 0 0 1-10.804 6.24 12.465 12.465 0 0 1 10.766-6.24h.041-.003Z"/>
  <path fill="url(#w)" d="M24.678 34.124a12.565 12.565 0 0 1-1.32 3.311 12.418 12.418 0 0 1-1.32-3.311 12.432 12.432 0 0 1 1.258-9.06l.062-.11a7.476 7.476 0 0 0 0 7.487 7.479 7.479 0 0 0 .152-7.209 12.426 12.426 0 0 1 1.168 8.892Z"/>
  <path fill="url(#x)" d="M24.875 20.696a12.99 12.99 0 0 1-.209 1.022c-.028.115-.06.23-.09.346l-.066.227c-.018.066-.04.131-.059.193a16.118 16.118 0 0 1-.233.67l-.047.119c-.022.059-.047.115-.072.174-.084.206-.174.411-.27.614-.023.05-.047.096-.072.146-.053.11-.11.218-.166.324-.027.053-.056.103-.084.156-.037.072-.077.14-.115.209-.01.018-.022.037-.031.056l-.031-.056-.037-.066c-.028-.05-.053-.096-.081-.143-.032-.053-.06-.11-.088-.165l-.046-.09c-.01-.02-.022-.041-.031-.063-.053-.103-.103-.206-.153-.308a32.095 32.095 0 0 1-.19-.424c-.028-.065-.056-.128-.081-.193-.01-.022-.016-.044-.025-.063v-.003c-.025-.065-.053-.127-.078-.193l-.037-.096-.038-.097c-.015-.04-.03-.08-.043-.121a1.295 1.295 0 0 1-.04-.119c-.01-.025-.016-.05-.026-.072l-.028-.084c-.015-.043-.028-.09-.043-.134-.016-.043-.028-.09-.04-.134-.016-.043-.029-.09-.041-.133a13.865 13.865 0 0 1-.255-1.05l-.029-.15a2.672 2.672 0 0 1-.037-.218c-.006-.04-.012-.081-.019-.118-.01-.047-.015-.094-.021-.14l-.029-.197a6.198 6.198 0 0 1-.037-.336 1.989 1.989 0 0 1-.012-.137 3.684 3.684 0 0 1-.016-.203 3.634 3.634 0 0 1-.012-.202 8.48 8.48 0 0 1-.013-.28c0-.057-.003-.11-.003-.166a11.351 11.351 0 0 1 .003-.632c0-.06.003-.119.006-.181 0-.053.007-.106.01-.156.006-.128.015-.252.028-.38l.015-.178.019-.177a11.504 11.504 0 0 1 .062-.477c.01-.053.016-.106.025-.159.01-.059.019-.115.031-.171l.056-.287.038-.174c.01-.05.022-.097.03-.146.06-.26.129-.515.206-.77.013-.037.022-.075.035-.112.018-.066.04-.128.062-.193.016-.05.034-.1.05-.153.015-.05.034-.1.053-.15.037-.106.078-.215.118-.32.016-.044.034-.085.05-.125.019-.05.04-.1.06-.146.04-.1.083-.197.127-.293l.065-.147c.022-.05.044-.096.069-.143a9.89 9.89 0 0 1 .155-.315c.032-.059.06-.118.09-.174.066-.122.132-.24.2-.359a12.524 12.524 0 0 1 1.517 8.222l-.006-.006Z"/>
  <path fill="url(#y)" d="M34.165 31.195a12.46 12.46 0 0 1-10.798-6.225c0-.003-.006-.009-.01-.015h.041a12.47 12.47 0 0 1 10.767 6.24Z"/>
  <path fill="url(#z)" d="M34.165 18.715a12.507 12.507 0 0 1-2.205 2.8 12.42 12.42 0 0 1-8.375 3.437 7.478 7.478 0 0 0 6.26-3.742 7.47 7.47 0 0 0-6.45 3.689 12.423 12.423 0 0 1 7.244-5.673 12.48 12.48 0 0 1 3.53-.511h-.004Z"/>
  <path fill="url(#A)" d="M44.966 24.955a12.404 12.404 0 0 1-4.569 4.567 12.356 12.356 0 0 1-3.395 1.346 7.488 7.488 0 0 0-5.048-9.353 12.42 12.42 0 0 0 2.205-2.8c2.118 0 4.267.538 6.235 1.673a12.427 12.427 0 0 1 4.57 4.567h.002Z"/>
  <path fill="#fff" d="M23.358 8.733a2.495 2.495 0 1 0 0-4.99 2.495 2.495 0 0 0 0 4.99ZM8.398 36.474a2.496 2.496 0 1 0-2.497-4.322 2.496 2.496 0 0 0 2.497 4.322Zm33.325-.91A2.496 2.496 0 1 0 37.4 33.07a2.496 2.496 0 0 0 4.323 2.495Z"/>
  <path fill="url(#B)" d="M16.082 19.226a12.49 12.49 0 0 0-3.528-.511 12.406 12.406 0 0 1-1.67-6.238c0-2.274.608-4.405 1.67-6.24 2.12 0 4.27.536 6.238 1.673a12.458 12.458 0 0 1 2.862 2.268 7.49 7.49 0 0 0-5.572 9.047Z"/>
  <path fill="#14183E" d="M58.268 32.731c.044-.153.087-.343.125-.57.04-.228.075-.508.103-.844.028-.337.05-.736.065-1.2a49.6 49.6 0 0 0 .022-1.626V21.36c0-.62-.006-1.162-.022-1.627a24.997 24.997 0 0 0-.065-1.205c-.028-.34-.066-.623-.103-.848a5.933 5.933 0 0 0-.125-.57v-.043h2.629v.043a5.119 5.119 0 0 0-.125.57c-.04.228-.071.508-.1.848a37.338 37.338 0 0 0-.093 2.832v2.442l6.394-5.224c.717-.586 1.075-1.088 1.075-1.511h3.077v.043c-.43.103-.866.3-1.308.586-.442.29-.91.642-1.408 1.056l-5.65 4.732 6.8 7.471c.283.293.526.536.728.73.2.192.377.354.533.482.152.128.293.234.42.318.128.084.262.165.399.246v.044H68.43a1.725 1.725 0 0 0-.147-.253 3.864 3.864 0 0 0-.24-.317c-.09-.11-.19-.222-.295-.34-.106-.115-.206-.227-.302-.327L60.582 24v4.49a36.905 36.905 0 0 0 .094 2.826c.025.336.059.616.1.844.04.227.08.417.124.57v.044h-2.629v-.044h-.003Z"/>
  <path fill="#14183E" d="M76.983 29.073c-.374 0-.725 0-1.062.007-.336.003-.641.006-.919.012-.277.003-.492.006-.644.006l-.405.854c-.175.349-.324.654-.449.916a9.978 9.978 0 0 0-.305.685c-.08.197-.14.368-.174.508a1.573 1.573 0 0 0-.056.399c0 .081.003.14.012.18a.223.223 0 0 0 .034.094v.044h-1.927v-.044c.05-.05.13-.162.24-.333.108-.172.236-.38.376-.63a25.911 25.911 0 0 0 .947-1.82l4.466-9.22h.822l4.38 9.221a27.45 27.45 0 0 0 .984 1.866c.146.253.274.461.383.623.109.162.183.262.218.29v.044H81.1a.623.623 0 0 0 .021-.16v-.158c0-.162-.034-.355-.102-.58a6.992 6.992 0 0 0-.253-.694c-.1-.237-.199-.465-.305-.686a20.014 20.014 0 0 1-.258-.548l-.427-.876h-2.794Zm-2.202-.853h.667c.305 0 .632 0 .98-.006.347-.003.695-.007 1.047-.007s.689 0 1.019-.006c.327-.003.623-.006.887-.006l-2.267-4.841-2.333 4.863v.003Zm14.343-.449c-.147.022-.29.034-.433.038-.144.003-.287.006-.433.006-.119 0-.246-.003-.383-.013a6.963 6.963 0 0 1-.427-.034v.536c0 .651.006 1.218.022 1.704.015.486.034.904.059 1.256.025.349.056.645.093.881.038.237.081.433.131.586v.044h-2.529v-.044c.05-.153.097-.349.137-.592.04-.24.072-.539.1-.894.025-.355.047-.776.06-1.265.015-.49.02-1.062.02-1.72V25.5c0-.657-.005-1.227-.02-1.713a33.743 33.743 0 0 0-.06-1.26 9.626 9.626 0 0 0-.1-.893c-.04-.24-.087-.44-.137-.592v-.044c.115.006.24.016.374.022a17.636 17.636 0 0 0 .779.022c.233 0 .579-.022 1.04-.066.46-.043 1-.065 1.62-.065.62 0 1.198.078 1.712.23.514.153.957.374 1.324.658.368.283.654.632.853 1.04.2.409.302.867.302 1.368 0 .396-.056.754-.165 1.078a2.976 2.976 0 0 1-.46.875c-.197.26-.43.486-.701.686-.271.196-.57.367-.897.514l2.289 3.23a18 18 0 0 0 .598.758c.2.24.392.455.576.645.184.19.355.349.514.476.162.128.296.215.405.259v.044h-2.869c0-.066-.046-.181-.137-.346a6.117 6.117 0 0 0-.317-.514c-.122-.178-.24-.352-.362-.52l-.267-.375-2.311-3.252v.006Zm-1.676-.713a5.373 5.373 0 0 0 .875.065c.913 0 1.604-.246 2.074-.735.47-.49.707-1.224.707-2.203 0-.803-.186-1.439-.563-1.906-.377-.468-.928-.701-1.66-.701a6.068 6.068 0 0 0-1.075.087c-.14.028-.258.06-.361.087v5.303l.003.003Zm8.2 5.673c.094-.103.194-.29.29-.558.1-.27.178-.56.237-.875a208.778 208.778 0 0 0 .607-3.77c.106-.695.209-1.386.312-2.075l.283-1.922a78.073 78.073 0 0 0 .34-2.53h1.301l5.223 9.353L109.595 21h1.062l1.314 9.147c.066.418.131.77.194 1.063.062.293.121.539.18.738a3.14 3.14 0 0 0 .327.782v.044h-2.694v-.044a2.432 2.432 0 0 0 .131-.788 10.025 10.025 0 0 0-.109-1.224l-.941-6.714-4.983 8.75-.778-.108-4.893-8.708a226.657 226.657 0 0 0-.657 4.742c-.06.445-.11.863-.153 1.255-.044.39-.081.736-.109 1.035a8.151 8.151 0 0 0-.044.666c0 .184.004.343.013.477.006.134.019.253.034.355.016.119.028.218.044.306h-1.885v-.044Zm23.72-3.658c-.373 0-.725 0-1.062.007-.336.003-.641.006-.918.012-.278.003-.492.006-.645.006l-.405.854a51.51 51.51 0 0 0-.448.916 9.927 9.927 0 0 0-.306.685c-.081.197-.14.368-.174.508a1.59 1.59 0 0 0-.056.399c0 .081.003.14.012.18a.223.223 0 0 0 .035.094v.044h-1.928v-.044c.05-.05.13-.162.24-.333a23.918 23.918 0 0 0 .837-1.474c.165-.314.327-.639.486-.975l4.466-9.222h.823l4.379 9.222a27.617 27.617 0 0 0 .984 1.866c.146.253.274.461.383.623.109.162.184.262.218.29v.044h-2.803a.651.651 0 0 0 .022-.16v-.158a2.06 2.06 0 0 0-.103-.58 7.276 7.276 0 0 0-.252-.694c-.1-.237-.2-.465-.306-.686a18.436 18.436 0 0 1-.258-.548l-.427-.876h-2.794Zm-2.202-.853h.667c.305 0 .632 0 .981-.006.346-.003.695-.007 1.047-.007.351 0 .688 0 1.018-.006.327-.003.623-.006.888-.006l-2.268-4.841-2.333 4.863v.003Z"/>
  <path fill="#14183E" d="M131.97 29.073c-.374 0-.726 0-1.062.007a69.95 69.95 0 0 0-.919.012c-.277.003-.492.006-.645.006l-.405.854a51.51 51.51 0 0 0-.448.916 9.415 9.415 0 0 0-.305.685 3.643 3.643 0 0 0-.175.508 1.59 1.59 0 0 0-.056.399c0 .081.003.14.013.18a.21.21 0 0 0 .034.094v.044h-1.928v-.044c.05-.05.131-.162.24-.333.109-.172.236-.38.377-.63a27.695 27.695 0 0 0 .946-1.819l4.467-9.222h.822l4.379 9.222a27.617 27.617 0 0 0 .984 1.866c.146.253.274.461.383.623.109.162.184.262.218.29v.044h-2.803a.606.606 0 0 0 .022-.16v-.158c0-.162-.034-.355-.103-.58a7.013 7.013 0 0 0-.252-.694c-.1-.237-.2-.465-.305-.686a18.813 18.813 0 0 1-.259-.548l-.427-.876h-2.793Zm-2.202-.853h.666c.305 0 .632 0 .981-.006.346-.003.695-.007 1.047-.007s.688 0 1.018-.006c.327-.003.623-.006.888-.006l-2.268-4.841-2.332 4.863v.003Zm20.966 4.71h-.426l-8.705-8.564v3.9c0 .658.003 1.231.012 1.72.006.49.019.91.038 1.265.018.355.043.651.077.894.035.243.075.44.125.592v.044h-1.641v-.044c.05-.152.093-.349.131-.592.037-.24.065-.539.087-.894.022-.355.037-.776.043-1.265.007-.489.013-1.062.013-1.72v-2.76c0-.657-.003-1.227-.013-1.713a25.55 25.55 0 0 0-.043-1.259 10.35 10.35 0 0 0-.087-.894 3.974 3.974 0 0 0-.131-.592v-.044h.679l8.714 8.608v-4.106c0-.657-.003-1.227-.012-1.713a32.753 32.753 0 0 0-.038-1.259 14.112 14.112 0 0 0-.071-.894 2.873 2.873 0 0 0-.122-.592v-.044h1.632v.044c-.05.153-.093.349-.124.592-.032.243-.06.539-.081.894-.022.355-.038.773-.044 1.259a133.32 133.32 0 0 0-.013 1.713v7.428-.004Z"/>
  <defs>
    <linearGradient id="a" x1="152.203" x2="129.486" y1="33.206" y2="-24.35" gradientUnits="userSpaceOnUse">
      <stop stop-color="#E5D318"/>
      <stop offset=".5" stop-color="#F38A1E"/>
      <stop offset="1" stop-color="#EB3825"/>
    </linearGradient>
    <linearGradient id="b" x1="152.505" x2="120.329" y1="35.524" y2="-40.286" gradientUnits="userSpaceOnUse">
      <stop stop-color="#E5D318"/>
      <stop offset=".5" stop-color="#F38A1E"/>
      <stop offset="1" stop-color="#EB3825"/>
    </linearGradient>
    <linearGradient id="c" x1="152.883" x2="103.192" y1="38.099" y2="-69.155" gradientUnits="userSpaceOnUse">
      <stop stop-color="#E5D318"/>
      <stop offset=".5" stop-color="#F38A1E"/>
      <stop offset="1" stop-color="#EB3825"/>
    </linearGradient>
    <linearGradient id="d" x1="153.545" x2="65.216" y1="41.196" y2="-130.517" gradientUnits="userSpaceOnUse">
      <stop stop-color="#E5D318"/>
      <stop offset=".5" stop-color="#F38A1E"/>
      <stop offset="1" stop-color="#EB3825"/>
    </linearGradient>
    <linearGradient id="e" x1="155.149" x2="-60.259" y1="45.179" y2="-322.721" gradientUnits="userSpaceOnUse">
      <stop stop-color="#E5D318"/>
      <stop offset=".5" stop-color="#F38A1E"/>
      <stop offset="1" stop-color="#EB3825"/>
    </linearGradient>
    <linearGradient id="f" x1="75.259" x2="75.409" y1="-.462" y2="49.014" gradientUnits="userSpaceOnUse">
      <stop stop-color="#E5D318"/>
      <stop offset=".5" stop-color="#F38A1E"/>
      <stop offset="1" stop-color="#EB3825"/>
    </linearGradient>
    <linearGradient id="g" x1="75.176" x2="75.359" y1="-.562" y2="61.277" gradientUnits="userSpaceOnUse">
      <stop stop-color="#E5D318"/>
      <stop offset=".5" stop-color="#F38A1E"/>
      <stop offset="1" stop-color="#EB3825"/>
    </linearGradient>
    <linearGradient id="h" x1="75.093" x2="75.317" y1="-.75" y2="81.725" gradientUnits="userSpaceOnUse">
      <stop stop-color="#E5D318"/>
      <stop offset=".5" stop-color="#F38A1E"/>
      <stop offset="1" stop-color="#EB3825"/>
    </linearGradient>
    <linearGradient id="i" x1="75" x2="75.289" y1="-1.156" y2="122.621" gradientUnits="userSpaceOnUse">
      <stop stop-color="#E5D318"/>
      <stop offset=".5" stop-color="#F38A1E"/>
      <stop offset="1" stop-color="#EB3825"/>
    </linearGradient>
    <linearGradient id="j" x1="74.851" x2="75.383" y1="-2.313" y2="245.332" gradientUnits="userSpaceOnUse">
      <stop stop-color="#E5D318"/>
      <stop offset=".5" stop-color="#F38A1E"/>
      <stop offset="1" stop-color="#EB3825"/>
    </linearGradient>
    <linearGradient id="k" x1="2.413" x2="25.579" y1="32.623" y2="-24.902" gradientUnits="userSpaceOnUse">
      <stop stop-color="#E5D318"/>
      <stop offset=".5" stop-color="#F38A1E"/>
      <stop offset="1" stop-color="#EB3825"/>
    </linearGradient>
    <linearGradient id="l" x1="3.158" x2="35.985" y1="34.714" y2="-41.013" gradientUnits="userSpaceOnUse">
      <stop stop-color="#E5D318"/>
      <stop offset=".5" stop-color="#F38A1E"/>
      <stop offset="1" stop-color="#EB3825"/>
    </linearGradient>
    <linearGradient id="m" x1="4.399" x2="55.035" y1="36.97" y2="-70.035" gradientUnits="userSpaceOnUse">
      <stop stop-color="#E5D318"/>
      <stop offset=".5" stop-color="#F38A1E"/>
      <stop offset="1" stop-color="#EB3825"/>
    </linearGradient>
    <linearGradient id="n" x1="6.975" x2="96.987" y1="39.369" y2="-131.675" gradientUnits="userSpaceOnUse">
      <stop stop-color="#E5D318"/>
      <stop offset=".5" stop-color="#F38A1E"/>
      <stop offset="1" stop-color="#EB3825"/>
    </linearGradient>
    <linearGradient id="o" x1="14.911" x2="233.78" y1="41.46" y2="-324.663" gradientUnits="userSpaceOnUse">
      <stop stop-color="#E5D318"/>
      <stop offset=".5" stop-color="#F38A1E"/>
      <stop offset="1" stop-color="#EB3825"/>
    </linearGradient>
    <linearGradient id="p" x1="872.671" x2="855.58" y1="-17.628" y2="99.417" gradientUnits="userSpaceOnUse">
      <stop stop-color="#82549E"/>
      <stop offset=".49" stop-color="#60539F"/>
      <stop offset="1" stop-color="#2F4598"/>
    </linearGradient>
    <linearGradient id="q" x1="162.779" x2="126.17" y1="7.389" y2="58.979" gradientUnits="userSpaceOnUse">
      <stop stop-color="#82549E"/>
      <stop offset=".49" stop-color="#60539F"/>
      <stop offset="1" stop-color="#2F4598"/>
    </linearGradient>
    <linearGradient id="r" x1="22.731" x2="29.589" y1="3.008" y2="44.586" gradientUnits="userSpaceOnUse">
      <stop stop-color="#82549E"/>
      <stop offset=".49" stop-color="#60539F"/>
      <stop offset="1" stop-color="#2F4598"/>
    </linearGradient>
    <linearGradient id="s" x1="0" x2="150.996" y1="25.008" y2="25.008" gradientUnits="userSpaceOnUse">
      <stop stop-color="#4A71B3"/>
      <stop offset=".53" stop-color="#3C58A3"/>
      <stop offset="1" stop-color="#28266F"/>
    </linearGradient>
    <linearGradient id="t" x1="24.749" x2="33.139" y1="59.526" y2="13.956" gradientUnits="userSpaceOnUse">
      <stop stop-color="#82549E"/>
      <stop offset=".49" stop-color="#60539F"/>
      <stop offset="1" stop-color="#2F4598"/>
    </linearGradient>
    <linearGradient id="u" x1="150.379" x2="52.585" y1="49.675" y2="-52.048" gradientUnits="userSpaceOnUse">
      <stop stop-color="#4A71B3"/>
      <stop offset=".53" stop-color="#3C58A3"/>
      <stop offset="1" stop-color="#28266F"/>
    </linearGradient>
    <linearGradient id="v" x1="151.736" x2="52.923" y1="-.349" y2="99.49" gradientUnits="userSpaceOnUse">
      <stop stop-color="#4A71B3"/>
      <stop offset=".53" stop-color="#3C58A3"/>
      <stop offset="1" stop-color="#28266F"/>
    </linearGradient>
    <linearGradient id="w" x1="76.474" x2="76.458" y1="-.786" y2="49.639" gradientUnits="userSpaceOnUse">
      <stop stop-color="#4A71B3"/>
      <stop offset=".53" stop-color="#3C58A3"/>
      <stop offset="1" stop-color="#28266F"/>
    </linearGradient>
    <linearGradient id="x" x1="77.02" x2="76.989" y1="49.85" y2=".097" gradientUnits="userSpaceOnUse">
      <stop stop-color="#4A71B3"/>
      <stop offset=".53" stop-color="#3C58A3"/>
      <stop offset="1" stop-color="#28266F"/>
    </linearGradient>
    <linearGradient id="y" x1=".131" x2="99.198" y1="-.125" y2="100.267" gradientUnits="userSpaceOnUse">
      <stop stop-color="#4A71B3"/>
      <stop offset=".53" stop-color="#3C58A3"/>
      <stop offset="1" stop-color="#28266F"/>
    </linearGradient>
    <linearGradient id="z" x1="3.047" x2="98.447" y1="49.501" y2="-48.729" gradientUnits="userSpaceOnUse">
      <stop stop-color="#4A71B3"/>
      <stop offset=".53" stop-color="#3C58A3"/>
      <stop offset="1" stop-color="#28266F"/>
    </linearGradient>
    <linearGradient id="A" x1="93.352" x2="88.565" y1="36.619" y2="-1.829" gradientUnits="userSpaceOnUse">
      <stop stop-color="#4A71B3"/>
      <stop offset=".53" stop-color="#3C58A3"/>
      <stop offset="1" stop-color="#28266F"/>
    </linearGradient>
    <linearGradient id="B" x1="96.938" x2="85.725" y1="9.87" y2="55.95" gradientUnits="userSpaceOnUse">
      <stop stop-color="#4A71B3"/>
      <stop offset=".53" stop-color="#3C58A3"/>
      <stop offset="1" stop-color="#28266F"/>
    </linearGradient>
  </defs>
</svg>
