<svg width="81" height="81" viewBox="0 0 81 81" fill="none" xmlns="http://www.w3.org/2000/svg">
<g clip-path="url(#clip0_127_1680)">
<circle cx="40.498" cy="40.5" r="40" fill="#FF7070" fill-opacity="0.1"/>
<path d="M48.75 63.21C49.375 62.585 50 61.96 50.6299 61.3301C52.0654 59.8946 53.4961 58.4639 54.9316 57.0284C56.5088 55.4512 58.0859 53.8741 59.6631 52.2969C60.7178 51.2422 61.7725 50.1876 62.8272 49.1329C63.2227 48.7374 63.6182 48.3516 63.8916 47.8536C64.8242 46.1739 64.5068 44.0987 63.1592 42.7413C62.4756 42.0577 61.792 41.3741 61.1084 40.6905C59.7363 39.3184 58.3643 37.9463 56.9922 36.5743C55.3857 34.9678 53.7744 33.3565 52.168 31.7501C50.7568 30.3389 49.3506 28.9327 47.9395 27.5215C47.1826 26.7647 46.4258 26.0079 45.669 25.251C45.6348 25.2168 45.6006 25.1827 45.5664 25.1485C44.8096 24.3917 43.5645 24.4161 42.8027 25.1485C42.7539 25.1973 42.7002 25.2413 42.6465 25.2901C42.7783 25.1876 42.9102 25.085 43.042 24.9825C42.915 25.0801 42.7832 25.1583 42.6318 25.2266C42.7881 25.1631 42.9443 25.0948 43.1006 25.0313C42.9346 25.0997 42.7637 25.1436 42.5879 25.168C42.7588 25.1436 42.9346 25.1192 43.1055 25.0997C42.9492 25.1143 42.7979 25.1143 42.6416 25.0997C42.8125 25.1241 42.9883 25.1485 43.1592 25.168C42.9785 25.1436 42.8076 25.0997 42.6416 25.0313C42.7979 25.0948 42.9541 25.1631 43.1104 25.2266C42.9639 25.1631 42.8272 25.085 42.6953 24.9922C42.8272 25.0948 42.959 25.1973 43.0908 25.2999C42.959 25.1973 42.8418 25.085 42.7344 24.9532C42.8369 25.085 42.9395 25.2168 43.042 25.3487C42.9395 25.2168 42.8613 25.0801 42.793 24.9288C42.8565 25.085 42.9248 25.2413 42.9883 25.3975C42.9297 25.2461 42.8906 25.0997 42.8662 24.9385C42.8906 25.1094 42.915 25.2852 42.9346 25.4561C42.915 25.2999 42.915 25.1436 42.9346 24.9874C42.9102 25.1583 42.8858 25.334 42.8662 25.5049C42.8906 25.3438 42.9297 25.1973 42.9883 25.0459C42.9248 25.2022 42.8565 25.3584 42.793 25.5147C42.8565 25.3633 42.9346 25.2217 43.0322 25.085C42.9297 25.2168 42.8272 25.3487 42.7246 25.4805C42.7832 25.4024 42.8467 25.3292 42.915 25.2608C43.6475 24.504 43.6719 23.2588 42.915 22.4971C42.0166 21.5987 41.1182 20.7002 40.2197 19.8018C39.6729 19.2598 39.1309 18.7178 38.5889 18.1758C37.9199 17.5069 37.1973 16.8965 36.2402 16.6817C34.7754 16.3545 33.2764 16.7647 32.207 17.8292C32.0313 18.0049 31.8555 18.1807 31.6748 18.3614C30.835 19.2012 29.9951 20.0411 29.1553 20.8809C27.9395 22.0967 26.7285 23.3077 25.5127 24.5235C24.2529 25.7833 22.9883 27.0479 21.7285 28.3077C20.7617 29.2745 19.7949 30.2413 18.833 31.2032C18.2471 31.7891 17.5635 32.3702 17.1387 33.0879C16.1572 34.7334 16.4746 36.877 17.8076 38.2247C18.1641 38.586 18.5205 38.9376 18.8818 39.2989C20 40.417 21.1133 41.5303 22.2315 42.6485C22.3096 42.7266 22.3877 42.8047 22.4609 42.878C23.2227 43.6397 24.458 43.6055 25.2246 42.878C25.2783 42.8292 25.3272 42.7803 25.3858 42.7364C25.2539 42.8389 25.1221 42.9415 24.9902 43.044C25.1221 42.9463 25.2539 42.8633 25.4053 42.7999C25.249 42.8633 25.0928 42.9317 24.9365 42.9952C25.1025 42.9268 25.2734 42.8829 25.4541 42.8536C25.2832 42.878 25.1074 42.9024 24.9365 42.9219C25.0928 42.9073 25.2441 42.9073 25.4004 42.9219C25.2295 42.8975 25.0537 42.8731 24.8828 42.8536C25.0635 42.878 25.2344 42.9268 25.4004 42.9952C25.2441 42.9317 25.0879 42.8633 24.9316 42.7999C25.0781 42.8682 25.2149 42.9512 25.3418 43.0489C25.21 42.9463 25.0781 42.8438 24.9463 42.7413C25.0586 42.834 25.1563 42.9317 25.249 43.044C25.1465 42.9122 25.044 42.7803 24.9414 42.6485C25.0391 42.7803 25.1221 42.9122 25.1904 43.0586C25.127 42.9024 25.0586 42.7461 24.9951 42.5899C25.0635 42.7559 25.1123 42.9268 25.1367 43.1075C25.1123 42.9366 25.0879 42.7608 25.0684 42.5899C25.0879 42.7461 25.0879 42.8975 25.0684 43.0538C25.0928 42.8829 25.1172 42.7071 25.1367 42.5362C25.1123 42.7169 25.0635 42.8877 24.9951 43.0538C25.0586 42.8975 25.127 42.7413 25.1904 42.585C25.1221 42.7315 25.044 42.8682 24.9463 43.0001C25.0488 42.8682 25.1514 42.7364 25.2539 42.6045C25.21 42.6583 25.1611 42.712 25.1123 42.7657C24.3848 43.5323 24.3506 44.7627 25.1123 45.5294C25.7861 46.2032 26.4551 46.8721 27.1289 47.5459C28.7061 49.1231 30.2832 50.7002 31.8604 52.2774C33.6816 54.0987 35.5029 55.92 37.3242 57.7413C38.7402 59.1573 40.1563 60.5733 41.5723 61.9893C41.9238 62.3409 42.2803 62.6973 42.6318 63.0489C42.6856 63.1026 42.7344 63.1514 42.7881 63.2051C43.8574 64.2501 45.3662 64.6553 46.8164 64.3086C47.544 64.1377 48.2227 63.7227 48.75 63.21C49.4873 62.4971 49.5215 61.1544 48.75 60.4463C47.959 59.7237 46.7725 59.6846 45.9863 60.4463C45.918 60.5147 45.8496 60.5733 45.7715 60.6368C45.9033 60.5342 46.0352 60.4317 46.167 60.3292C46.001 60.4561 45.8252 60.5586 45.6299 60.6368C45.7861 60.5733 45.9424 60.5049 46.0986 60.4415C45.9277 60.5049 45.7568 60.5538 45.5811 60.5831C45.752 60.5586 45.9277 60.5342 46.0986 60.5147C45.874 60.544 45.6543 60.544 45.4346 60.5147C45.6055 60.5391 45.7813 60.5635 45.9522 60.5831C45.7715 60.5538 45.6006 60.5098 45.4346 60.4415C45.5908 60.5049 45.7471 60.5733 45.9033 60.6368C45.7129 60.5538 45.5371 60.4512 45.3662 60.3292C45.4981 60.4317 45.6299 60.5342 45.7617 60.6368C45.5322 60.4512 45.3272 60.2266 45.1172 60.0167C44.6973 59.5967 44.2725 59.1719 43.8525 58.752C42.4512 57.3506 41.0498 55.9493 39.6436 54.543C37.9346 52.834 36.2256 51.1251 34.5166 49.4161C33.0322 47.9317 31.543 46.4424 30.0586 44.9581C29.3408 44.2403 28.6328 43.503 27.8955 42.795C27.8857 42.7852 27.876 42.7754 27.8662 42.7657C27.8662 43.6885 27.8662 44.6065 27.8662 45.5294C28.5596 44.7969 28.9795 43.8399 28.9795 42.8243C28.9746 41.8233 28.5693 40.8272 27.8565 40.1241C27.1484 39.4209 26.1816 39.0254 25.1904 39.001C24.165 38.9815 23.1885 39.4161 22.4512 40.1143C23.374 40.1143 24.292 40.1143 25.2149 40.1143C23.8281 38.7276 22.4414 37.3409 21.0547 35.9542C20.8203 35.7198 20.5615 35.4903 20.3516 35.2266C20.4541 35.3584 20.5566 35.4903 20.6592 35.6221C20.5322 35.4561 20.4297 35.2803 20.3516 35.085C20.415 35.2413 20.4834 35.3975 20.5469 35.5538C20.4834 35.3829 20.4346 35.212 20.4053 35.0362C20.4297 35.2071 20.4541 35.3829 20.4736 35.5538C20.4443 35.3292 20.4443 35.1094 20.4736 34.8897C20.4492 35.0606 20.4248 35.2364 20.4053 35.4073C20.4346 35.2266 20.4785 35.0557 20.5469 34.8897C20.4834 35.0459 20.415 35.2022 20.3516 35.3584C20.4346 35.168 20.5371 34.9922 20.6592 34.8213C20.5566 34.9532 20.4541 35.085 20.3516 35.2168C20.5127 35.0167 20.7031 34.8409 20.8838 34.6553C21.2305 34.3086 21.5772 33.962 21.9238 33.6153C23.0859 32.4532 24.2432 31.296 25.4053 30.1338C26.8115 28.7276 28.2178 27.3213 29.624 25.9151C30.835 24.7042 32.0459 23.4932 33.2568 22.2823C33.8281 21.711 34.3994 21.1299 34.9756 20.5635C35.0488 20.4903 35.1221 20.4268 35.2051 20.3633C35.0732 20.4659 34.9414 20.5684 34.8096 20.6709C34.9756 20.544 35.1514 20.4415 35.3467 20.3633C35.1904 20.4268 35.0342 20.4952 34.8779 20.5586C35.0488 20.4952 35.2197 20.4463 35.3955 20.417C35.2246 20.4415 35.0488 20.4659 34.8779 20.4854C35.1025 20.4561 35.3223 20.4561 35.542 20.4854C35.3711 20.461 35.1953 20.4366 35.0244 20.417C35.2051 20.4463 35.376 20.4903 35.542 20.5586C35.3857 20.4952 35.2295 20.4268 35.0732 20.3633C35.2637 20.4463 35.4395 20.5489 35.6104 20.6709C35.4785 20.5684 35.3467 20.4659 35.2149 20.3633C35.4346 20.5391 35.6299 20.754 35.835 20.9542C36.2109 21.3301 36.582 21.7012 36.958 22.0772C37.8174 22.9366 38.6768 23.7959 39.5361 24.6553C39.7363 24.8555 39.9414 25.0606 40.1416 25.2608C40.1416 24.3379 40.1416 23.42 40.1416 22.4971C39.4336 23.2295 39.0039 24.1963 39.0039 25.2217C39.0039 26.2178 39.4238 27.2481 40.1611 27.9268C40.8936 28.6055 41.8311 29.001 42.832 29.0157C43.8525 29.0352 44.8291 28.6104 45.5566 27.9122C44.6338 27.9122 43.7158 27.9122 42.793 27.9122C43.3887 28.5079 43.9795 29.0987 44.5752 29.6944C45.9863 31.1055 47.3975 32.5167 48.8135 33.9327C50.5225 35.6417 52.2315 37.3506 53.9356 39.0547C55.4004 40.5196 56.8701 41.9893 58.335 43.4542C59.0283 44.1475 59.7266 44.836 60.4151 45.5342C60.4883 45.6075 60.5566 45.6856 60.6201 45.7637C60.5176 45.6319 60.415 45.5001 60.3125 45.3682C60.4395 45.5342 60.542 45.71 60.6201 45.9053C60.5566 45.7491 60.4883 45.5928 60.4248 45.4366C60.4883 45.6075 60.5371 45.7784 60.5664 45.9542C60.542 45.7833 60.5176 45.6075 60.4981 45.4366C60.5274 45.6612 60.5274 45.8809 60.4981 46.1006C60.5225 45.9297 60.5469 45.754 60.5664 45.5831C60.5371 45.7637 60.4932 45.9346 60.4248 46.1006C60.4883 45.9444 60.5566 45.7881 60.6201 45.6319C60.5371 45.8223 60.4346 45.9981 60.3125 46.169C60.415 46.0372 60.5176 45.9053 60.6201 45.7735C60.1611 46.3448 59.5801 46.8379 59.0625 47.3555C57.915 48.503 56.7725 49.6456 55.625 50.793C54.2236 52.1944 52.8272 53.5909 51.4258 54.9922C50.21 56.2081 48.9941 57.4239 47.7783 58.6397C47.1875 59.2305 46.582 59.8165 45.9961 60.4219C45.9863 60.4317 45.9766 60.4415 45.9717 60.4463C45.249 61.169 45.1953 62.4971 45.9717 63.21C46.7676 63.9229 47.9785 63.9815 48.75 63.21Z" fill="#FF7070"/>
<path d="M35.0293 43.1807C36.2158 44.3672 37.4073 45.5587 38.5938 46.7452C40.4883 48.6397 42.3828 50.5342 44.2823 52.4337C44.7168 52.8682 45.1563 53.3077 45.5908 53.7422C46.3135 54.4649 47.6416 54.5186 48.3545 53.7422C49.0723 52.961 49.126 51.7501 48.3545 50.9786C47.168 49.7921 45.9766 48.6006 44.7901 47.4141C42.8907 45.5196 40.9961 43.6251 39.0967 41.7256C38.6621 41.2911 38.2227 40.8516 37.7881 40.417C37.0655 39.6944 35.7373 39.6407 35.0244 40.417C34.3116 41.1983 34.2578 42.4092 35.0293 43.1807ZM50.1221 41.9747C49.3408 41.1885 48.5547 40.4073 47.7735 39.6212C46.5283 38.376 45.2881 37.1358 44.043 35.8907C43.7549 35.6026 43.4668 35.3145 43.1787 35.0264C42.4561 34.3038 41.128 34.2501 40.4151 35.0264C39.6973 35.8077 39.6436 37.0186 40.4151 37.7901C41.2012 38.5762 41.9825 39.3575 42.7686 40.1436C44.0137 41.3887 45.2539 42.629 46.4991 43.8741C46.7871 44.1622 47.0752 44.4503 47.3633 44.7383C48.086 45.461 49.4141 45.5147 50.127 44.7383C50.8399 43.9571 50.8936 42.7462 50.1221 41.9747Z" fill="#FF7070"/>
<path d="M32.124 38.6348C32.8564 37.9024 33.5937 37.1651 34.3262 36.4327C35.4883 35.2706 36.6553 34.1036 37.8174 32.9415C38.0859 32.6729 38.3594 32.3995 38.6279 32.1309C39.3506 31.4083 39.4043 30.0801 38.6279 29.3672C37.8467 28.6495 36.6357 28.5958 35.8643 29.3672C35.1318 30.0997 34.3945 30.837 33.6621 31.5694C32.5 32.7315 31.333 33.8985 30.1709 35.0606C29.9023 35.3292 29.6289 35.6026 29.3603 35.8712C28.6377 36.5938 28.584 37.9219 29.3603 38.6348C30.1416 39.3477 31.3525 39.4063 32.124 38.6348Z" fill="#FF7070"/>
</g>
<defs>
<clipPath id="clip0_127_1680">
<rect width="80" height="80" fill="white" transform="translate(0.498047 0.5)"/>
</clipPath>
</defs>
</svg>
