<svg width="85" height="82" viewBox="0 0 85 82" fill="none" xmlns="http://www.w3.org/2000/svg">
<rect width="85" height="82" rx="10" fill="#FF7070"/>
<path d="M33.8984 41C31.3672 41.0781 29.2969 42.0781 27.6875 44H24.5469C23.2656 44 22.1875 43.6836 21.3125 43.0508C20.4375 42.418 20 41.4922 20 40.2734C20 34.7578 20.9687 32 22.9062 32C23 32 23.3398 32.1641 23.9258 32.4922C24.5117 32.8203 25.2734 33.1524 26.2109 33.4883C27.1484 33.8242 28.0781 33.9922 29 33.9922C30.0469 33.9922 31.0859 33.8125 32.1172 33.4531C32.0391 34.0313 32 34.5469 32 35C32 37.1719 32.6328 39.1719 33.8984 41ZM59 55.9297C59 57.8047 58.4297 59.2851 57.2891 60.3711C56.1484 61.457 54.6328 62 52.7422 62H32.2578C30.3672 62 28.8516 61.457 27.7109 60.3711C26.5703 59.2851 26 57.8047 26 55.9297C26 55.1016 26.0273 54.293 26.082 53.5039C26.1367 52.7148 26.2461 51.8633 26.4102 50.9492C26.5742 50.0352 26.7813 49.1875 27.0312 48.4062C27.2812 47.625 27.6172 46.8633 28.0391 46.1211C28.4609 45.3789 28.9453 44.7461 29.4922 44.2226C30.0391 43.6992 30.707 43.2813 31.4961 42.9688C32.2851 42.6562 33.1562 42.5 34.1094 42.5C34.2656 42.5 34.6016 42.668 35.1172 43.0039C35.6328 43.3399 36.2031 43.7148 36.8281 44.1289C37.4531 44.543 38.2891 44.918 39.3359 45.2539C40.3828 45.5898 41.4375 45.7578 42.5 45.7578C43.5625 45.7578 44.6172 45.5898 45.6641 45.2539C46.7109 44.918 47.5469 44.543 48.1719 44.1289C48.7969 43.7148 49.3672 43.3399 49.8828 43.0039C50.3984 42.668 50.7344 42.5 50.8906 42.5C51.8438 42.5 52.7148 42.6562 53.5039 42.9688C54.293 43.2813 54.9609 43.6992 55.5078 44.2226C56.0547 44.7461 56.5391 45.3789 56.9609 46.1211C57.3828 46.8633 57.7188 47.625 57.9688 48.4062C58.2187 49.1875 58.4258 50.0352 58.5898 50.9492C58.7539 51.8633 58.8633 52.7148 58.918 53.5039C58.9727 54.293 59 55.1016 59 55.9297ZM35 26C35 27.6563 34.4141 29.0703 33.2422 30.2422C32.0703 31.4141 30.6562 32 29 32C27.3438 32 25.9297 31.4141 24.7578 30.2422C23.5859 29.0703 23 27.6563 23 26C23 24.3438 23.5859 22.9297 24.7578 21.7578C25.9297 20.5859 27.3438 20 29 20C30.6562 20 32.0703 20.5859 33.2422 21.7578C34.4141 22.9297 35 24.3438 35 26ZM51.5 35C51.5 37.4844 50.6211 39.6055 48.8633 41.3633C47.1055 43.1211 44.9844 44 42.5 44C40.0156 44 37.8945 43.1211 36.1367 41.3633C34.3789 39.6055 33.5 37.4844 33.5 35C33.5 32.5156 34.3789 30.3945 36.1367 28.6367C37.8945 26.8789 40.0156 26 42.5 26C44.9844 26 47.1055 26.8789 48.8633 28.6367C50.6211 30.3945 51.5 32.5156 51.5 35ZM65 40.2734C65 41.4922 64.5625 42.418 63.6875 43.0508C62.8125 43.6836 61.7344 44 60.4531 44H57.3125C55.7031 42.0781 53.6328 41.0781 51.1016 41C52.3672 39.1719 53 37.1719 53 35C53 34.5469 52.9609 34.0313 52.8828 33.4531C53.9141 33.8125 54.9531 33.9922 56 33.9922C56.9219 33.9922 57.8516 33.8242 58.7891 33.4883C59.7266 33.1524 60.4883 32.8203 61.0742 32.4922C61.6602 32.1641 62 32 62.0938 32C64.0313 32 65 34.7578 65 40.2734ZM62 26C62 27.6563 61.4141 29.0703 60.2422 30.2422C59.0703 31.4141 57.6562 32 56 32C54.3438 32 52.9297 31.4141 51.7578 30.2422C50.5859 29.0703 50 27.6563 50 26C50 24.3438 50.5859 22.9297 51.7578 21.7578C52.9297 20.5859 54.3438 20 56 20C57.6562 20 59.0703 20.5859 60.2422 21.7578C61.4141 22.9297 62 24.3438 62 26Z" fill="white"/>
</svg>
