<svg width="83" height="110" viewBox="0 0 83 110" fill="none" xmlns="http://www.w3.org/2000/svg">
<rect width="83.0002" height="110" rx="10" fill="#FF7070"/>
<path fill-rule="evenodd" clip-rule="evenodd" d="M61.6918 44.834L60.7838 47.677C60.9594 47.6324 61.1358 47.5848 61.3143 47.5303C62.5699 47.1484 63.2786 45.8191 62.8969 44.5618C62.8571 44.4303 62.8045 44.3063 62.7451 44.1873C62.4926 44.364 62.2004 44.4866 61.8834 44.5327C61.8211 44.6344 61.7572 44.7349 61.6918 44.834ZM25.376 27.0838C25.5913 30.7739 28.7529 33.5898 32.4379 33.3742C36.1222 33.1579 38.9348 29.9919 38.7195 26.3018C38.5038 22.6119 35.3416 19.7957 31.6573 20.0116C27.972 20.2279 25.16 23.3933 25.376 27.0838ZM36.981 27.7774C36.981 27.7774 34.8967 33.5982 30.3417 29.3408C30.3417 29.3408 34.5673 29.693 36.981 27.7774ZM45.2761 52.3752C44.6868 52.4156 44.0755 52.4382 43.4423 52.4382C38.7732 52.4385 33.3922 51.3311 29.5965 49.2234C30.2265 58.3726 29.467 72.6763 20.8198 83.4436C19.5346 85.0439 19.7882 87.3842 21.3862 88.6713C22.0721 89.2233 22.894 89.4919 23.7108 89.4919C24.7968 89.4919 25.8729 89.0172 26.6066 88.104C33.5838 79.4159 36.2318 69.0659 36.978 60.066C38.104 60.2272 39.2455 60.3622 40.3044 60.461C41.1563 68.8937 41.2282 78.3046 38.7557 84.9895C38.0434 86.9151 39.0248 89.0544 40.9478 89.7674C41.3732 89.925 41.8086 89.9997 42.2369 89.9997C43.7458 89.9997 45.1642 89.0719 45.719 87.5722C49.4063 77.6038 48.4009 63.3192 46.8284 52.7761L46.1565 52.6988C45.8405 52.6625 45.5405 52.5468 45.2761 52.3752ZM46.6499 38.7782L46.6667 38.7585L46.6667 38.7584C46.691 38.7299 46.7153 38.7013 46.7414 38.6735C47.2428 38.1363 47.8867 37.8365 48.4184 37.8365C48.5358 37.8365 48.6462 37.8544 48.7502 37.8844C48.7205 38.1679 48.7627 38.4424 48.8809 38.6935C48.946 38.8309 49.0327 38.954 49.1352 39.0644L49.7898 39.1396C49.8982 38.8416 50.0459 38.5724 50.2365 38.3606C50.4988 38.0685 50.8018 37.9121 51.1 37.9121C51.1357 37.9121 51.1713 37.9141 51.2067 37.9186C51.5384 37.9608 51.8331 38.1988 52.036 38.5891C52.1586 38.8252 52.2341 39.0998 52.2691 39.3919C52.2684 39.395 52.2678 39.3981 52.2673 39.4012C52.2668 39.4034 52.2664 39.4057 52.266 39.408L52.2659 39.4085C52.265 39.4137 52.264 39.419 52.2629 39.4243L52.8543 39.4924C52.9526 39.07 53.1884 38.6441 53.5312 38.2767C53.9185 37.8618 54.3902 37.5774 54.8592 37.4763C54.9795 37.4504 55.0954 37.4373 55.205 37.4373C55.4866 37.4373 55.7284 37.5224 55.9042 37.6872C56.1484 37.9162 56.2479 38.2818 56.184 38.7173C56.1632 38.86 56.1237 39.0043 56.0711 39.1474C56.0224 39.1643 55.974 39.1816 55.9271 39.2039C55.6666 39.3279 55.4589 39.5269 55.3042 39.7747L56.0082 39.8559C56.0619 39.8116 56.1189 39.7717 56.1822 39.7417C56.1858 39.7399 56.1899 39.7396 56.1935 39.7378C56.1953 39.7845 56.1974 39.8312 56.2015 39.8782L56.8066 39.9478C56.7124 39.2378 56.9189 38.6048 57.3849 38.3829C57.5031 38.3267 57.6314 38.2999 57.7651 38.2999C58.3669 38.2999 59.0771 38.8431 59.4674 39.6661C59.5636 39.8687 59.6331 40.0751 59.6795 40.2789L60.2982 40.3502C60.2477 40.0397 60.1514 39.7217 60.0038 39.4106C59.378 38.0917 58.0894 37.39 57.1294 37.8457C56.9922 37.9112 56.8707 37.9986 56.7623 38.1012C56.6988 37.7657 56.5467 37.4751 56.3093 37.2529C55.9185 36.8871 55.3582 36.7606 54.7333 36.8951C54.4072 36.9656 54.0837 37.1063 53.7792 37.3017C53.8241 36.9995 53.7914 36.7006 53.6631 36.4284C53.2092 35.4673 51.768 35.1943 50.4489 35.818C49.8278 36.1122 49.3208 36.5608 49.0214 37.081C48.9774 37.1574 48.9397 37.2342 48.9059 37.3112C48.6296 37.2342 48.324 37.225 48.0088 37.2838C47.4367 36.8508 46.8507 36.429 46.2477 36.0352C45.9204 36.7508 45.6982 37.5278 45.6041 38.3481C45.5925 38.4493 45.583 38.5513 45.5752 38.6542L46.6499 38.7782ZM53.1258 36.683C53.3512 37.1604 53.0958 37.7984 52.5498 38.2931C52.254 37.7381 51.8046 37.3951 51.2809 37.3288C50.7492 37.2609 50.222 37.4864 49.794 37.9629C49.6591 38.1131 49.5409 38.2845 49.4378 38.4698C49.4351 38.4644 49.4314 38.4596 49.4278 38.4548C49.4239 38.4498 49.4201 38.4448 49.4173 38.4391C49.2745 38.1363 49.3163 37.7598 49.5356 37.3784C49.7753 36.9623 50.1896 36.5994 50.7026 36.3564C51.1003 36.1681 51.5141 36.0774 51.8886 36.0774C52.4604 36.0774 52.9395 36.2883 53.1258 36.683ZM62.4173 41.4901C62.5112 41.1058 62.5845 40.7125 62.6306 40.3095C63.2291 35.0955 59.4806 30.3655 54.2736 29.7659C51.7506 29.4759 49.2675 30.1859 47.2782 31.7668C45.2899 33.3471 44.0347 35.6089 43.7448 38.1346C43.6984 38.5376 43.6812 38.9371 43.6854 39.3324C43.282 39.5245 42.9802 39.9106 42.9256 40.3857C42.8433 41.101 43.3491 41.7515 44.0549 41.8583C44.1279 42.1109 44.2129 42.3586 44.3059 42.6028L44.6044 46.307C45.72 46.2475 46.6821 46.0856 47.4692 45.8206C47.7856 45.7141 48.1141 45.66 48.4453 45.66C49.7602 45.66 50.9252 46.4988 51.3443 47.7475C51.6051 48.5229 51.5487 49.3537 51.1851 50.0869C50.8215 50.8198 50.1948 51.3671 49.4204 51.628C48.7884 51.841 48.0734 52.0117 47.2964 52.142L57.0574 53.266C57.7067 53.3407 58.4006 52.8922 58.5999 52.2687L61.0703 44.5342C61.2161 44.3176 61.3534 44.0945 61.4817 43.8655C62.1939 43.9232 62.8352 43.4042 62.9172 42.6882C62.9725 42.2132 62.7663 41.7688 62.4173 41.4901ZM53.1817 30.8926C53.4975 30.8926 53.8171 30.9107 54.1382 30.9479C58.694 31.4726 61.9741 35.6113 61.4502 40.1736C61.4119 40.507 61.3522 40.8327 61.2764 41.1516L44.8723 39.2622C44.8714 38.9332 44.8874 38.6022 44.9255 38.2702C45.4123 34.0295 49.0171 30.8926 53.1817 30.8926ZM43.4427 51.7541C36.63 51.7544 28.0063 49.3195 25.8632 44.7653C25.352 43.6793 24.9487 41.952 25.9817 39.9636C26.656 38.6667 27.9404 37.2589 30.2109 35.8454C30.3615 35.7517 30.5192 35.6782 30.6799 35.6217C33.0695 34.4055 36.2076 33.749 38.5007 33.6589C40.5009 33.5072 42.325 33.9762 44.0154 34.7716C43.5232 35.7913 43.1994 36.8969 43.0663 38.0551C43.0331 38.3443 43.0126 38.6453 43.0052 38.9531C42.5843 39.2827 42.3095 39.7646 42.2471 40.3065C42.1405 41.2378 42.6769 42.09 43.5146 42.4169C43.5514 42.5276 43.5906 42.6394 43.6334 42.7536L43.9215 46.329C43.8958 46.3294 43.8703 46.3299 43.8447 46.3304C43.7689 46.3319 43.6933 46.3334 43.6153 46.3334C38.1089 46.3334 31.6966 44.1525 30.8064 42.4963C30.834 42.3994 30.9377 42.2364 31.1242 42.0255L30.4592 41.759C30.1705 42.1358 30.041 42.4788 30.1624 42.7367C31.4426 45.4563 42.4848 48.221 47.6879 46.4688C48.9327 46.0497 50.2794 46.7195 50.6977 47.9652C51.1162 49.2109 50.4473 50.5605 49.2033 50.9793C47.6599 51.4992 45.6452 51.7538 43.4427 51.7541Z" fill="white"/>
</svg>
