<svg width="31" height="30" viewBox="0 0 31 30" fill="none" xmlns="http://www.w3.org/2000/svg">
<g clip-path="url(#clip0_127_1803)">
<path d="M15.4981 30C23.7824 30 30.4981 23.2843 30.4981 15C30.4981 6.71573 23.7824 0 15.4981 0C7.21381 0 0.498085 6.71573 0.498085 15C0.498085 23.2843 7.21381 30 15.4981 30Z" fill="#2DAAE1"/>
<path d="M25.1158 9.03329C24.4083 9.34725 23.6484 9.55949 22.8494 9.65489C23.6648 9.16659 24.2895 8.3928 24.5845 7.47187C23.8099 7.93194 22.9621 8.25583 22.0781 8.42947C21.3586 7.66262 20.3327 7.18384 19.1977 7.18384C17.0191 7.18384 15.2523 8.94997 15.2523 11.1298C15.2523 11.4387 15.2871 11.74 15.354 12.0293C12.0744 11.8645 9.16682 10.2935 7.22065 7.90649C6.88081 8.48947 6.6863 9.1673 6.6863 9.89051C6.6863 11.2594 7.38302 12.4671 8.44168 13.1746C7.81497 13.1551 7.20202 12.986 6.65406 12.6812V12.7311C6.65406 14.6431 8.01404 16.2375 9.81934 16.6001C9.48771 16.6909 9.13968 16.7384 8.77963 16.7384C8.52506 16.7384 8.27808 16.7143 8.03681 16.6689C8.53896 18.2361 9.99628 19.3769 11.7225 19.4091C10.372 20.4678 8.67032 21.0988 6.82209 21.0988C6.50375 21.0988 6.18913 21.0798 5.88027 21.0426C7.62684 22.1625 9.70061 22.8163 11.9291 22.8163C19.187 22.8163 23.1563 16.8035 23.1563 11.5891C23.1563 11.4179 23.1526 11.248 23.1443 11.0787C23.9177 10.5193 24.5853 9.82671 25.1158 9.03329Z" fill="white"/>
</g>
<defs>
<clipPath id="clip0_127_1803">
<rect width="30" height="30" fill="white" transform="translate(0.498047)"/>
</clipPath>
</defs>
</svg>
